<svg id="wave" style="transform:rotate(0deg); transition: 0.3s" viewBox="0 0 1440 220" version="1.1" xmlns="http://www.w3.org/2000/svg"><defs><linearGradient id="sw-gradient-0" x1="0" x2="0" y1="1" y2="0"><stop stop-color="rgba(142, 209, 252, 1)" offset="0%"></stop><stop stop-color="rgba(110.224, 166.724, 255, 1)" offset="100%"></stop></linearGradient></defs><path style="transform:translate(0, 0px); opacity:1" fill="url(#sw-gradient-0)" d="M0,66L60,84.3C120,103,240,139,360,132C480,125,600,73,720,58.7C840,44,960,66,1080,88C1200,110,1320,132,1440,117.3C1560,103,1680,51,1800,58.7C1920,66,2040,132,2160,143C2280,154,2400,110,2520,110C2640,110,2760,154,2880,165C3000,176,3120,154,3240,143C3360,132,3480,132,3600,121C3720,110,3840,88,3960,99C4080,110,4200,154,4320,157.7C4440,161,4560,125,4680,102.7C4800,81,4920,73,5040,77C5160,81,5280,95,5400,102.7C5520,110,5640,110,5760,106.3C5880,103,6000,95,6120,91.7C6240,88,6360,88,6480,88C6600,88,6720,88,6840,95.3C6960,103,7080,117,7200,117.3C7320,117,7440,103,7560,91.7C7680,81,7800,73,7920,80.7C8040,88,8160,110,8280,121C8400,132,8520,132,8580,132L8640,132L8640,220L8580,220C8520,220,8400,220,8280,220C8160,220,8040,220,7920,220C7800,220,7680,220,7560,220C7440,220,7320,220,7200,220C7080,220,6960,220,6840,220C6720,220,6600,220,6480,220C6360,220,6240,220,6120,220C6000,220,5880,220,5760,220C5640,220,5520,220,5400,220C5280,220,5160,220,5040,220C4920,220,4800,220,4680,220C4560,220,4440,220,4320,220C4200,220,4080,220,3960,220C3840,220,3720,220,3600,220C3480,220,3360,220,3240,220C3120,220,3000,220,2880,220C2760,220,2640,220,2520,220C2400,220,2280,220,2160,220C2040,220,1920,220,1800,220C1680,220,1560,220,1440,220C1320,220,1200,220,1080,220C960,220,840,220,720,220C600,220,480,220,360,220C240,220,120,220,60,220L0,220Z"></path></svg>