<svg id="Layer_1" data-name="Layer 1" xmlns="http://www.w3.org/2000/svg" xmlns:xlink="http://www.w3.org/1999/xlink" viewBox="0 0 900 231.3"><defs><style>.cls-1{fill:none;}.cls-2{fill:#08629d;}.cls-3{clip-path:url(#clip-path);}</style><clipPath id="clip-path"><rect class="cls-1" x="-1" y="9.45" width="901" height="212.4"/></clipPath></defs><path class="cls-2" d="M143.36,177.32h17.37L89.47,21.44H73.21L2,177.32H19.1l18.71-41.64h86.84l18.71,41.64Zm-99.54-55L81.23,38.59l37.41,83.72Zm139.4,55H199V12.09H183.22V177.32Zm59.9,0h15.81V60.19H243.12V177.32Zm8-142.74A11.41,11.41,0,0,0,262.71,23a10.3,10.3,0,0,0-3.34-7.68,11.39,11.39,0,0,0-8.24-3.23,11.2,11.2,0,0,0-8.24,3.34,10.7,10.7,0,0,0-3.34,7.79,11,11,0,0,0,3.34,8,11.2,11.2,0,0,0,8.24,3.34ZM396.32,60.19V82.68A48.62,48.62,0,0,0,377,65.31a59.41,59.41,0,0,0-26.95-6,62.88,62.88,0,0,0-30.06,7.12,53.11,53.11,0,0,0-21,20,56.42,56.42,0,0,0-7.69,29.4,57,57,0,0,0,7.69,29.5,53.44,53.44,0,0,0,21.15,20.27A62.3,62.3,0,0,0,350,172.86a59.43,59.43,0,0,0,26.39-5.79,47.53,47.53,0,0,0,19.26-16.92v14.92q0,21.83-10.46,32.18T352.45,207.6a76.91,76.91,0,0,1-25.5-4.23,60.23,60.23,0,0,1-20.59-11.8l-8,12q9.14,8.46,23.72,13.25a98.28,98.28,0,0,0,30.84,4.79q29.39,0,44-14.36t14.58-44.2V60.19Zm-44.76,98.64a47.31,47.31,0,0,1-22.82-5.45,39.54,39.54,0,0,1-15.81-15.25,43.59,43.59,0,0,1-5.68-22.27,43.53,43.53,0,0,1,5.68-22.27,38.76,38.76,0,0,1,15.81-15.14,51.36,51.36,0,0,1,45.87.11A39.87,39.87,0,0,1,390.42,93.7a43,43,0,0,1,5.68,22.16,43.68,43.68,0,0,1-5.68,22.27,39.51,39.51,0,0,1-15.92,15.25,48,48,0,0,1-22.94,5.45ZM515.45,59.3q-15.15,0-26.61,5.9a43.85,43.85,0,0,0-17.92,16.59V60.19H455.77V177.32h15.81V115.86q0-19.81,11-31.07t29.95-11.24q16.92,0,26.05,9.57T547.74,111v66.36h15.81V109.4q0-24.5-13-37.3T515.45,59.3Z"/><path class="cls-2" d="M603,177.32h70.81q25.4,0,44.87-9.69a72.6,72.6,0,0,0,30.29-27.28q10.8-17.58,10.8-41t-10.8-41a72.54,72.54,0,0,0-30.29-27.28q-19.49-9.69-44.87-9.69H603V177.32ZM639,147.7V51.06h33q23.38,0,37.3,13t13.92,35.3q0,22.28-13.92,35.29t-37.3,13Z"/><g class="cls-3"><polygon class="cls-2" points="900.03 177.32 853.71 116.08 898.25 57.52 861.28 57.52 835.23 92.48 809.84 57.52 770.87 57.52 815.41 116.97 769.31 177.32 807.17 177.32 834.34 140.57 860.61 177.32 900.03 177.32 900.03 177.32"/></g></svg>