<svg id="wave" style="transform:rotate(180deg); transition: 0.3s" viewBox="0 0 1440 220" version="1.1" xmlns="http://www.w3.org/2000/svg"><defs><linearGradient id="sw-gradient-0" x1="0" x2="0" y1="1" y2="0"><stop stop-color="rgba(142, 209, 252, 1)" offset="0%"></stop><stop stop-color="rgba(110.224, 166.724, 255, 1)" offset="100%"></stop></linearGradient></defs><path style="transform:translate(0, 0px); opacity:1" fill="url(#sw-gradient-0)" d="M0,22L60,40.3C120,59,240,95,360,121C480,147,600,161,720,154C840,147,960,117,1080,99C1200,81,1320,73,1440,84.3C1560,95,1680,125,1800,146.7C1920,169,2040,183,2160,187C2280,191,2400,183,2520,176C2640,169,2760,161,2880,165C3000,169,3120,183,3240,172.3C3360,161,3480,125,3600,95.3C3720,66,3840,44,3960,55C4080,66,4200,110,4320,117.3C4440,125,4560,95,4680,77C4800,59,4920,51,5040,51.3C5160,51,5280,59,5400,51.3C5520,44,5640,22,5760,18.3C5880,15,6000,29,6120,58.7C6240,88,6360,132,6480,135.7C6600,139,6720,103,6840,99C6960,95,7080,125,7200,124.7C7320,125,7440,95,7560,88C7680,81,7800,95,7920,99C8040,103,8160,95,8280,110C8400,125,8520,161,8580,179.7L8640,198L8640,220L8580,220C8520,220,8400,220,8280,220C8160,220,8040,220,7920,220C7800,220,7680,220,7560,220C7440,220,7320,220,7200,220C7080,220,6960,220,6840,220C6720,220,6600,220,6480,220C6360,220,6240,220,6120,220C6000,220,5880,220,5760,220C5640,220,5520,220,5400,220C5280,220,5160,220,5040,220C4920,220,4800,220,4680,220C4560,220,4440,220,4320,220C4200,220,4080,220,3960,220C3840,220,3720,220,3600,220C3480,220,3360,220,3240,220C3120,220,3000,220,2880,220C2760,220,2640,220,2520,220C2400,220,2280,220,2160,220C2040,220,1920,220,1800,220C1680,220,1560,220,1440,220C1320,220,1200,220,1080,220C960,220,840,220,720,220C600,220,480,220,360,220C240,220,120,220,60,220L0,220Z"></path></svg>