<svg xmlns="http://www.w3.org/2000/svg" viewBox="0 0 500 500"><g id="freepik--Floor--inject-37"><ellipse id="freepik--floor--inject-37" cx="252.29" cy="359.72" rx="230.07" ry="132.83" style="fill:#fafafa"></ellipse></g><g id="freepik--Shadows--inject-37"><g id="freepik--Shadow--inject-37"><ellipse cx="249.99" cy="433.6" rx="72" ry="41.57" style="fill:#2F8AE1;opacity:0.2"></ellipse><g style="opacity:0.2"><path d="M250,484.08c-21.21,0-42.41-4.9-58.56-14.68C175.69,459.86,167,447.14,167,433.6s8.67-26.26,24.41-35.8c32.29-19.58,84.83-19.58,117.12,0h0c15.74,9.54,24.41,22.25,24.41,35.8s-8.67,26.26-24.41,35.8C292.41,479.18,271.2,484.08,250,484.08Zm0-99.84c-21,0-42,4.84-58,14.53-15.39,9.32-23.86,21.69-23.86,34.83s8.47,25.5,23.86,34.83c32,19.37,84,19.37,115.94,0,15.39-9.33,23.86-21.7,23.86-34.83s-8.47-25.51-23.86-34.83C292,389.08,271,384.24,250,384.24Z" style="fill:#2F8AE1"></path></g></g><ellipse id="freepik--shadow--inject-37" cx="414.62" cy="393.76" rx="72" ry="41.57" style="fill:#e0e0e0"></ellipse><ellipse id="freepik--shadow--inject-37" cx="83.39" cy="393.76" rx="72" ry="41.57" style="fill:#e0e0e0"></ellipse></g><g id="freepik--Flask--inject-37"><g id="freepik--flask--inject-37"><g id="freepik--flask--inject-37"><g id="freepik--flask--inject-37"><path d="M120.38,304.15a11.57,11.57,0,0,1,1.93-6.26l30.26-47V217.33l22.54,0v33.46l30.26,47a11.66,11.66,0,0,1,1.93,6.26c0,.1,0,.2,0,.3h0c0,.24,0,.48,0,.72a10.47,10.47,0,0,1-.15,1.67c-.86,6-5,11.89-12.55,16.5-17,10.41-44.49,10.41-61.46,0-8.54-5.24-12.78-12.11-12.73-19C120.39,304.29,120.38,304.22,120.38,304.15Z" style="fill:#f5f5f5"></path><polygon points="155.64 220.94 154.01 220.4 154.16 251.84 135.38 283.04 155.64 252.31 155.64 220.94" style="fill:#fff;opacity:0.30000000000000004"></polygon><path d="M152.57,219s3.58,2.17,11.27,2.17S175.11,219,175.11,219v-1.63l-22.54,0Z" style="opacity:0.05"></path><path d="M150.64,284.86c14.44-2.82,31-1,42.28,5.39,15.68,8.91,15.68,23.36,0,32.27s-41.54,8.91-57.76,0-16.22-23.36,0-32.27a53.48,53.48,0,0,1,15.48-5.39" style="fill:#e0e0e0"></path><path d="M154.06,209.54c5.53-2.36,14.36-2.36,19.71,0s5.35,6.17,0,8.52-14.18,2.36-19.71,0S148.52,211.89,154.06,209.54Z" style="fill:#f5f5f5"></path><path d="M171.69,214c-1,.79-4.19,2.55-12.36,1.55-7.23-.88-6.23-4.76-.43-5.21S171.69,214,171.69,214Z" style="fill:#fff;opacity:0.30000000000000004"></path><path d="M157.5,210.7a25.8,25.8,0,0,1,12.77,0c3.47,1.07,3.47,2.81,0,3.88a25.8,25.8,0,0,1-12.77,0C153.92,213.51,153.92,211.77,157.5,210.7Z" style="fill:#f0f0f0"></path><path d="M154.06,218.06a7.78,7.78,0,0,1-3.64-2.66c4.82,4,16.61,3.46,21.52,1.69s5.05-5.26,3.12-6.89c4,2.36,3.59,5.72-1.29,7.86C168.42,220.42,159.59,220.42,154.06,218.06Z" style="opacity:0.05"></path><path d="M157.5,210.7a23.13,23.13,0,0,1,6.34-.8v5.48a23.13,23.13,0,0,1-6.34-.8C153.92,213.51,153.92,211.77,157.5,210.7Z" style="opacity:0.1"></path><path d="M154.06,209.54c4.35-1.86,10.75-2.24,15.88-1.18-.52,0-10.48-1.19-15.71,1.66-4.57,2.49-4.36,4.71-3.15,6.17C148.84,214,149.82,211.34,154.06,209.54Z" style="fill:#fff;opacity:0.30000000000000004"></path></g></g><path d="M163.85,326.87c-10.92,0-21.12-2.57-28.72-7.24-6.95-4.26-10.75-9.67-10.71-15.23V304a7.17,7.17,0,0,1,1.23-3.67l31-48.14V239.5h14.49v12.66l31,48.14a7.24,7.24,0,0,1,1.23,3.74l-.08,1.82,0,.25c-.72,5-4.48,9.76-10.6,13.52C185,324.3,174.76,326.87,163.85,326.87Z" style="fill:#e0e0e0"></path><ellipse cx="163.85" cy="239.5" rx="7.24" ry="3.86" style="fill:#ebebeb"></ellipse><g style="opacity:0.1"><path d="M192.57,319.63a30.49,30.49,0,0,0,5.61-4.38c-11.21,8.69-36.32,11.58-47.57,7.26s-17.7-9.21-20.08-17.79c-1.32-4.78,1.67-14.62,5.68-20.86L125.64,300.3a7.17,7.17,0,0,0-1.23,3.67v.43c0,5.56,3.76,11,10.71,15.23,7.6,4.67,17.8,7.24,28.72,7.24S185,324.3,192.57,319.63Z"></path></g><path d="M167.88,254.88V219.59a23,23,0,0,0,4.94-1.15v33.87l30.55,47.41c2,3.11.54,7.59-1.09,11.25-1.36,3-5.75,7-8.75,8.88a46.62,46.62,0,0,1-18.18,7s12.54-7,15-12.21c1.85-3.9.2-9.82-2.46-14.89Z" style="fill:#fff;opacity:0.30000000000000004;mix-blend-mode:hard-light"></path></g></g><g id="freepik--Microscope--inject-37"><g id="freepik--microscope--inject-37"><path d="M374.21,302.51v3.88l-54.83,31.66v-3.89c0-2.14,2.14-5.12,4.78-6.64l45.26-26.14c1.59-.92,3-1.1,3.87-.63A1.85,1.85,0,0,1,374.21,302.51Z" style="fill:#ebebeb"></path><path d="M342,282.69l-.07,0h0c-.87-.5-2.3-.33-3.92.6l-45.26,26.14c-2.64,1.52-4.78,4.5-4.78,6.64v3.89l31.4,18.13v-3.89c0-2.14,2.14-5.12,4.78-6.64l45.26-26.14c1.59-.92,3-1.1,3.87-.63Z" style="fill:#f5f5f5"></path><path d="M306.57,304.59a25.26,25.26,0,0,1,13.93-2.77l19-11,14.64,8.45-19,11c.61,2.86-1,5.85-4.8,8.05-6.56,3.79-17.21,3.79-23.78,0S300,308.38,306.57,304.59Z" style="fill:#ebebeb"></path><path d="M357.65,290.81v6.47l-11.21,6.47v-6.47a12.4,12.4,0,0,1,5.61-9.72c1.56-.9,3-1,4-.37A4,4,0,0,1,357.65,290.81Z" style="fill:#e0e0e0"></path><path d="M357.65,290.81v6.47l-11.21,6.47v-6.47a12.4,12.4,0,0,1,5.61-9.72c1.56-.9,3-1,4-.37A4,4,0,0,1,357.65,290.81Z" style="fill:#fff;opacity:0.6000000000000001"></path><path d="M342.63,279.45l-.09-.06a4,4,0,0,0-4,.41,12.37,12.37,0,0,0-5.61,9.71V296l13.46,7.77v-6.47a12.4,12.4,0,0,1,5.61-9.72,4,4,0,0,1,3.83-.46Z" style="fill:#e0e0e0"></path><path d="M352,293.25c.83-.48,1.5-.09,1.5.87a3.31,3.31,0,0,1-1.5,2.59c-.82.48-1.49.09-1.49-.87A3.33,3.33,0,0,1,352,293.25Z" style="opacity:0.25"></path><path d="M351.41,233.81l3.4-5.7s-8-4.57-10.43-6l-4.05,5.6c5.45,5.06,10.6,17.34,8.32,31.34-1.31,8-4.15,14.16-9.3,22.24l10.43,6c5.62-7.47,7.74-11.61,10.74-21.41S361.15,239.13,351.41,233.81Z" style="fill:#ebebeb"></path><path d="M351.41,233.81c3.6,2.15,11.31,12.22,8.78,29.77-1.16,8.06-5.9,15.38-10.41,23.72a6.46,6.46,0,0,1,.84-.56c1.56-.91,3-1,4-.37l1.43.82a2.56,2.56,0,0,1,.87.82,58.43,58.43,0,0,0,10.6-28.65c1.26-18.29-7.18-28-12.7-31.25Z" style="fill:#e0e0e0"></path><path d="M354.81,228.11a19.39,19.39,0,0,0-9.25-2.57l-1.06,6.13s2.73-.45,6.91,2.14Z" style="fill:#ebebeb"></path><polygon points="328.52 304.15 328.52 298.97 313.89 290.52 313.89 295.7 328.52 304.15" style="fill:#e0e0e0"></polygon><polygon points="328.52 304.15 328.52 298.97 313.89 290.52 313.89 295.7 328.52 304.15" style="opacity:0.15"></polygon><polygon points="328.52 304.15 354.14 289.36 354.14 284.18 328.52 298.97 328.52 304.15" style="fill:#e0e0e0"></polygon><polygon points="328.52 304.15 354.14 289.36 354.14 284.18 328.52 298.97 328.52 304.15" style="opacity:0.15"></polygon><polygon points="313.89 290.52 339.5 275.73 354.14 284.18 328.52 298.97 313.89 290.52" style="fill:#e0e0e0"></polygon><path d="M301.65,301.08v-4.75c0-2.49,1.64-5,4.92-6.87,6.57-3.79,17.22-3.79,23.78,0,3.29,1.9,4.93,4.38,4.92,6.87h0v4.75h0c0,2.52-1.59,5-4.92,7-6.56,3.79-17.21,3.79-23.78,0-3.32-1.92-5-4.44-4.91-7Z" style="fill:#e0e0e0"></path><path d="M301.65,301.08v-4.75c0-2.49,1.64-5,4.92-6.87,6.57-3.79,17.22-3.79,23.78,0,3.29,1.9,4.93,4.38,4.92,6.87h0v4.75h0c0,2.52-1.59,5-4.92,7-6.56,3.79-17.21,3.79-23.78,0-3.32-1.92-5-4.44-4.91-7Z" style="opacity:0.15"></path><path d="M330.35,289.46c-6.56-3.79-17.21-3.79-23.78,0s-6.57,9.94,0,13.73,17.22,3.79,23.78,0S336.92,293.25,330.35,289.46Z" style="fill:#e0e0e0"></path><path d="M305.86,296.07v-3.56c0-1.87,1.22-3.73,3.69-5.15,4.92-2.85,12.9-2.85,17.83,0,2.46,1.42,3.69,3.28,3.69,5.14h0v3.57h0c0,1.89-1.2,3.78-3.69,5.22-4.93,2.84-12.91,2.84-17.83,0-2.5-1.44-3.72-3.33-3.69-5.22Z" style="fill:#f0f0f0"></path><path d="M327.38,287.36c-4.93-2.85-12.91-2.85-17.83,0s-4.93,7.45,0,10.29,12.9,2.85,17.83,0S332.3,290.2,327.38,287.36Z" style="fill:#fafafa"></path><path d="M326.87,287.65c-4.64-2.68-12.17-2.68-16.82,0s-4.64,7,0,9.71,12.18,2.68,16.82,0S331.51,290.33,326.87,287.65Z" style="fill:#e6e6e6"></path><path d="M310.05,290.94c4.65-2.68,12.18-2.68,16.82,0a7.16,7.16,0,0,1,3.14,3.21,7.11,7.11,0,0,1-3.14,3.21c-4.64,2.68-12.17,2.68-16.82,0a7.08,7.08,0,0,1-3.13-3.21A7.13,7.13,0,0,1,310.05,290.94Z" style="fill:#f0f0f0"></path><path d="M320.6,292.92a4.72,4.72,0,0,0-4.27,0,1.3,1.3,0,0,0,0,2.46,4.72,4.72,0,0,0,4.27,0A1.3,1.3,0,0,0,320.6,292.92Z" style="fill:#e0e0e0"></path><ellipse cx="314.53" cy="295.8" rx="0.94" ry="0.54" style="fill:#e0e0e0"></ellipse><path d="M316.39,293.56c0,.33.47.59,1,.59s1-.26,1-.59-.46-.59-1-.59S316.39,293.24,316.39,293.56Z" style="fill:#fff;opacity:0.6000000000000001"></path><path d="M314,295.61c0,.1.15.18.32.18s.32-.08.32-.18-.14-.18-.32-.18S314,295.51,314,295.61Z" style="fill:#fff;opacity:0.6000000000000001"></path><path d="M313,267V253.81l-9.15,0V267h0a2.26,2.26,0,0,0,1.34,1.86,7.13,7.13,0,0,0,6.47,0A2.26,2.26,0,0,0,313,267Z" style="fill:#e0e0e0"></path><path d="M303.84,264.24a2.26,2.26,0,0,0,1.34,1.86,7.13,7.13,0,0,0,6.47,0,2.27,2.27,0,0,0,1.33-1.87V267a2.26,2.26,0,0,1-1.33,1.87,7.13,7.13,0,0,1-6.47,0,2.26,2.26,0,0,1-1.34-1.86h0v-2.74Z" style="fill:#e0e0e0"></path><path d="M303.84,264.24a2.26,2.26,0,0,0,1.34,1.86,7.13,7.13,0,0,0,6.47,0,2.27,2.27,0,0,0,1.33-1.87V267a2.26,2.26,0,0,1-1.33,1.87,7.13,7.13,0,0,1-6.47,0,2.26,2.26,0,0,1-1.34-1.86h0v-2.74Z" style="fill:#fff;opacity:0.6000000000000001"></path><path d="M323.92,267V253.81l9.15,0V267h0a2.25,2.25,0,0,1-1.35,1.86,7.11,7.11,0,0,1-6.46,0A2.25,2.25,0,0,1,323.92,267Z" style="fill:#e0e0e0"></path><path d="M333.07,264.24a2.25,2.25,0,0,1-1.35,1.86,7.11,7.11,0,0,1-6.46,0,2.26,2.26,0,0,1-1.34-1.87V267a2.25,2.25,0,0,0,1.34,1.87,7.11,7.11,0,0,0,6.46,0,2.25,2.25,0,0,0,1.35-1.86h0v-2.74Z" style="fill:#e0e0e0"></path><path d="M333.07,264.24a2.25,2.25,0,0,1-1.35,1.86,7.11,7.11,0,0,1-6.46,0,2.26,2.26,0,0,1-1.34-1.87V267a2.25,2.25,0,0,0,1.34,1.87,7.11,7.11,0,0,0,6.46,0,2.25,2.25,0,0,0,1.35-1.86h0v-2.74Z" style="opacity:0.15"></path><path d="M323,272.75V259.6l-9.15,0v13.15h0a2.26,2.26,0,0,0,1.35,1.86,7.14,7.14,0,0,0,6.46,0A2.28,2.28,0,0,0,323,272.75Z" style="fill:#ebebeb"></path><path d="M313.89,270a2.28,2.28,0,0,0,1.35,1.87,7.17,7.17,0,0,0,6.46,0A2.28,2.28,0,0,0,323,270v2.74a2.28,2.28,0,0,1-1.34,1.87,7.14,7.14,0,0,1-6.46,0,2.26,2.26,0,0,1-1.35-1.86h0V270Z" style="fill:#e0e0e0"></path><path d="M302.91,242.36c0-1.85,1-3.7,3-5.25a19.44,19.44,0,0,0,3.23-3.18l4.37-5.32a20.73,20.73,0,0,1,21.89-6.86,17.22,17.22,0,0,1,3.64,1.53c3.23,1.85,4.68,4.35,4.36,6.78l0,15.27c.18,2.34-1.27,4.71-4.36,6.51L328.52,258c-5.84,3.4-15.33,3.43-21.2.07-2.92-1.68-4.39-3.88-4.41-6.09S302.93,244.57,302.91,242.36Z" style="fill:#ebebeb"></path><polygon points="339.5 247.39 335.84 249.5 335.84 247.39 339.5 245.28 339.5 247.39" style="fill:#e0e0e0"></polygon><path d="M332.85,243.12A20.74,20.74,0,0,1,311,250a17.22,17.22,0,0,1-3.64-1.53c-5.37-3.09-5.84-8-1.37-11.35a20.05,20.05,0,0,0,3.21-3.17l4.38-5.33a20.73,20.73,0,0,1,21.89-6.86,17.22,17.22,0,0,1,3.64,1.53c5.37,3.08,5.84,7.95,1.37,11.35a20.05,20.05,0,0,0-3.21,3.17Z" style="fill:#fafafa"></path><path d="M307.32,256.19c5.87,3.36,15.36,3.33,21.2-.07L339.1,250c2.93-1.7,4.38-3.92,4.38-6.14v1.83c0,2.22-1.45,4.44-4.38,6.14L328.52,258c-5.84,3.4-15.33,3.43-21.2.07-2.92-1.68-4.39-3.88-4.41-6.09V250.1C302.93,252.31,304.4,254.51,307.32,256.19Z" style="fill:#e0e0e0"></path><path d="M343.48,229.39V219l-30,.09v10.4h0c0,2.22,1.48,4.43,4.41,6.11,5.87,3.36,15.36,3.33,21.2-.07C342,233.82,343.49,231.6,343.48,229.39Z" style="fill:#ebebeb"></path><path d="M313.49,219.08l30-.09s0,.1,0,2.31-1.45,4.43-4.38,6.13c-5.84,3.4-15.33,3.43-21.2.07-2.93-1.68-4.4-3.89-4.41-6.11S313.49,219.08,313.49,219.08Z" style="fill:#e0e0e0"></path><path d="M317.87,213c5.84-3.4,15.33-3.43,21.2-.07s5.88,8.84,0,12.24-15.33,3.43-21.2.07S312,216.34,317.87,213Z" style="fill:#e0e0e0"></path><path d="M317.87,213c5.84-3.4,15.33-3.43,21.2-.07s5.88,8.84,0,12.24-15.33,3.43-21.2.07S312,216.34,317.87,213Z" style="fill:#fff;opacity:0.5"></path><path d="M335,218.16V199.54l-13,0V218.2h0a3.25,3.25,0,0,0,1.91,2.64,10.13,10.13,0,0,0,9.16,0A3.21,3.21,0,0,0,335,218.16Z" style="fill:#ebebeb"></path><path d="M322,199.58l13,0s0,1.77,0,2.72a3.25,3.25,0,0,1-1.89,2.66,10.13,10.13,0,0,1-9.16,0A3.2,3.2,0,0,1,322,202.3C322,201.35,322,199.58,322,199.58Z" style="fill:#e0e0e0"></path><path d="M323.9,196.92a10.13,10.13,0,0,1,9.16,0c2.54,1.45,2.55,3.82,0,5.29a10.13,10.13,0,0,1-9.16,0C321.38,200.76,321.37,198.39,323.9,196.92Z" style="fill:#f5f5f5"></path><path d="M325.19,197.66a7.32,7.32,0,0,1,6.59,0c1.82,1.05,1.83,2.75,0,3.81a7.32,7.32,0,0,1-6.59,0C323.38,200.42,323.37,198.72,325.19,197.66Z" style="fill:#e0e0e0"></path><path d="M331.78,200.33a3.41,3.41,0,0,1,.74.56,3.6,3.6,0,0,1-.73.56,7.32,7.32,0,0,1-6.59,0,3.41,3.41,0,0,1-.74-.56,3.6,3.6,0,0,1,.73-.56A7.32,7.32,0,0,1,331.78,200.33Z" style="fill:#f5f5f5"></path><path d="M330,200.59c-.06.25.18.52.53.59a.58.58,0,0,0,.73-.31c0-.26-.19-.52-.54-.6S330,200.34,330,200.59Z" style="fill:#fff"></path><path d="M329.13,200.31a.26.26,0,0,0,.2.3.25.25,0,0,0,.3-.19.26.26,0,0,0-.5-.11Z" style="fill:#fff"></path><path d="M347.15,221.66a3.4,3.4,0,0,0-3.54.3,8.53,8.53,0,0,0-2.11,1.77q-.24.27-.45.54l0,0a12.24,12.24,0,0,0-1.85,3.45,8.62,8.62,0,0,0-.48,2.72,3.52,3.52,0,0,0,1.38,3.15l1.64.94A2.41,2.41,0,0,1,341,234a4.14,4.14,0,0,1-.71-2.53,10.86,10.86,0,0,1,4.92-8.51,4.14,4.14,0,0,1,2.56-.65,2.39,2.39,0,0,1,.95.33h0Z" style="fill:#e0e0e0"></path><path d="M347.15,221.66a3.4,3.4,0,0,0-3.54.3,8.53,8.53,0,0,0-2.11,1.77q-.24.27-.45.54l0,0a12.24,12.24,0,0,0-1.85,3.45,8.62,8.62,0,0,0-.48,2.72,3.52,3.52,0,0,0,1.38,3.15l1.64.94A2.41,2.41,0,0,1,341,234a4.14,4.14,0,0,1-.71-2.53,10.86,10.86,0,0,1,4.92-8.51,4.14,4.14,0,0,1,2.56-.65,2.39,2.39,0,0,1,.95.33h0Z" style="fill:#fff;opacity:0.7000000000000001"></path><path d="M348.76,222.59a2.39,2.39,0,0,0-.95-.33,4.14,4.14,0,0,0-2.56.65,10.86,10.86,0,0,0-4.92,8.51A4.14,4.14,0,0,0,341,234a2.41,2.41,0,0,0,.67.61l.08.05a2.6,2.6,0,0,0,1.35.32,4.68,4.68,0,0,0,2.11-.67,10.88,10.88,0,0,0,4.91-8.51A3.46,3.46,0,0,0,348.76,222.59Z" style="fill:#e0e0e0"></path><path d="M345.25,226.3c1.09-.63,2-.12,2,1.14a4.39,4.39,0,0,1-2,3.43c-1.1.63-2,.12-2-1.14A4.35,4.35,0,0,1,345.25,226.3Z" style="opacity:0.25"></path></g></g><g id="freepik--Particles--inject-37"><g id="freepik--particles--inject-37" style="opacity:0.2"><path d="M34.7,89.63a4.06,4.06,0,1,1-4.06-4.07A4.06,4.06,0,0,1,34.7,89.63Z" style="fill:#2F8AE1"></path><path d="M475.06,102A4.07,4.07,0,1,1,471,97.89,4.06,4.06,0,0,1,475.06,102Z" style="fill:#2F8AE1"></path><path d="M141.22,65.06A4.07,4.07,0,1,1,137.15,61,4.07,4.07,0,0,1,141.22,65.06Z" style="fill:#2F8AE1"></path><path d="M286.55,45.64a4.07,4.07,0,1,1-4.06-4.06A4.06,4.06,0,0,1,286.55,45.64Z" style="fill:#2F8AE1"></path><path d="M193.12,176.51a4.06,4.06,0,1,1-4.06-4.06A4.06,4.06,0,0,1,193.12,176.51Z" style="fill:#2F8AE1"></path><circle cx="444.97" cy="32.23" r="1.65" style="fill:#2F8AE1"></circle><circle cx="178.53" cy="46.3" r="1.65" style="fill:#2F8AE1"></circle><circle cx="302.04" cy="97.17" r="1.65" style="fill:#2F8AE1"></circle><circle cx="363.39" cy="198.29" r="1.65" style="fill:#2F8AE1"></circle><circle cx="133.67" cy="215.05" r="2.28" style="fill:#2F8AE1"></circle><circle cx="201.25" cy="217.33" r="1.65" style="fill:#2F8AE1"></circle><circle cx="219.85" cy="114.31" r="1.65" style="fill:#2F8AE1"></circle><path d="M467.69,59.24a2.41,2.41,0,1,1-2.41-2.41A2.41,2.41,0,0,1,467.69,59.24Z" style="fill:#2F8AE1"></path><path d="M53.36,41.61A2.41,2.41,0,1,1,51,39.2,2.41,2.41,0,0,1,53.36,41.61Z" style="fill:#2F8AE1"></path><path d="M142,108.08a2.41,2.41,0,1,1-2.41-2.41A2.41,2.41,0,0,1,142,108.08Z" style="fill:#2F8AE1"></path><path d="M398.77,42.65a2.41,2.41,0,1,1-2.41-2.41A2.41,2.41,0,0,1,398.77,42.65Z" style="fill:#2F8AE1"></path><path d="M313.23,175a2.41,2.41,0,1,1-2.41-2.41A2.4,2.4,0,0,1,313.23,175Z" style="fill:#2F8AE1"></path></g></g><g id="freepik--DNA--inject-37"><g id="freepik--dna--inject-37"><path d="M231.57,91.47a4.89,4.89,0,0,1,3.22-3.06,1.58,1.58,0,0,1,1.54.29l33.49,35L265.26,128s-33.18-34.61-33.5-35A1.59,1.59,0,0,1,231.57,91.47Z" style="fill:#455a64"></path><path d="M231.57,353.83a4.89,4.89,0,0,1,3.22-3.06,1.58,1.58,0,0,1,1.54.29l33.49,35-4.56,4.32s-33.18-34.61-33.5-35A1.57,1.57,0,0,1,231.57,353.83Z" style="fill:#455a64"></path><path d="M231.57,222.66a4.89,4.89,0,0,1,3.22-3.06,1.55,1.55,0,0,1,1.54.29c.33.33,33.49,35,33.49,35l-4.56,4.32s-33.18-34.62-33.5-35A1.58,1.58,0,0,1,231.57,222.66Z" style="fill:#455a64"></path><path d="M240.28,369.71c-40.3-40.86-32.6-75.26-19-96.93,4.69-7.49,11.37-15.57,18.46-24.12s14.61-17.64,21.38-27.54c25.12-36.73,15.69-75.71-4.79-98.06l10-9.18a90.39,90.39,0,0,1,22.86,51.25c2.35,22.07-3.49,44.08-16.87,63.65-7.13,10.42-15.1,20-22.14,28.54-6.78,8.2-13.19,15.94-17.4,22.66-15.94,25.48-10.16,52.47,17.2,80.2Z" style="fill:#2F8AE1"></path><g style="opacity:0.2"><path d="M256.42,227.66l11.82,6.82c.8-1.09,1.59-2.2,2.38-3.32l-11.8-6.81Zm9-13.55q-1.95,3.45-4.29,6.9l11.77,6.8q2.29-3.42,4.27-6.92Z" style="fill:#fff"></path><path d="M268.38,235.14l-12.7-7.33.33-.45q1.22-1.63,2.4-3.3l.26-.37L271.34,231l-.31.45c-.79,1.12-1.58,2.23-2.39,3.33Zm-11.23-7.64,11,6.32c.6-.82,1.2-1.66,1.79-2.5L259,225C258.36,225.85,257.76,226.68,257.15,227.5Zm15.93,1-12.65-7.3.31-.44c1.53-2.25,3-4.56,4.27-6.87l.25-.44,12.61,7.28-.24.43c-1.29,2.28-2.73,4.62-4.29,7Zm-11.21-7.63,10.9,6.3c1.35-2,2.6-4.07,3.74-6.07l-10.88-6.28C264.47,216.82,263.21,218.85,261.87,220.84Z" style="fill:#fff"></path></g><g style="opacity:0.2"><path d="M228.49,262.51l11.87,6.86c.82-1.06,1.68-2.14,2.55-3.22L231,259.28C230.15,260.37,229.31,261.45,228.49,262.51Zm10.33-12.79c-1.78,2.15-3.53,4.27-5.23,6.36L245.5,263c1.52-1.86,3.08-3.74,4.66-5.65l.58-.71Z" style="fill:#fff"></path><path d="M240.48,270l-12.73-7.36.34-.45c.83-1.07,1.67-2.15,2.54-3.24l.26-.34L243.67,266l-.37.45-2.55,3.21Zm-11.25-7.65,11,6.35c.63-.81,1.27-1.61,1.92-2.43l-11-6.36C230.49,260.75,229.86,261.56,229.23,262.37Zm16.39,1.23-12.79-7.38.37-.46c1.7-2.09,3.45-4.21,5.23-6.36l.27-.33,12.81,7.39-1,1.17-4.65,5.64Zm-11.27-7.66,11,6.37q2.15-2.62,4.38-5.32l.21-.25-11-6.38C237.38,252.24,235.84,254.1,234.35,255.94Z" style="fill:#fff"></path></g><path d="M266.64,211.87c12.72-22.77,20.26-48.91,17.57-68.19a88.92,88.92,0,0,0-17.91-29.8l-10,9.18C275.06,143.54,284.52,178,266.64,211.87Z" style="opacity:0.15"></path><path d="M250,360.18c-25.74-26.09-32.37-51.52-19.79-75.66l0,0c-10.55,18.28-15.85,36.15-12.24,54.85,4.73,9.62,11.93,19.77,22.39,30.36Z" style="opacity:0.15"></path><path d="M244.49,136.25l-17.24,10.56,3.26,5.36,16.92-10.34h0a4.74,4.74,0,0,0,0-.84,5.22,5.22,0,0,0-.48-1.9A6,6,0,0,0,244.49,136.25Zm19.19-10.65a1.57,1.57,0,0,0-1.55-.13c-.19.11-8,4.9-16.36,10a4.75,4.75,0,0,1,1.6,1.19,5.21,5.21,0,0,1,1.28,2.15,8.38,8.38,0,0,1,.45,2l16.29-10a1.57,1.57,0,0,0,.61-1.45A4.92,4.92,0,0,0,263.68,125.6Z" style="fill:#37474f"></path><path d="M247.87,152.44l-24.52,7.26,1.86,6,24.49-7.24a6.36,6.36,0,0,0,.11-1.07,7.39,7.39,0,0,0-.36-2.45A7.73,7.73,0,0,0,247.87,152.44Zm27.37-7.16a1.56,1.56,0,0,0-1.47-.5c-.22.06-11.91,3.51-24.32,7.19a10.37,10.37,0,0,1,1,1.33,7.55,7.55,0,0,1,.85,2.07,6.46,6.46,0,0,1,.12,2.58l24.25-7.17a1.55,1.55,0,0,0,.94-1.26A4.89,4.89,0,0,0,275.24,145.28Z" style="fill:#455a64"></path><path d="M250,171.92l-28.26,1.48.35,6.26,28.46-1.46a8.36,8.36,0,0,0,.17-1.72,17.4,17.4,0,0,0-.4-3.22C250.26,172.81,250.14,172.37,250,171.92Zm29.8,1.61c-.14-1.57-.9-3-2.2-3h-.06l-25.69,1.36a18.63,18.63,0,0,1,.65,5.11,8.77,8.77,0,0,1-.08,1.15l26-1.35a.34.34,0,0,1,.17-.06C279.48,176.6,280,175.13,279.83,173.53Z" style="fill:#37474f"></path><path d="M250,97.81l-9.66,9.53c-24.9-25.24-31.49-48-29.67-66.85L224,48.23C224.66,64.36,233.32,81,250,97.81Z" style="fill:#2F8AE1"></path><path d="M250,97.81l-9.66,9.53c-24.9-25.24-31.49-48-29.67-66.85L224,48.23C224.66,64.36,233.32,81,250,97.81Z" style="opacity:0.15"></path><path d="M281.42,81.37a104.36,104.36,0,0,1-9.13,16.23c-7.13,10.41-15.1,20-22.13,28.54-6.79,8.2-13.2,15.94-17.41,22.66C216.81,174.28,222.6,201.26,250,229l-9.66,9.53c-40.31-40.86-32.6-75.26-19-96.93,4.68-7.49,11.37-15.57,18.46-24.13s14.61-17.63,21.37-27.53a90.85,90.85,0,0,0,8.53-15.4Z" style="fill:#2F8AE1"></path><g style="opacity:0.2"><path d="M228.49,131.34l11.87,6.85c.82-1.06,1.68-2.13,2.55-3.22L231,128.11C230.15,129.19,229.31,130.27,228.49,131.34Zm10.33-12.8c-1.78,2.15-3.53,4.27-5.23,6.36l11.91,6.88c1.52-1.85,3.08-3.73,4.66-5.64l.58-.72Z" style="fill:#fff"></path><path d="M240.48,138.84l-12.73-7.35.34-.46c.83-1.07,1.67-2.15,2.54-3.24l.26-.33,12.78,7.37-.37.46q-1.31,1.62-2.55,3.21Zm-11.25-7.65,11,6.35,1.92-2.43-11-6.36C230.49,129.57,229.86,130.38,229.23,131.19Zm16.39,1.23L232.83,125l.37-.45c1.7-2.09,3.45-4.22,5.23-6.37l.27-.32,12.81,7.39-1,1.16q-2.37,2.87-4.65,5.65Zm-11.27-7.66,11,6.37c1.43-1.74,2.89-3.52,4.38-5.31l.21-.26-11-6.38C237.38,121.07,235.84,122.93,234.35,124.76Z" style="fill:#fff"></path></g><path d="M250,229c-25.74-26.1-32.37-51.53-19.79-75.67l0,0c-10.55,18.28-15.85,36.15-12.24,54.86,4.73,9.61,11.93,19.77,22.39,30.36Z" style="opacity:0.15"></path><path d="M272.28,360c-7.11,10.42-15.1,20-22.13,28.54-6.78,8.19-13.2,15.93-17.41,22.66q-11.24,18-8.08,36.83l-12.43,7.18c-5.11-20.73.91-38.26,9-51.22,4.69-7.48,11.38-15.55,18.45-24.11s14.61-17.65,21.39-27.55c25.12-36.72,15.69-75.7-4.79-98.05l10-9.18a90.34,90.34,0,0,1,22.87,51.26C291.5,318.39,285.67,340.4,272.28,360Z" style="fill:#2F8AE1"></path><g style="opacity:0.2"><path d="M256.42,358.83l11.82,6.83c.8-1.1,1.59-2.2,2.38-3.32l-11.8-6.81Q257.62,357.2,256.42,358.83Zm9-13.55q-1.95,3.47-4.29,6.9l11.77,6.8c1.53-2.28,2.95-4.58,4.27-6.92Z" style="fill:#fff"></path><path d="M268.38,366.31,255.68,359l.33-.45c.81-1.09,1.61-2.18,2.4-3.29l.26-.38,12.67,7.32-.31.45c-.79,1.12-1.58,2.22-2.39,3.32Zm-11.23-7.63,11,6.32c.6-.83,1.2-1.66,1.79-2.5L259,356.19Zm15.93,1-12.65-7.3.31-.45c1.53-2.25,3-4.56,4.27-6.86l.25-.44,12.61,7.28-.24.43c-1.29,2.28-2.73,4.62-4.29,6.95ZM261.87,352l10.9,6.29c1.35-2,2.6-4.07,3.74-6.06L265.63,346C264.47,348,263.21,350,261.87,352Z" style="fill:#fff"></path></g><g style="opacity:0.2"><path d="M228.49,393.71l11.87,6.85c.82-1.06,1.68-2.13,2.55-3.22L231,390.47C230.15,391.56,229.31,392.64,228.49,393.71Zm10.33-12.8c-1.78,2.15-3.53,4.27-5.23,6.36l11.91,6.88,4.66-5.65.58-.71Z" style="fill:#fff"></path><path d="M240.48,401.21l-12.73-7.36.34-.45c.83-1.07,1.67-2.15,2.54-3.24l.26-.33,12.78,7.37-.37.45c-.87,1.09-1.72,2.16-2.55,3.22Zm-11.25-7.65,11,6.35,1.92-2.43-11-6.36C230.49,391.94,229.86,392.75,229.23,393.56Zm16.39,1.23-12.79-7.38.37-.45c1.7-2.09,3.45-4.22,5.23-6.37l.27-.33,12.81,7.4-1,1.16-4.65,5.64Zm-11.27-7.66,11,6.37c1.43-1.74,2.89-3.52,4.38-5.31l.21-.26-11-6.38C237.38,383.44,235.84,385.3,234.35,387.13Z" style="fill:#fff"></path></g><path d="M266.64,343.06c12.72-22.77,20.26-48.91,17.57-68.19a88.82,88.82,0,0,0-17.91-29.8l-10,9.18C275.06,274.73,284.52,309.18,266.64,343.06Z" style="opacity:0.15"></path><path d="M286.26,412.44l-12.12,7a76.47,76.47,0,0,0-17.84-34l10-9.17A89.43,89.43,0,0,1,286.26,412.44Z" style="fill:#2F8AE1"></path><g style="opacity:0.15"><path d="M286.26,412.44l-12.12,7a76.47,76.47,0,0,0-17.84-34l10-9.17A89.43,89.43,0,0,1,286.26,412.44Z"></path></g><path d="M263.69,388a1.61,1.61,0,0,0-1.55-.14l-16.36,10a4.82,4.82,0,0,1,1.6,1.19,5.38,5.38,0,0,1,1.28,2.15,8.92,8.92,0,0,1,.43,2l16.31-10a1.56,1.56,0,0,0,.59-1.46A4.87,4.87,0,0,0,263.69,388ZM247,401.46a6,6,0,0,0-2.51-2.84c-1.7,1-3.38,2.08-5,3.07-2.57,3.34-4.88,6.51-6.74,9.49-.65,1-1.26,2.09-1.84,3.13l16.53-10.11a4.3,4.3,0,0,0,0-.62v-.21A5.06,5.06,0,0,0,247,401.46Z" style="fill:#37474f"></path><path d="M247.87,414.82l-20.06,5.93a49,49,0,0,0-2.37,7.25l24.26-7.17a6.25,6.25,0,0,0,.11-1.06,7.49,7.49,0,0,0-.36-2.46A7.69,7.69,0,0,0,247.87,414.82Zm27.37-7.17a1.58,1.58,0,0,0-1.47-.5c-.22.06-11.91,3.51-24.32,7.19a10.47,10.47,0,0,1,1,1.34,7.5,7.5,0,0,1,.85,2.06,6.46,6.46,0,0,1,.12,2.58l24.25-7.17a1.55,1.55,0,0,0,.94-1.25A4.9,4.9,0,0,0,275.24,407.65Z" style="fill:#455a64"></path><path d="M263.69,256.77a1.63,1.63,0,0,0-1.55-.13l-16.36,10a4.82,4.82,0,0,1,1.6,1.19,5.38,5.38,0,0,1,1.28,2.15,8.92,8.92,0,0,1,.43,2l16.31-10a1.56,1.56,0,0,0,.59-1.46A4.9,4.9,0,0,0,263.69,256.77ZM247,270.26a6,6,0,0,0-2.51-2.84c-1.7,1-3.38,2.08-5,3.07-2.57,3.34-4.88,6.51-6.74,9.49-.65,1-1.26,2.09-1.84,3.13L247.43,273a4.3,4.3,0,0,0,0-.62v-.21A5.06,5.06,0,0,0,247,270.26Z" style="fill:#37474f"></path><path d="M247.87,283.62l-20.06,5.93a48.67,48.67,0,0,0-2.37,7.25l24.26-7.17a6.25,6.25,0,0,0,.11-1.06,7.49,7.49,0,0,0-.36-2.46A7.69,7.69,0,0,0,247.87,283.62Zm27.37-7.17a1.58,1.58,0,0,0-1.47-.5c-.22.06-11.91,3.51-24.32,7.19a10.47,10.47,0,0,1,1,1.34,7.5,7.5,0,0,1,.85,2.06,6.46,6.46,0,0,1,.12,2.58L275.62,282a1.55,1.55,0,0,0,.94-1.25A4.9,4.9,0,0,0,275.24,276.45Z" style="fill:#455a64"></path><path d="M279.83,304.7c-.14-1.57-.9-3-2.2-3h-.07L251.87,303a18,18,0,0,1,.65,5.12,7.28,7.28,0,0,1-.08,1.14c12.26-.63,23.59-1.21,26-1.35a.3.3,0,0,1,.16-.05C279.48,307.77,280,306.3,279.83,304.7Zm-29.49-.27c-.08-.45-.19-.9-.31-1.33-10.62.56-21.28,1.1-25.88,1.33a47.53,47.53,0,0,0-.14,6.31l26.57-1.37a7.72,7.72,0,0,0,.17-1.72A17.41,17.41,0,0,0,250.34,304.43Z" style="fill:#37474f"></path><path d="M222.45,187a1.59,1.59,0,0,0-1.44.61,4.85,4.85,0,0,0-1,4.33,1.56,1.56,0,0,0,1,1.18L246.49,199a4.67,4.67,0,0,1-.45-1,4.76,4.76,0,0,1,0-2.22,4.85,4.85,0,0,1,1-2.16,3.92,3.92,0,0,1,.83-.73Zm27,6.28-.41.43a5,5,0,0,0-.57.64,4.71,4.71,0,0,0-.75,1.68,4.28,4.28,0,0,0,0,1.85,2.6,2.6,0,0,0,.29.76,3.13,3.13,0,0,0,.59.9l21.5,5c.83-2,1.55-4,2.19-5.94Z" style="fill:#263238"></path><path d="M245.89,211.46a4.33,4.33,0,0,0-2.48,2.38,4.19,4.19,0,0,0,0,3.17,2.32,2.32,0,0,0,.14.23l14.33,8.43,3.54-5.06ZM224.7,199a1.52,1.52,0,0,0-1.52.19A4.8,4.8,0,0,0,221.1,203a1.54,1.54,0,0,0,.65,1.38L241.51,216a5.31,5.31,0,0,1,.6-3.48,3.9,3.9,0,0,1,2.56-1.81C235,205,224.92,199.12,224.7,199Z" style="fill:#37474f"></path><path d="M231.57,222.66a4.89,4.89,0,0,1,3.22-3.06,1.55,1.55,0,0,1,1.54.29c.33.33,14.48,15.12,14.48,15.12l-4,5s-14.77-15.41-15.09-15.76A1.58,1.58,0,0,1,231.57,222.66Z" style="fill:#455a64"></path><path d="M245.89,80.28a4.33,4.33,0,0,0-2.48,2.38,4.17,4.17,0,0,0,0,3.16,1.16,1.16,0,0,0,.14.23l14.33,8.43c1.21-1.7,2.39-3.39,3.54-5ZM224.7,67.82a1.53,1.53,0,0,0-1.52.2,4.8,4.8,0,0,0-2.08,3.83,1.55,1.55,0,0,0,.65,1.38l19.76,11.62a5.33,5.33,0,0,1,.6-3.48,4,4,0,0,1,2.56-1.81Z" style="fill:#37474f"></path><path d="M231.57,91.47a4.89,4.89,0,0,1,3.22-3.06,1.58,1.58,0,0,1,1.54.29l14.48,15.12-4,5S232.08,93.37,231.76,93A1.59,1.59,0,0,1,231.57,91.47Z" style="fill:#455a64"></path><path d="M222.45,318.12a1.61,1.61,0,0,0-1.44.61,4.87,4.87,0,0,0-1,4.33,1.56,1.56,0,0,0,1,1.18c.23.07,12.73,3,25.46,5.92a4.4,4.4,0,0,1-.45-1,5,5,0,0,1,1-4.38,4,4,0,0,1,.83-.74Zm27,6.29-.41.42a5.79,5.79,0,0,0-.57.64,4.71,4.71,0,0,0-.75,1.68,4.28,4.28,0,0,0,0,1.85,2.6,2.6,0,0,0,.29.76,3,3,0,0,0,.59.9l21.5,5c.83-2,1.55-4,2.19-5.93Z" style="fill:#263238"></path><path d="M245.89,342.64a4.32,4.32,0,0,0-2.48,2.37,4.19,4.19,0,0,0,0,3.17,1.16,1.16,0,0,0,.14.23l14.33,8.43,3.54-5ZM224.7,330.18a1.53,1.53,0,0,0-1.52.2,4.78,4.78,0,0,0-2.08,3.83,1.52,1.52,0,0,0,.65,1.37l19.76,11.63a5.32,5.32,0,0,1,.6-3.48,4,4,0,0,1,2.56-1.81Z" style="fill:#37474f"></path><path d="M231.57,353.83a4.89,4.89,0,0,1,3.22-3.06,1.58,1.58,0,0,1,1.54.29l14.48,15.12-4,4.95s-14.77-15.4-15.09-15.76A1.57,1.57,0,0,1,231.57,353.83Z" style="fill:#455a64"></path></g></g><g id="freepik--character-2--inject-37"><g id="freepik--Chartacter--inject-37"><g id="freepik--Bottom--inject-37"><path d="M384.86,201.83l0-.22a95,95,0,0,0,1-9.93c4.78,4.8,19.6,7.35,31.18,6.64,9.21-.58,19.13-2.88,29.63-6.65,3.83,9.94,5.74,12.86,6.21,27.1,1.16,35.22.26,71.72.26,71.72.25,3.1,3,8.61,4.24,24.71,1.1,14.08.71,33.38.71,33.38s-10.66,4.8-19.82,1.42c-3.65-11.45-11.24-41.16-15.22-56.49-3.61-13.92-6-34.4-6-34.4l-6.35,28.38a78.37,78.37,0,0,1-.24,18.35c-1.17,9.42-5.68,36.44-5.68,36.44s-11.72,3.31-19.6-2c0,0-2-47.07-2.05-58.47C383.05,263,380.62,228.32,384.86,201.83Z" style="fill:#37474f"></path><path d="M402.58,376.55c.78,1,.3,2.15-.75,3.26s-5.8,2.4-8.86,3.45a26.54,26.54,0,0,0-9.35,4.67,25.41,25.41,0,0,1-14,5.19c-7.58.61-11.86-1.05-13.55-2.84s-1.54-4.82,0-5.92,12.5-6.18,22.85-8.35S402.58,376.55,402.58,376.55Z" style="fill:#263238"></path><path d="M407.18,328.08l-.49,3s-4.26,2.28-12.31,1.65-9.63-4.65-9.63-4.65l-.1-2.64s-2.36.18-1.73,4.79,1.16,26.65.8,29.13-4.08,7.52-11.54,12.63-17.55,8.21-17.52,12.37,5.76,7.18,14.21,6.63c10.75-.7,14.28-5.36,20-8.07s11.22-3.75,12.75-5.38,2.09-1.88,1.7-8.79-.09-9.58,2.24-21.47,2.69-13.29,3.05-16.06S407.18,328.08,407.18,328.08Z" style="fill:#2F8AE1"></path><path d="M407.18,328.08l-.49,3s-4.26,2.28-12.31,1.65-9.63-4.65-9.63-4.65l-.1-2.64s-2.36.18-1.73,4.79,1.16,26.65.8,29.13-4.08,7.52-11.54,12.63-17.55,8.21-17.52,12.37,5.76,7.18,14.21,6.63c10.75-.7,14.28-5.36,20-8.07s11.22-3.75,12.75-5.38,2.09-1.88,1.7-8.79-.09-9.58,2.24-21.47,2.69-13.29,3.05-16.06S407.18,328.08,407.18,328.08Z" style="opacity:0.2"></path><path d="M417.12,259.11l-4.56-34.79a23.38,23.38,0,0,1-18.3-8.46s-.3,8.69,14.59,12.69l5.46,32.06-3.54,26.88Z" style="fill:#263238"></path><path d="M464.2,394.34c1.34,6.13,2.35,16.52-4.72,21.24s-12.55,2.15-14.11,0-2.76-4.17-2.92-11.85Z" style="fill:#263238"></path><path d="M435.07,338.77l.54,2s4.12,1.72,11.53.85,11.1-4.18,11.1-4.18v-3s2.15.25,2,3.72-1.08,25-.74,29.43.74,11.51,2.93,19a48.83,48.83,0,0,1,2.3,14.88c-.14,4-1.4,12.59-11.26,14.16-11.15,1.76-11-8.41-11.15-16.85-.11-6.29.27-16.64-.58-24s-5.86-23.31-6.73-28.21C434.09,341.45,433.35,339.41,435.07,338.77Z" style="fill:#2F8AE1"></path><path d="M435.07,338.77l.54,2s4.12,1.72,11.53.85,11.1-4.18,11.1-4.18v-3s2.15.25,2,3.72-1.08,25-.74,29.43.74,11.51,2.93,19a48.83,48.83,0,0,1,2.3,14.88c-.14,4-1.4,12.59-11.26,14.16-11.15,1.76-11-8.41-11.15-16.85-.11-6.29.27-16.64-.58-24s-5.86-23.31-6.73-28.21C434.09,341.45,433.35,339.41,435.07,338.77Z" style="opacity:0.2"></path></g><g id="freepik--Top--inject-37"><g id="freepik--Arm--inject-37"><path d="M364.34,153.64s-12.75-7.94-17.76-11.39-5.25-5.5-7.35-9l-9.29-1.62c.24.7-.13,1.14-2.38.62-4.49-1-12.18-7.9-14.11-9.25s-2.46,1.24-1.81,3.14-.54,6.55.58,9.68c1.19,3.32,1.92,4.81,5.69,7.67,3.51,2.66,8.37,4.77,14.36,9.65s9.43,9.75,18.59,16.76c8.69,6.65,11.47,9.63,18.22,4.65Z" style="fill:#ffbda7"></path><path d="M317.91,143.47c-3.77-2.86-4.5-4.35-5.69-7.67-1.12-3.13.08-7.79-.58-9.69s-.11-4.48,1.81-3.13,9.62,8.21,14.11,9.25c2.25.52,2.62.08,2.38-.62l9.29,1.62c2,3.44,2.42,5.53,7,8.78-.65,6.94-2.69,13.34-8,16.63-1.93-1.91-3.8-3.71-6-5.52C326.28,148.24,321.42,146.13,317.91,143.47Z" style="fill:#455a64"></path><g id="freepik--test-tube--inject-37"><path d="M330.47,119.8a2.83,2.83,0,0,0-1.49-2.44,8.88,8.88,0,0,0-8-.59,2.82,2.82,0,0,0-1.83,2.19l-2.74,37.34h0a5.69,5.69,0,0,0,11.34.83h0Z" style="fill:#2F8AE1"></path><path d="M330.47,119.8a2.83,2.83,0,0,0-1.49-2.44,8.88,8.88,0,0,0-8-.59,2.82,2.82,0,0,0-1.83,2.19l-2.74,37.34h0a5.69,5.69,0,0,0,11.34.83h0Z" style="fill:#fff;opacity:0.7000000000000001"></path><path d="M328.07,129.2a2,2,0,0,0-1-1.71,6.23,6.23,0,0,0-5.62-.41,2,2,0,0,0-1.28,1.54l-2,27.61h0a4,4,0,0,0,7.94.58h0Z" style="fill:#2F8AE1"></path><g style="opacity:0.1"><path d="M321.79,160.49A4,4,0,0,0,326,157a2.75,2.75,0,0,1-2.8,1.81,2.78,2.78,0,0,1-2.57-3h0l2.14-29.18a4.93,4.93,0,0,0-1.38.41,2,2,0,0,0-1.28,1.54l-2,27.61h0A4,4,0,0,0,321.79,160.49Z"></path></g><path d="M328.07,129.2c-.09,1.26-1.94,2.16-4.14,2s-3.89-1.32-3.8-2.58,1.94-2.17,4.14-2S328.16,127.93,328.07,129.2Z" style="fill:#2F8AE1"></path><g style="opacity:0.30000000000000004"><path d="M328.07,129.2c-.09,1.26-1.94,2.16-4.14,2s-3.89-1.32-3.8-2.58,1.94-2.17,4.14-2S328.16,127.93,328.07,129.2Z" style="fill:#fff"></path></g><g style="opacity:0.5"><path d="M328.07,129.2a2,2,0,0,0-1-1.7c.1.1,1.57,2.07-1,2.93a5.54,5.54,0,0,1-5.77-1.2c.39,1,1.87,1.83,3.7,2C326.13,131.36,328,130.46,328.07,129.2Z" style="fill:#fff"></path></g><path d="M325.44,158.54c0,.56.27.86.69.63a2,2,0,0,0,.8-1.47l2.9-39.59a4.51,4.51,0,0,0-.85-.75,5.09,5.09,0,0,0-.5-.3Z" style="fill:#fff;opacity:0.4"></path><path d="M324.25,159.86h0a.6.6,0,0,0,.43-.5l3.12-42.61a7.58,7.58,0,0,0-.8-.28l-3.16,43.05A.31.31,0,0,0,324.25,159.86Z" style="fill:#fff;opacity:0.4"></path><path d="M328.82,122.85a3.86,3.86,0,0,0,1.51-1.2l.14-1.85a2.6,2.6,0,0,0-.05-.62,4.29,4.29,0,0,0-1.24-1.24,9.56,9.56,0,0,0-8-.85l0-.44-.06,0-.21.09a4.3,4.3,0,0,0-1.21.85,2.45,2.45,0,0,0-.47.73,1.66,1.66,0,0,0-.15.61l-.14,1.86,0,.36h0l-.48,6.57h0l-2.09,28.56h0a5.68,5.68,0,0,0,10.69,3.07c-1.13,1.87-3.87,2.51-6.14,1.7h0a3.23,3.23,0,0,1-2.07-3.27l2.56-35A9.6,9.6,0,0,0,328.82,122.85Z" style="fill:#2F8AE1;opacity:0.2"></path><path d="M321.07,162.32h0a4.91,4.91,0,0,1-3.75-5.54c0-.52,2.66-36.36,2.9-39.56l-.08.06a3,3,0,0,0-.69.74l0,0-.09.16,0,.06a2.21,2.21,0,0,0-.14.41v0a1.49,1.49,0,0,0,0,.21l-.14,1.86,0,.36h0l-.48,6.57h0l-2.09,28.56h0A5.68,5.68,0,0,0,321.07,162.32Z" style="fill:#2F8AE1;opacity:0.30000000000000004"></path><path d="M331.54,116.41a3.24,3.24,0,0,0-1.7-2.79,10.18,10.18,0,0,0-9.19-.67,3.23,3.23,0,0,0-2.09,2.51h0l-.21,2.81h0a3.23,3.23,0,0,0,1.71,2.79,10.16,10.16,0,0,0,9.18.67,3.24,3.24,0,0,0,2.1-2.51h0l.2-2.81Z" style="fill:#2F8AE1"></path><path d="M331.54,116.41a3.24,3.24,0,0,0-1.7-2.79,10.18,10.18,0,0,0-9.19-.67,3.23,3.23,0,0,0-2.09,2.51h0l-.21,2.81h0a3.23,3.23,0,0,0,1.71,2.79,10.16,10.16,0,0,0,9.18.67,3.24,3.24,0,0,0,2.1-2.51h0l.2-2.81Z" style="fill:#fff;opacity:0.5"></path><path d="M329.68,121.49c-2,.73-5.55.92-7.38,0s-2.88-1.92-2.73-3.85l.3-4.21a2.85,2.85,0,0,0-1.31,2h0l-.21,2.81h0a3.23,3.23,0,0,0,1.71,2.79,10.16,10.16,0,0,0,9.18.67Z" style="fill:#2F8AE1;opacity:0.30000000000000004"></path><path d="M320.26,118.25a10.22,10.22,0,0,0,9.19.68c2.64-1.28,2.81-3.66.39-5.31a10.18,10.18,0,0,0-9.19-.67C318,114.23,317.83,116.6,320.26,118.25Z" style="fill:#2F8AE1"></path><path d="M320.26,118.25a10.22,10.22,0,0,0,9.19.68c2.64-1.28,2.81-3.66.39-5.31a10.18,10.18,0,0,0-9.19-.67C318,114.23,317.83,116.6,320.26,118.25Z" style="fill:#fff;opacity:0.7000000000000001"></path><path d="M322.37,113.55c-2.09.39-2.87,1.89-2.06,3.16s2.43,2.37,5.51,2.2,3.83-1.77,3.86-2.16Z" style="fill:#fff;opacity:0.7000000000000001"></path><path d="M321.56,117.63a7.42,7.42,0,0,0,6.69.49c1.93-.94,2.06-2.67.29-3.87a7.42,7.42,0,0,0-6.69-.49C319.92,114.69,319.79,116.42,321.56,117.63Z" style="fill:#2F8AE1"></path><path d="M321.56,117.63a7.42,7.42,0,0,0,6.69.49c1.93-.94,2.06-2.67.29-3.87a7.42,7.42,0,0,0-6.69-.49C319.92,114.69,319.79,116.42,321.56,117.63Z" style="fill:#fff;opacity:0.4"></path><path d="M321.6,117.11a4,4,0,0,0-.41.23c.11.1.24.19.37.29a7.42,7.42,0,0,0,6.69.49,3.16,3.16,0,0,0,.41-.24,4,4,0,0,0-.37-.28A7.36,7.36,0,0,0,321.6,117.11Z" style="fill:#fff;opacity:0.4"></path></g><path d="M327.09,122.05c1.42-2,2.22.18,4.74,3.27s5.29,4.39,7.4,7.91l-9.29-1.62c-.24-.7-1.09-1.66-1.29-2.17C328.25,128.41,325.66,124,327.09,122.05Z" style="fill:#455a64"></path><path d="M362.56,151.64s15.57-14.2,21.48-19.38c5.42-4.76,8.12-6.94,11.27-8.57,4.07-2.1,7.93-2.34,12.08-3l.56,24.73s-21,16.48-30.44,23.84c-5,3.92-9.41,8.11-14.58,8.57-3-.22-5.41-2.19-10.42-5.93-1.61-1.2-12.13-10.87-12.13-10.87,6-3.3,8.88-8.82,9.06-17.14Z" style="fill:#ebebeb"></path></g><g id="freepik--top--inject-37"><path d="M431.53,72.65c8.33-1.57,17.28,7.56,16.73,20.67s.05,24.62-.34,29.43-11.29,4.47-19.21,1.13c-3.17-1.34-6-7.86-4.43-15.71S433.63,82.35,431.53,72.65Z" style="fill:#263238"></path><path d="M428.6,115.59c-.06-4,3.1-7.14,6.46-11.06,4.82-5.59,9.25-15.59,0-22.38.33-9.17-7.38-14.51-18.3-14.94s-19.54,2.92-22.59,12.34S397,93.94,397,93.94Z" style="fill:#37474f"></path><path d="M395.8,86.19a48.25,48.25,0,0,0-1.57,10c-.6,13.29,2.93,17.77,6.3,19.76,2,1.2,3.5,1.66,8.16,1.42l.51,7.76c-1.6,3.15-8.18,8.63-5.05,14.15,8.07-2.52,21.82-9.51,24.56-15.42l-.2-15s3,2.37,6.88-1.38c2.62-2.54,3.36-6.17,2-8.74-1.76-3.29-7.29-3.54-8.58.16-1.37,3.88-3.91,2.66-3.45-3.12.14-1.77,2.65-12.23-4.6-15.73-5.7-2.75-9,1.32-12.53.52-2-.45-1.35-3.19-4.9-3.27C399.38,77.21,397,81.24,395.8,86.19Z" style="fill:#ffbda7"></path><path d="M408.69,117.39c4.34,0,12.87-.67,16.2-5.73a7.78,7.78,0,0,1-3.05,5.06c-4,3-13,3.21-13,3.21Z" style="fill:#f0997a"></path><path d="M412.35,93.43a1.83,1.83,0,0,0,1.62,2,1.75,1.75,0,0,0,2-1.49,1.83,1.83,0,0,0-1.63-2A1.75,1.75,0,0,0,412.35,93.43Z"></path><path d="M398.06,87.53,402,86.47a2,2,0,0,0-3.95,1.06Z"></path><path d="M417.36,89.33l-3.52-2.09a2,2,0,0,1,3.52,2.09Z"></path><path d="M398.18,91.69a1.83,1.83,0,0,0,1.63,2,1.74,1.74,0,0,0,2-1.49,1.83,1.83,0,0,0-1.62-2A1.75,1.75,0,0,0,398.18,91.69Z"></path><path d="M407.13,106.92a1.57,1.57,0,1,0,1.56-1.57A1.56,1.56,0,0,0,407.13,106.92Z" style="fill:#b16668"></path><polygon points="407.77 89.56 407 101.24 400.53 98.78 407.77 89.56" style="fill:#f0997a"></polygon></g><path d="M409,121.81l.22,3.34s-9.35,5.95-5.05,14.15c4.41-1.65,16.46-3.9,24.56-15.42v-3.95s.71.71,4.6,1.93l9.4,2.3s6.88,6,7,14.17-3.51,25.71-3.8,30.21c-.66,10.16,2.15,14.89,5.42,24.58s5.88,43.53,6.5,52.39c0,0-7.73,8.66-27.89,11s-44.88-1.69-50.29-6.69c0,0,2.95-43.32,4-58.83s1.62-23.86,1.62-23.86a22.23,22.23,0,0,1-5.59-14.28c-.07-8.66,5.43-15.23,11.89-21.28s17.34-11.64,17.34-11.64Z" style="fill:#f5f5f5"></path><path d="M445.23,204.5a84.62,84.62,0,0,1-26.51,4.69s1,24.91,2.45,29,27.51-.22,28.12-4.71S445.23,204.5,445.23,204.5Z" style="fill:#ebebeb"></path><path d="M404.15,139.3c2.36-.35,14-3.78,16.17-1.34,1.74,1.93,2.93,3.64,3.51,4.28,0,0,3.06-1.28,6.92-9.32,3.47-7.23,2.56-11.06,2.56-11.06a5.71,5.71,0,0,1-2.84-3.15c-.62-2.11-.77-3.25-1.87-3.12l0,2.33s-.78,5.45-6.18,10.83C418,133.25,410.11,136.3,404.15,139.3Z" style="fill:#e0e0e0"></path><path d="M404.15,139.3c-1.06-1.84-2.95-8.08-4.67-7.12s-3,3.6-3,3.6-.22-4,3.69-8.3c3.08-3.37,8.57-9.27,8.57-9.27l.45,6.94S404.15,133.59,404.15,139.3Z" style="fill:#e0e0e0"></path><path d="M404.15,139.3c-3.13,7.07-3.2,12.79-3.79,23.76s-.71,92.91-.71,92.91l-1.75-.26s.91-82.67,1.31-92.65S400.05,145.44,404.15,139.3Z" style="fill:#e0e0e0"></path><path d="M472.48,215.49l-1,12.16s-12.31,2.33-16.91-1.32l-.4-16Z" style="fill:#ffbda7"></path><path d="M442.71,124.16c6.32,1.46,11.45,2.94,14.24,9.56,2.6,6.15,13.19,32.93,15.75,39.93s2.95,9.74,2.32,19.12c-.78,11.71-2.5,27.41-2.5,27.41s-11.66,2.74-18.38-1.61l-1.38-32.84-14-28.87S432.15,133,442.71,124.16Z" style="fill:#ebebeb"></path><path d="M471.54,227.65a53.27,53.27,0,0,0,.5,8.74,54.57,54.57,0,0,1,.44,14.33c-.49,5.78-2.45,14.06-6,14.75,0,0-1.43,3.3-3.91,3.08-.92,1.91-1.92,2.64-3.52,2.38-.29,1.27-.7,2-1.47,1.82-2.7-.55-2.89-3.23-2.49-7.28.38-3.75,2.06-11,.93-13.25s-1.71,2.85-2.44,5.72-3.81,4.06-5.43,3.36c-.34-.15.25-3.72.43-7.28s0-6.59,2.15-11c2.94-6.1,3.82-8,3.91-12s0-4.69,0-4.69C457.94,228,463.47,228.49,471.54,227.65Z" style="fill:#455a64"></path><g id="freepik--Mask--inject-37"><path d="M404.8,95.2c.93.15,1.95.94,4.31,1.73,3.78,1.27,8.48,2.18,11.3,3.89s5.43,4.42,3.63,8.49-4.5,6.51-7.54,7.59-8,2.11-10.58,1.86-4.68-1.26-7.48-3.93-5.22-8.85-5-13.26-.37-4.39,1.43-4.52a41.39,41.39,0,0,0,7.52-1.54A4.67,4.67,0,0,1,404.8,95.2Z" style="fill:#fafafa"></path><path d="M421.84,111.41c1.83-2.61,1.92-5.1.58-7.33s-7-4.14-9.4-4.84c-3-.9-6.86-2.18-7.87-2.65a3.29,3.29,0,0,0-2.89-.28,30.42,30.42,0,0,1-6.05,1.37c-2.47.22-2.46.47-2.7,1.24h0c0-1.77.08-1.77,1.36-1.87a41.39,41.39,0,0,0,7.52-1.54,4.67,4.67,0,0,1,2.41-.31c.93.15,1.95.94,4.31,1.73,3.78,1.27,8.48,2.18,11.3,3.89s5.43,4.42,3.63,8.49-4.5,6.51-7.54,7.59-8,2.11-10.58,1.86a43.63,43.63,0,0,0,8.64-1.72C419.12,115.65,420,114.08,421.84,111.41Z" style="fill:#e0e0e0"></path><path d="M394.87,97.05a41.39,41.39,0,0,0,7.52-1.54,6,6,0,0,1,1.75-.36l-.46,1c-.53.86-1.5,2.92-2.39,4.62-1,1.28-.85,4.48-1,7.24s-.7,7.92,1.45,9.45a17.93,17.93,0,0,1-3.33-2.59c-2.83-2.7-5.22-8.85-5-13.26S393.07,97.18,394.87,97.05Z" style="opacity:0.1"></path><path d="M402.5,106.71a.2.2,0,0,1,.17-.23l1.05-.18a.21.21,0,0,1,.25.16.21.21,0,0,1-.17.23l-1.05.18h0A.22.22,0,0,1,402.5,106.71Zm2.09-.36a.2.2,0,0,1,.18-.23l1-.18a.21.21,0,0,1,.25.16.2.2,0,0,1-.17.23l-1.05.18h0A.22.22,0,0,1,404.59,106.35Zm2.1-.36a.2.2,0,0,1,.17-.23l1-.17a.2.2,0,1,1,.08.39l-1.05.17h0A.2.2,0,0,1,406.69,106Zm2.09-.35a.2.2,0,0,1,.17-.23l1.05-.18a.21.21,0,0,1,.24.16.2.2,0,0,1-.17.23l-1.05.18h0A.2.2,0,0,1,408.78,105.64Zm2.09-.36a.2.2,0,0,1,.17-.23l1-.18a.21.21,0,0,1,.24.16.19.19,0,0,1-.17.23l-1,.18h-.05A.19.19,0,0,1,410.87,105.28Zm2.09-.35a.2.2,0,0,1,.17-.23l1.05-.18a.21.21,0,0,1,.25.16.21.21,0,0,1-.18.23l-1,.17h0A.21.21,0,0,1,413,104.93Zm2.09-.36a.2.2,0,0,1,.18-.23l.95-.16a.21.21,0,0,1,.25.16.21.21,0,0,1-.17.23l-1,.16h0A.22.22,0,0,1,415.05,104.57Z" style="fill:#e0e0e0"></path><path d="M402.57,115.45a.2.2,0,0,1,.17-.23l1.05-.18a.21.21,0,0,1,.24.16.2.2,0,0,1-.17.23l-1.05.18h0A.2.2,0,0,1,402.57,115.45Zm2.09-.36a.2.2,0,0,1,.17-.23l1.05-.18a.2.2,0,0,1,.24.16.2.2,0,0,1-.17.23l-1,.18h-.05A.2.2,0,0,1,404.66,115.09Zm2.09-.36a.21.21,0,0,1,.17-.23l1.05-.17a.21.21,0,0,1,.25.15.2.2,0,0,1-.18.23l-1,.18H407A.22.22,0,0,1,406.75,114.73Zm2.09-.35a.2.2,0,0,1,.18-.23l1-.18a.21.21,0,0,1,.25.16.2.2,0,0,1-.17.23l-1.05.18h0A.22.22,0,0,1,408.84,114.38Zm2.1-.36a.2.2,0,0,1,.17-.23l1-.18a.21.21,0,0,1,.25.16.2.2,0,0,1-.17.23l-1.05.18h0A.2.2,0,0,1,410.94,114Zm2.09-.36a.2.2,0,0,1,.17-.23l1-.17a.22.22,0,0,1,.25.16.2.2,0,0,1-.17.23l-1,.17h0A.21.21,0,0,1,413,113.66Z" style="fill:#e0e0e0"></path><path d="M394.13,103.15l.84.6a.28.28,0,0,0,.12,0,.23.23,0,0,0,.18-.08.2.2,0,0,0,0-.28l-.84-.6a.22.22,0,0,0-.3,0A.2.2,0,0,0,394.13,103.15Zm3.32,2.13a.18.18,0,0,0,0,.27l.53.38a.19.19,0,0,0,.12,0,.21.21,0,0,0,.18-.07.19.19,0,0,0,0-.28l-.53-.38A.22.22,0,0,0,397.45,105.28Zm-1.68-1.21a.2.2,0,0,0,0,.28l.84.6a.19.19,0,0,0,.12,0,.23.23,0,0,0,.18-.07.19.19,0,0,0,0-.28l-.84-.6A.23.23,0,0,0,395.77,104.07Z" style="fill:#e0e0e0"></path><path d="M397.45,105.28a.18.18,0,0,0,0,.27l.53.38a.19.19,0,0,0,.12,0,.21.21,0,0,0,.18-.07.19.19,0,0,0,0-.28l-.53-.38A.22.22,0,0,0,397.45,105.28Zm-1.68-1.21a.2.2,0,0,0,0,.28l.84.6a.19.19,0,0,0,.12,0,.23.23,0,0,0,.18-.07.19.19,0,0,0,0-.28l-.84-.6A.23.23,0,0,0,395.77,104.07Zm-1.64-.92.84.6a.28.28,0,0,0,.12,0,.23.23,0,0,0,.18-.08.2.2,0,0,0,0-.28l-.84-.6a.22.22,0,0,0-.3,0A.2.2,0,0,0,394.13,103.15Z" style="opacity:0.1"></path><path d="M418.39,113.13a32,32,0,0,0,9.58-3,5.4,5.4,0,0,0,.55-.31v-.94c-1.27,1.13-7.65,3.29-10.21,3.6Z" style="fill:#fafafa"></path><path d="M417.44,113.39l1.43-.24c.24,0,.45-.2.46-.36v-.32c0-.15-.19-.25-.43-.21l-1.43.23c-.24,0-.45.2-.46.36v.33C417,113.33,417.19,113.43,417.44,113.39Z" style="fill:#e0e0e0"></path><path d="M420.1,104.42c2.71-.35,7.37-3,8.42-4.16l.28-1.36c-1.08,1.16-6.24,4.52-8.8,4.85Z" style="fill:#fafafa"></path><path d="M419.37,104.61l1.33-.18c.22,0,.41-.18.42-.33l0-.32c0-.16-.17-.26-.4-.23l-1.32.17c-.23,0-.43.18-.44.34v.32C419,104.54,419.14,104.64,419.37,104.61Z" style="fill:#e0e0e0"></path></g></g></g></g><g id="freepik--character-1--inject-37"><g id="freepik--chartacter--inject-37"><g id="freepik--bottom--inject-37"><path d="M49.61,199.17c-3.28,41.65-5.11,97.88-5.11,97.88-.3,3.17-2.49,6.54-4,22.14-.39,4-1,19.14-1.17,24.21l0,2.53c9,18.05,23.45,2.54,23.45,2.54l.76-2.12c5.92-19.56,8.38-29.07,10.58-38C78.67,290,84,255.21,84,255.21l4.82,34.43a194.88,194.88,0,0,0,.8,20.81c.4,3.72,1.67,12.87,2.86,22.81.06.5.35,2.53.35,2.53l24.29-2.1v-3c.44-17,2-34.9,2.15-40.52.37-16-.42-55.53-1.48-89.3C90.13,215,56.38,207.06,49.61,199.17Z" style="fill:#263238"></path><path d="M84,255.21,88,232.39s11.3-1.64,17.1-6.85c0,0-3.74,6.88-14.4,9.58l-4,20.15,2.1,34.37Z"></path><path d="M92.78,335.79c1.23,14.3,22.52,14.41,24.29-2.1" style="fill:#263238"></path><path d="M141.22,390.88c-.46,2.11-2.07,6.16-10.91,7.34s-18.17-1.78-22.44-6-4.22-7.7-6.44-9.64-5.64-4.56-6.48-5.93-.15-4.75-.15-4.75Z" style="fill:#263238"></path><path d="M117.07,330.73v3s-1.71,3-9.87,4.33a23.51,23.51,0,0,1-14.42-2.23l-.35-2.53s-1.55-.26-1.16,2.89,3.28,22.32,3.53,26.38-1.1,8.38.15,11.28,5.61,4.36,8.21,8.19,4,11.17,16.23,13.86,18.44-.7,21-3.69,1-6.18-3.95-9.69c-5.17-3.68-8.87-6.4-12.49-9.34-4.65-3.77-5.89-6.42-5.89-12.38,0-4.83.49-23.93.67-26.46S118.5,330.73,117.07,330.73Z" style="fill:#2F8AE1"></path><path d="M117.07,330.73v3s-1.71,3-9.87,4.33a23.51,23.51,0,0,1-14.42-2.23l-.35-2.53s-1.55-.26-1.16,2.89,3.28,22.32,3.53,26.38-1.1,8.38.15,11.28,5.61,4.36,8.21,8.19,4,11.17,16.23,13.86,18.44-.7,21-3.69,1-6.18-3.95-9.69c-5.17-3.68-8.87-6.4-12.49-9.34-4.65-3.77-5.89-6.42-5.89-12.38,0-4.83.49-23.93.67-26.46S118.5,330.73,117.07,330.73Z" style="opacity:0.2"></path><path d="M52.68,407.19c-1,5.36-3.15,8.93-7.54,10.59s-10.7-1.55-12.53-4.36S29,407,30.7,398.67Z" style="fill:#263238"></path><path d="M63.57,346.35l-.76,2.12s-4.17,2-11.88,1.07-11.57-3.61-11.57-3.61l0-2.53s-1.47-.31-1.7,2.53c-.35,4.3-.35,23.13-.5,29.27s-3.07,12.55-5,18-3.65,15.81,4,20.88,14.32,1.64,16.49-6.36c2.32-8.54,1.27-21.84,2.85-29.12s7.44-24.65,8.78-27.82S63.57,346.35,63.57,346.35Z" style="fill:#2F8AE1"></path><path d="M63.57,346.35l-.76,2.12s-4.17,2-11.88,1.07-11.57-3.61-11.57-3.61l0-2.53s-1.47-.31-1.7,2.53c-.35,4.3-.35,23.13-.5,29.27s-3.07,12.55-5,18-3.65,15.81,4,20.88,14.32,1.64,16.49-6.36c2.32-8.54,1.27-21.84,2.85-29.12s7.44-24.65,8.78-27.82S63.57,346.35,63.57,346.35Z" style="opacity:0.2"></path></g><g id="freepik--top--inject-37"><path d="M129.2,171.52s11.37-9.27,15.78-13.23,4.4-6,6-9.64l8.79-2.73c-.14.71.27,1.09,2.38.31,4.22-1.56,10.82-9.16,12.51-10.71s2.55.9,2.14,2.81,1.34,6.28.65,9.45c-.74,3.36-1.26,4.9-4.55,8.13-3.07,3-7.52,5.66-12.71,11.13s-7.92,10.61-15.92,18.53c-7.59,7.52-9.91,10.75-17.06,6.77Z" style="fill:#b16668"></path><path d="M172.9,155.91c3.29-3.23,3.81-4.77,4.55-8.13.7-3.17-1-7.54-.65-9.45s-.44-4.35-2.14-2.81-8.29,9.15-12.51,10.71c-2.11.78-2.52.4-2.38-.31L151,148.65c-1.56,3.58-1.66,5.65-5.69,9.36,1.48,6.65,4.25,12.58,9.76,15.12,1.64-2.09,3.22-4.07,5.14-6.09C165.38,161.57,169.83,158.92,172.9,155.91Z" style="fill:#455a64"></path><path d="M161.35,136.32c-1.63-1.72-2.14.44-4.19,3.75s-4.58,4.91-6.18,8.58l8.79-2.73c.14-.7.85-1.73,1-2.26C161,142.62,163,138,161.35,136.32Z" style="fill:#455a64"></path><path d="M134,166s-1.26-3.3-4-10.87c-3.92-10.63-5.26-14.3-7.4-19.6a18.2,18.2,0,0,0-14.19-11l-5,29.65s9.09,21,15,34.14c3.18,7.1,6.36,8.35,11.42,8.16,2.83-.58,8.79-4.39,13.11-8.71a145,145,0,0,0,10.39-12c-6.21-2.45-9.7-7.44-10.89-15.47Z" style="fill:#ebebeb"></path><path d="M134,166c-5.76,4.14-8.28,10.25-8.25,13.74-1.76-7.81,3.57-14.41,7-17Z" style="opacity:0.1"></path><g id="freepik--Glass--inject-37"><path d="M163.22,152l0-.05,10.82-21.4h0a1.46,1.46,0,0,0-.17-1.48,4.67,4.67,0,0,0-3.7-2,1.53,1.53,0,0,0-1.37.64h0L156,148l0,0,0,.07a4.1,4.1,0,0,0,1.59,5.64,4.23,4.23,0,0,0,5.71-1.62Z" style="fill:#2F8AE1"></path><path d="M170.2,127.06c-1.35,0-1.89,1-1.2,2.13a4.63,4.63,0,0,0,3.7,2c1.35,0,1.89-1,1.2-2.12A4.67,4.67,0,0,0,170.2,127.06Z" style="opacity:0.25"></path><path d="M158.78,148.3l11.09-18.14a3.75,3.75,0,0,1-.87-1,1.46,1.46,0,0,1-.17-1.48L156,148l0,0,0,.07a4.1,4.1,0,0,0,1.59,5.64C156.5,152.81,157.33,150.69,158.78,148.3Z" style="opacity:0.1"></path><path d="M177,122a2.76,2.76,0,0,0-2.23-1.23.91.91,0,0,0-.83.39h0l-4.07,7.16h0a.89.89,0,0,0,.1.9,2.82,2.82,0,0,0,2.23,1.23A.93.93,0,0,0,173,130l4.07-7.16h0A.89.89,0,0,0,177,122Z" style="fill:#e0e0e0"></path><path d="M171.7,125.05l1.51-2.67c.92.84,1.86,1.62,2.82,2.35l-1.49,2.62C173.57,126.63,172.62,125.86,171.7,125.05Z" style="opacity:0.25"></path><path d="M165,91.57c-2.08,11.86,3.72,27.74,13,35.46a17.1,17.1,0,0,0,7.86,4,9.74,9.74,0,0,0,5.06-.39l4.87-1.76c3.71-1.35,6.52-5.15,7.56-11.08,2.08-11.87-3.73-27.75-13-35.48-4.62-3.86-9.22-4.95-12.92-3.6l-4.89,1.76C168.84,81.84,166,85.64,165,91.57ZM195.48,119a14.2,14.2,0,0,1-2.69,6.59,7.86,7.86,0,0,1-.88.93c-.29,0-.59,0-.89-.1a14.36,14.36,0,0,1-6.45-3.34c-4.07-3.41-7.56-8.7-9.83-14.91s-3-12.52-2.1-17.74c.6-3.44,1.84-6,3.57-7.53a6.9,6.9,0,0,1,1,.13,14.64,14.64,0,0,1,6.31,3.31c4.07,3.41,7.56,8.71,9.83,14.92S196.39,113.81,195.48,119Z" style="fill:#455a64"></path><path d="M198.6,92.93l-7.72,2.79a43.52,43.52,0,0,1,2.5,5.58c.14.38.27.76.4,1.15l7.69-2.79A46.62,46.62,0,0,0,198.6,92.93ZM187.1,90A33.31,33.31,0,0,1,189.24,93L197,90.15c-.65-1-1.34-2-2.07-3Z" style="fill:#fff;opacity:0.1"></path><path d="M190.91,130.63l4.84-1.75c3.71-1.35,6.52-5.15,7.56-11.08,0-.23.07-.46.1-.69l-4.86,1.75-.12.69C197.4,125.47,194.6,129.27,190.91,130.63Z" style="fill:#37474f"></path><path d="M168,92.08c-.92,5.23-.17,11.53,2.1,17.74s5.76,11.51,9.83,14.92a14.49,14.49,0,0,0,6.46,3.34l.38,0a6.36,6.36,0,0,0,5.19-1.57c-.29,0-.59,0-.89-.1a14.36,14.36,0,0,1-6.45-3.34c-4.07-3.41-7.56-8.7-9.83-14.91s-3-12.52-2.1-17.74c.6-3.44,1.84-6,3.57-7.53a6.35,6.35,0,0,0-5,1.88A13.26,13.26,0,0,0,168,92.08Z" style="fill:#263238"></path><path d="M165,91.57c-2.07,11.86,3.73,27.74,13,35.47s18.4,4.37,20.47-7.49-3.72-27.74-13-35.47S167.07,79.71,165,91.57Zm5.06,18.25c-2.27-6.21-3-12.51-2.1-17.74,1.13-6.46,4.55-9.84,9.14-9l.15,0a14.48,14.48,0,0,1,6.31,3.31c4.07,3.41,7.56,8.71,9.83,14.92s3,12.51,2.1,17.73a14.2,14.2,0,0,1-2.69,6.6,6.49,6.49,0,0,1-6.45,2.45,14.49,14.49,0,0,1-6.46-3.34C175.81,121.33,172.32,116,170.05,109.82Z" style="fill:#37474f"></path><path d="M196.83,102.14a43.27,43.27,0,0,1,1.93,11.22,30.91,30.91,0,0,1-.34,5.69,21,21,0,0,1-1.58,5.45A12.58,12.58,0,0,1,193.5,129a9.1,9.1,0,0,1-5.17,2.06,11.89,11.89,0,0,1-5.54-1.05,20.64,20.64,0,0,1-4.83-3,20.48,20.48,0,0,0,4.79,3.1,12.06,12.06,0,0,0,5.59,1.1,9.26,9.26,0,0,0,5.28-2.07,12.65,12.65,0,0,0,3.42-4.58,21.15,21.15,0,0,0,1.56-5.51,30.4,30.4,0,0,0,.31-5.72,40.28,40.28,0,0,0-.64-5.69A45.84,45.84,0,0,0,196.83,102.14Z" style="fill:#455a64"></path><path d="M177.09,83a7.18,7.18,0,0,0-2.81,0,6.28,6.28,0,0,0-2.55,1.22,8.36,8.36,0,0,0-1.89,2.13A12.61,12.61,0,0,0,168.6,89a22.07,22.07,0,0,0-1.14,5.57,30.8,30.8,0,0,0,.08,5.68,36.37,36.37,0,0,0,1,5.59,42.69,42.69,0,0,0,1.76,5.41,39.09,39.09,0,0,0,5.63,9.86,27.9,27.9,0,0,0,4,4.06,16.14,16.14,0,0,0,5,2.84,9,9,0,0,0,2.87.47,6.6,6.6,0,0,0,4.06-1.5,7.16,7.16,0,0,0,1-1,10,10,0,0,0,1.52-2.45,18.55,18.55,0,0,0,1.45-5.51,29,29,0,0,0,.1-5.67,36.48,36.48,0,0,0-.89-5.6,42.11,42.11,0,0,0-1.66-5.4,41.24,41.24,0,0,1,2.26,11,29.23,29.23,0,0,1-.19,5.61,18.34,18.34,0,0,1-1.49,5.36,9.84,9.84,0,0,1-1.48,2.32,6.76,6.76,0,0,1-2.11,1.69,5.93,5.93,0,0,1-2.61.62,8,8,0,0,1-2.69-.45,15.6,15.6,0,0,1-4.78-2.77,27.25,27.25,0,0,1-3.9-4A38.64,38.64,0,0,1,170.8,111,42.32,42.32,0,0,1,168,100.18a30.93,30.93,0,0,1-.15-5.61,21.82,21.82,0,0,1,1-5.49A13,13,0,0,1,170,86.54a8.52,8.52,0,0,1,1.79-2.13,6.41,6.41,0,0,1,2.48-1.26A7.27,7.27,0,0,1,177.09,83Z" style="fill:#455a64"></path><path d="M170.24,91.3c-.91,5.22-.17,11.52,2.1,17.73s5.77,11.51,9.83,14.92a14.39,14.39,0,0,0,6.46,3.34,7.38,7.38,0,0,0,2.19.06,7.08,7.08,0,0,0,2-1.72,14.2,14.2,0,0,0,2.69-6.59c.91-5.23.17-11.53-2.1-17.74s-5.76-11.51-9.83-14.92a14.64,14.64,0,0,0-6.31-3.31l-.15,0A7.37,7.37,0,0,0,174.9,83C172.61,84.32,171,87.18,170.24,91.3Z" style="fill:#fff;opacity:0.30000000000000004"></path></g><g id="freepik--top--inject-37"><g id="freepik--Head--inject-37"><path d="M61.66,78.65a8.42,8.42,0,0,1,4.49-4.19h0c.88-4.83,7.08-10.54,18.92-11.06,9.71-.42,15.35,3,18.67,8.67s1,13,1,13L75.87,82.87A16.45,16.45,0,0,1,76,87.68c-.46,4.3-5.34,8.64-5.34,8.64l.26,6,.14,8.61a5.59,5.59,0,0,1-3.19-2.6,45.56,45.56,0,0,1-5.26-12.41C59.68,84.7,60.52,80.79,61.66,78.65Z" style="fill:#263238"></path><path d="M63.05,104.77c4.44,2.21,6.51-1.3,6.51-1.3l.5,19.34c2.18,7,10.79,13.59,25.9,18.65,2.19-7.35.21-16.37-3.85-20.17l0-5.44a7.77,7.77,0,0,0,3.86-.38c4.52-1.5,6.77-4.82,8-9.09,1.8-6.3,2.28-15,0-25.77-.44-2.08-1.32-4.36-3.22-5.32-4.71-2.39-9.13.94-15.76,3.45-2.74,1-9.38,1.44-11.12.6,2.28,2.57.88,9.14.25,11.22-.92,3-2.2,4.45-2.83,4.58a2.49,2.49,0,0,1-2.77-1,4.31,4.31,0,0,0-1.89-2.74,5,5,0,0,0-7.3,2.36A8.11,8.11,0,0,0,63.05,104.77Z" style="fill:#b16668"></path><path d="M75.31,110.57c.89,4.38,6.78,7.31,16.81,7.65v-2.37a47.69,47.69,0,0,1-7.35-.74C80.09,114.29,75.31,110.57,75.31,110.57Z" style="fill:#9a4a4d"></path><path d="M85.18,85,81.1,87.4A2.5,2.5,0,0,1,82,84.05,2.32,2.32,0,0,1,85.18,85Z" style="fill:#263238"></path><path d="M102.44,85.81l-4.59-1.38a2.3,2.3,0,0,1,2.9-1.65A2.52,2.52,0,0,1,102.44,85.81Z" style="fill:#263238"></path><path d="M82.65,90.47a1.94,1.94,0,1,0,1.88-2A1.93,1.93,0,0,0,82.65,90.47Z" style="fill:#263238"></path><path d="M97.73,89.71a1.94,1.94,0,1,0,1.89-2A1.77,1.77,0,0,0,97.73,89.71Z" style="fill:#263238"></path><path d="M91.67,87.21l.76,12.38,6.46-.9A24.43,24.43,0,0,0,91.67,87.21Z" style="fill:#9a4a4d"></path><path d="M86.38,101l6.68,2.57a3.52,3.52,0,0,1-4.57,2.18A3.75,3.75,0,0,1,86.38,101Z" style="fill:#9a4a4d"></path><path d="M87,102.27a4.37,4.37,0,0,0-.86-.13,3.7,3.7,0,0,0,2.31,3.62,3.18,3.18,0,0,0,1.13.21A3.28,3.28,0,0,0,87,102.27Z" style="fill:#f28f8f"></path></g><g id="freepik--mask--inject-37"><path d="M94.37,92.25c-.94.13-2,.93-4.4,1.67-3.85,1.2-8.59,2-11.5,3.68s-5.65,4.47-4.06,8.87,4.16,7.09,7.15,8.35,7.93,2.57,10.48,2.4a13.15,13.15,0,0,0,8.43-3.69c3-2.75,4.93-9.36,4.93-14s.6-4.64-1.2-4.85a38.63,38.63,0,0,1-7.43-1.95A4.66,4.66,0,0,0,94.37,92.25Z" style="fill:#fafafa"></path><path d="M76.49,108.78c-1.69-2.84-1.65-5.49-.19-7.8s7.22-4.11,9.64-4.76c3.08-.83,7-2,8-2.5a3.11,3.11,0,0,1,2.9-.18,28.67,28.67,0,0,0,6,1.69c2.46.34,2.44.61,2.64,1.43h0c.09-1.88,0-1.88-1.27-2a38.63,38.63,0,0,1-7.43-1.95,4.66,4.66,0,0,0-2.4-.43c-.94.13-2,.93-4.4,1.67-3.85,1.2-8.59,2-11.5,3.68s-5.65,4.47-4.06,8.87,4.16,7.09,7.15,8.35,7.93,2.57,10.48,2.4a41,41,0,0,1-8.55-2.17C79,113.39,78.22,111.69,76.49,108.78Z" style="fill:#e0e0e0"></path><path d="M104.2,94.63a38.63,38.63,0,0,1-7.43-1.95A5.89,5.89,0,0,0,95,92.23l.4,1c.48.93,1.35,3.16,2.15,5,.92,1.4.63,4.79.6,7.73s.31,8.51-1.77,10.2a13.81,13.81,0,0,0,4-2.67c3-2.75,4.93-9.36,4.93-14S106,94.84,104.2,94.63Z" style="opacity:0.1"></path><path d="M95.86,104.73h0l-1-.23a.21.21,0,0,1-.16-.25.23.23,0,0,1,.26-.16l1,.23a.21.21,0,0,1,.16.26A.22.22,0,0,1,95.86,104.73Zm-2.07-.46h0l-1-.23a.21.21,0,0,1-.16-.25.22.22,0,0,1,.25-.16l1,.23a.2.2,0,0,1,.16.25A.21.21,0,0,1,93.79,104.27Zm-2.07-.46h0l-1-.23a.2.2,0,0,1-.16-.25.2.2,0,0,1,.25-.16l1,.23a.22.22,0,0,1,.16.25A.21.21,0,0,1,91.72,103.81Zm-2.08-.47h0l-1-.23a.22.22,0,0,1-.16-.25.21.21,0,0,1,.26-.16l1,.23a.2.2,0,0,1,.16.25A.21.21,0,0,1,89.64,103.34Zm-2.07-.46h0l-1-.24a.2.2,0,0,1-.16-.25.22.22,0,0,1,.25-.16l1,.24a.2.2,0,0,1,.16.25A.21.21,0,0,1,87.57,102.88Zm-2.07-.46h0l-1-.23a.2.2,0,0,1-.16-.25.22.22,0,0,1,.25-.16l1,.23a.22.22,0,0,1,.16.25A.21.21,0,0,1,85.5,102.42ZM83.42,102h0l-.95-.21a.21.21,0,0,1-.16-.25.2.2,0,0,1,.25-.16l1,.21a.2.2,0,0,1,.16.25A.21.21,0,0,1,83.42,102Z" style="fill:#e0e0e0"></path><path d="M95.35,114h0l-1-.23a.2.2,0,0,1-.16-.25.2.2,0,0,1,.25-.16l1,.23a.21.21,0,0,1-.05.42Zm-2.07-.47h0l-1-.23a.21.21,0,0,1-.16-.26.2.2,0,0,1,.25-.15l1,.23a.21.21,0,0,1,.16.25A.22.22,0,0,1,93.28,113.54Zm-2.08-.46h0l-1-.23a.22.22,0,0,1-.16-.25.23.23,0,0,1,.26-.16l1,.23a.21.21,0,0,1,.16.26A.22.22,0,0,1,91.2,113.08Zm-2.07-.46h0l-1-.23a.2.2,0,0,1-.16-.25.2.2,0,0,1,.25-.16l1,.23a.21.21,0,0,1-.05.42Zm-2.07-.47h0l-1-.23a.2.2,0,0,1-.16-.25.2.2,0,0,1,.25-.16l1,.23a.22.22,0,0,1,.16.25A.22.22,0,0,1,87.06,112.15ZM85,111.69h0l-1-.22a.22.22,0,0,1,.1-.42l1,.22a.21.21,0,0,1,.16.26A.21.21,0,0,1,85,111.69Z" style="fill:#e0e0e0"></path><path d="M104.68,100.83a.2.2,0,0,0-.29,0l-.88.6a.22.22,0,0,0-.05.3.24.24,0,0,0,.17.09.28.28,0,0,0,.13,0l.87-.61A.2.2,0,0,0,104.68,100.83Zm-3.78,2.37-.55.38a.21.21,0,0,0,.12.38.2.2,0,0,0,.13,0l.55-.38a.22.22,0,0,0,0-.29A.22.22,0,0,0,100.9,103.2Zm1.74-1.21-.87.6a.22.22,0,0,0,0,.3.22.22,0,0,0,.17.09.22.22,0,0,0,.13,0l.87-.61a.21.21,0,0,0,0-.29A.22.22,0,0,0,102.64,102Z" style="fill:#e0e0e0"></path><path d="M100.9,103.2l-.55.38a.21.21,0,0,0,.12.38.2.2,0,0,0,.13,0l.55-.38a.22.22,0,0,0,0-.29A.22.22,0,0,0,100.9,103.2Zm1.74-1.21-.87.6a.22.22,0,0,0,0,.3.22.22,0,0,0,.17.09.22.22,0,0,0,.13,0l.87-.61a.21.21,0,0,0,0-.29A.22.22,0,0,0,102.64,102Zm2-1.16a.2.2,0,0,0-.29,0l-.88.6a.22.22,0,0,0-.05.3.24.24,0,0,0,.17.09.28.28,0,0,0,.13,0l.87-.61A.2.2,0,0,0,104.68,100.83Z" style="opacity:0.1"></path><path d="M79.86,110.74a33.08,33.08,0,0,1-9.73-4,3.18,3.18,0,0,1-.49-.31l0-1.06c1.21,1.25,7.83,4.2,10.37,4.64Z" style="fill:#fafafa"></path><path d="M80.8,111.06l-1.42-.31c-.24-.06-.44-.23-.44-.4V110c0-.17.2-.26.44-.21l1.42.31c.24,0,.44.23.44.39v.35C81.24,111,81,111.11,80.8,111.06Z" style="fill:#e0e0e0"></path><path d="M78.6,101.43c-2.69-.48-8.77-4.85-9.75-6.09l-.31-1.18c1,1.27,7.65,6.11,10.19,6.56Z" style="fill:#fafafa"></path><path d="M79.32,101.66,78,101.42c-.23,0-.41-.21-.41-.37v-.34c0-.17.18-.27.41-.23l1.32.24c.23,0,.41.21.41.37v.34C79.74,101.6,79.55,101.7,79.32,101.66Z" style="fill:#e0e0e0"></path></g></g><path d="M92,121.22l1.19,1.5S100,133.39,96,141.46c-4.33-1.54-17.91-6.8-26-17.92l-.06-3.85a52.25,52.25,0,0,1-4.94,1.8L49.3,126.84s-2.87,11.8-2,30.43c.65,14.22.76,27.3-.56,32.27-3,11.22-4.47,39.44-6.09,74.46,0,0,9.94,6.81,29.65,8.77s45.17-3.09,50.37-8.06c0,0-3.07-104.58-3.52-113-.58-10.75-1.78-19.71-8.73-27.16a118.72,118.72,0,0,0-16.34-4.58Z" style="fill:#f5f5f5"></path><path d="M55.11,202.48a82.71,82.71,0,0,0,25.94,4.16S80.5,231,79.12,235s-26.85.21-27.52-4.16S55.11,202.48,55.11,202.48Z" style="fill:#ebebeb"></path><path d="M96,141.46c-2.31-.31-15.49-6.73-17.58-4.31-1.67,1.91-2.81,3.6-3.36,4.23,0,0-3-1.2-6.9-9-3.51-7-3.15-10.9-3.15-10.9a13.25,13.25,0,0,0,2.38-2.92c1.17-1.92,1.84-2.72,2.51-2.84l.07,2.85s.86,4.45,6.22,9.62C80.62,132.51,90.09,138.62,96,141.46Z" style="fill:#e0e0e0"></path><path d="M96,141.46c1-1.82,4.43-9.11,6.13-8.2a13.81,13.81,0,0,1,3.32,2.85,18.7,18.7,0,0,0-4.65-9c-3.06-3.23-8.64-9.27-8.64-9.27L92,121.22S97.12,131.44,96,141.46Z" style="fill:#e0e0e0"></path><path d="M96,141.46c2.65,7.33,2.33,13.76,2.3,19.87C98.19,172.05,98,271.82,98,271.82l1.73-.28s-.26-100.48-.33-110.23C99.32,154.42,99.51,147.68,96,141.46Z" style="fill:#e0e0e0"></path><path d="M23.13,217.14,24.35,229s12.07,2,16.47-1.69V211.65Z" style="fill:#b16668"></path><path d="M50.51,126.43c-8.49,1.84-13.55,4.51-16.11,11-2.39,6.07-10.17,32-12.5,38.86s-2.64,9.57-1.8,18.71c1,11.4,3.11,26.69,3.11,26.69s11.44,2.39,17.89-2l.55-32.07,13-28.52S61,134.75,50.51,126.43Z" style="fill:#ebebeb"></path><path d="M24.35,229a51.86,51.86,0,0,1-.28,8.54,52.82,52.82,0,0,0-.09,14c.62,5.63,2.74,13.67,6.23,14.25,0,0,1.48,3.19,3.9,2.91.94,1.84,1.93,2.53,3.49,2.24.32,1.23.73,1.91,1.48,1.74,2.62-.6,2.74-3.22,2.25-7.16-.46-3.65-2.28-10.65-1.23-12.91s1.74,2.74,2.52,5.52S46.43,262,48,261.25c.33-.16-.33-3.62-.59-7.1s-.19-6.42-2.37-10.68c-3-5.89-3.92-7.74-4.1-11.61s-.12-4.57-.12-4.57C37.63,229,32.24,229.61,24.35,229Z" style="fill:#455a64"></path></g></g></g><g id="freepik--speech-bubble--inject-37"><g id="freepik--speech-bubble--inject-37"><g id="freepik--speech-bubble--inject-37"><path d="M326.75,89.69a29.09,29.09,0,0,0,20.6,5.72l3.29-.54a29.09,29.09,0,0,0-8-57.45l-3.31.38a29.09,29.09,0,0,0-12.61,51.89Z" style="fill:#fff"></path><path d="M325.26,91.66A31.62,31.62,0,0,0,366,89.44l9.44,2.69a1.83,1.83,0,0,0,2.06-2.72l-5.16-8.35a31.58,31.58,0,1,0-47.05,10.6Zm-4.17-42.75A29,29,0,0,1,339.36,37.8l3.31-.38a29.09,29.09,0,0,1,8,57.44l-3.29.55a29.1,29.1,0,0,1-26.26-46.5Z" style="fill:#2F8AE1"></path><path d="M325.26,91.66A31.62,31.62,0,0,0,366,89.44l9.44,2.69a1.83,1.83,0,0,0,2.06-2.72l-5.16-8.35a31.58,31.58,0,1,0-47.05,10.6Zm-4.17-42.75A29,29,0,0,1,339.36,37.8l3.31-.38a29.09,29.09,0,0,1,8,57.44l-3.29.55a29.1,29.1,0,0,1-26.26-46.5Z" style="fill:#fff;opacity:0.7000000000000001"></path></g><g id="freepik--ADN--inject-37"><path d="M340.86,61.25l-.84.67,7.74,9.77.84-.67Zm-2.62,3.1-.84.66,6.75,8.52.84-.67Zm-1.73,4.2-.84.67,4,5,.84-.67ZM325,74.88l6.75,8.52.84-.67-6.75-8.51Zm5.33-1.39-.84.66,4,5,.84-.66Zm14.19-14.08-.84.67,6.75,8.51.84-.66Zm4.49-.73-.84.67,4,5,.84-.67Zm8-9.14-.84.67,6.75,8.51.84-.66Zm-1.74,4.21-.84.66,4,5,.84-.66Z" style="fill:#2F8AE1"></path><path d="M340.86,61.25l-.84.67,7.74,9.77.84-.67Zm-2.62,3.1-.84.66,6.75,8.52.84-.67Zm-1.73,4.2-.84.67,4,5,.84-.67ZM325,74.88l6.75,8.52.84-.67-6.75-8.51Zm5.33-1.39-.84.66,4,5,.84-.66Zm14.19-14.08-.84.67,6.75,8.51.84-.66Zm4.49-.73-.84.67,4,5,.84-.67Zm8-9.14-.84.67,6.75,8.51.84-.66Zm-1.74,4.21-.84.66,4,5,.84-.66Z" style="fill:#fff;opacity:0.45"></path><path d="M329.84,86.68c3.63-2.88,4.82-7.84,5.71-12.68.86-4.6,2-9.32,5.27-11.93s8.14-2.62,12.82-2.41c4.92.23,10,.21,13.65-2.67l-.77-1c-3.29,2.61-8.14,2.62-12.82,2.4-4.91-.23-10-.21-13.65,2.67s-4.81,7.84-5.71,12.68c-.85,4.61-2,9.32-5.26,11.94Z" style="fill:#2F8AE1"></path><path d="M348.57,71.84c3.63-2.88,4.81-7.84,5.71-12.68.85-4.61,2-9.32,5.26-11.94l-.76-1c-3.64,2.88-4.82,7.84-5.71,12.68-.86,4.6-2,9.32-5.27,11.93s-8.14,2.62-12.82,2.41c-4.92-.23-10-.21-13.65,2.67l.77,1c3.29-2.61,8.14-2.62,12.82-2.4C339.83,74.74,344.93,74.72,348.57,71.84Z" style="fill:#2F8AE1"></path></g></g></g></svg>