<svg xmlns="http://www.w3.org/2000/svg" viewBox="0 0 500 500"><g id="freepik--Floor--inject-2"><ellipse id="freepik--floor--inject-2" cx="250.21" cy="356.17" rx="227.88" ry="125.27" style="fill:#f5f5f5"></ellipse></g><g id="freepik--Shadow--inject-2"><path id="freepik--shadow--inject-2" d="M161.16,347.12,254.83,293a4.55,4.55,0,0,1,4.1,0l68.31,39.44a1.25,1.25,0,0,1,0,2.37l-93.67,54.08a4.55,4.55,0,0,1-4.1,0l-68.31-39.44A1.25,1.25,0,0,1,161.16,347.12Z" style="fill:#e0e0e0"></path><ellipse id="freepik--shadow--inject-2" cx="393.14" cy="355.86" rx="62.72" ry="36.21" style="fill:#e0e0e0"></ellipse><path id="freepik--shadow--inject-2" d="M134.83,408.25a6.28,6.28,0,0,1-3.08-.77l-76.26-44a3.24,3.24,0,0,1,0-5.87l61.67-35.63a6.66,6.66,0,0,1,6.18,0l76.26,44a3.25,3.25,0,0,1,0,5.88l-61.68,35.62A6.32,6.32,0,0,1,134.83,408.25Z" style="fill:#e0e0e0"></path></g><g id="freepik--Plants--inject-2"><g id="freepik--plants--inject-2"><path d="M71.88,333.87S73,319.25,68,306.79s-13.44-21.25-22.43-23.71-18,4.52-9.29,12.14S61.14,312,65,335.12Z" style="fill:#37474f"></path><path d="M69.92,329.64H70a.49.49,0,0,0,.39-.58c-5.1-25.55-21.53-38.94-29.51-42.46a.5.5,0,0,0-.4.91c7.81,3.44,23.92,16.6,28.94,41.74A.48.48,0,0,0,69.92,329.64Z" style="fill:#fff"></path><path d="M30.09,323.17c.39,1.66,1.91,2.78,3.35,3.71s3,1.92,3.56,3.53c1.14,3.25-2.43,6.84-1.16,10A5.36,5.36,0,0,0,39,343.22c1.12.43,2.3.66,3.46,1a14.26,14.26,0,0,0,1.7.19,7.84,7.84,0,0,1,4.75,1.44c2.08,1.76,2.23,4.84,3.21,7.37a11.27,11.27,0,0,0,6.91,6.42c2.57.86,6.64,1,7.55,0,.69-.79-.35-3.76-.18-4.79a44.1,44.1,0,0,0,.5-8,14.92,14.92,0,0,1,.17-3.66q.41-2,.78-4.05c.39-2.18,1.11-4.51.58-6.74-.59-2.45-3.12-3-3.65-5.38-.22-1-.24-1.94-.44-2.9a8,8,0,0,0-5.76-5.91c-4.38-1.07-9,1.76-13.4.59a32.71,32.71,0,0,1-3.27-1.3c-3.45-1.35-7.79-1.12-10.39,1.53A4.73,4.73,0,0,0,30.09,323.17Z" style="fill:#455a64"></path><path d="M65.69,352.64h0a.4.4,0,0,0,.36-.41c-1.74-24.12-25.28-32.06-31-32.73a.39.39,0,0,0-.43.34.38.38,0,0,0,.34.42c5.61.66,28.64,8.42,30.34,32A.38.38,0,0,0,65.69,352.64Z" style="fill:#fff"></path><path d="M41,335.88a.34.34,0,0,0,.22-.07,20.49,20.49,0,0,1,17.35-1.49.39.39,0,0,0,.25-.73,21.2,21.2,0,0,0-18,1.59.38.38,0,0,0-.1.53A.37.37,0,0,0,41,335.88Z" style="fill:#fff"></path></g></g><g id="freepik--Window--inject-2"><g id="freepik--window--inject-2"><g id="freepik--window--inject-2"><polygon points="75 193.95 79.14 196.34 182.5 136.66 178.37 134.28 75 193.95" style="fill:#f5f5f5"></polygon><polygon points="130.82 68.14 130.82 164.12 134.95 161.73 134.95 65.75 130.82 68.14" style="fill:#ebebeb"></polygon><polygon points="128.75 66.94 130.82 68.14 130.82 164.12 128.75 162.92 128.75 66.94" style="fill:#e0e0e0"></polygon><polygon points="130.82 68.14 134.95 65.75 132.89 64.55 128.75 66.94 130.82 68.14" style="fill:#fafafa"></polygon><path d="M186.63,33.52,75,98V203.5l111.63-64.45ZM182.5,136.66,79.14,196.34v-96L182.5,40.68Z" style="fill:#ebebeb"></path><polygon points="182.5 136.66 178.37 134.28 178.36 43.07 182.5 40.68 182.5 136.66" style="fill:#e0e0e0"></polygon><polygon points="186.63 33.52 182.5 31.13 70.87 95.58 75 97.97 186.63 33.52" style="fill:#f5f5f5"></polygon><polygon points="70.87 95.58 75 97.97 75 203.5 70.87 201.11 70.87 95.58" style="fill:#e0e0e0"></polygon><polygon points="130.82 70.52 134.94 68.14 134.94 70.53 130.82 72.91 130.82 70.52" style="opacity:0.1"></polygon><polygon points="130.82 72.91 128.75 71.71 130.82 70.52 130.82 72.91" style="opacity:0.1"></polygon></g></g></g><g id="freepik--Character--inject-2"><g id="freepik--character--inject-2"><path d="M393.81,111c-7.25,2.4-9,2.94-14,10.74-4.82,7.5-9.79,21.35-14.1,32.47-8-2.27-24.88-6.21-30.47-9.45s-5-5.48-7.29-7.57c-2.62-2.41-5.37-8.19-7.51-5-1.45,2.14,1.54,3.58,1.35,6.29s-8.39-3.71-11.83-6.11c-2.28-1.6-7.57,3.4-5.44,8.83,1.87,4.8,4.88,7.85,10.27,10.12,5.69,2.41,8.66,3.62,15.81,6.83,7.47,3.35,38.25,17,41.29,15.07,6.93-3.42,13.28-24.87,17.48-34.13S390.76,120.23,393.81,111Z" style="fill:#ffa8a7"></path><path d="M395.56,110.08c-3.11,4.09-1.83,2.44-2.79,8.74-.77,5.09-11.46,54-21.13,56.07-4.25.89-34.88-13.12-42.31-17.22,2.51-3.7,5-8.27,5.87-12.94,8.9,3.48,24.25,6.91,29.76,8.62,2.55-7.11,5.67-14.41,8.6-21.59C379.13,118.1,382.71,111.93,395.56,110.08Z" style="fill:#407BFF"></path><path d="M395.56,110.08c-3.11,4.09-1.83,2.44-2.79,8.74-.77,5.09-11.46,54-21.13,56.07-4.25.89-34.88-13.12-42.31-17.22,2.51-3.7,5-8.27,5.87-12.94,8.9,3.48,24.25,6.91,29.76,8.62,2.55-7.11,5.67-14.41,8.6-21.59C379.13,118.1,382.71,111.93,395.56,110.08Z" style="opacity:0.2"></path><rect x="425.17" y="331.89" width="11.93" height="20.43" style="fill:#ffa8a7"></rect><polygon points="392.76 339.61 379.73 340.06 379.08 316.45 393.83 315.97 392.76 339.61" style="fill:#ffa8a7"></polygon><path d="M435.64,192.88c0,10.86.75,74,.75,74,.26,3.12,3.27,8.68,3.51,19.94.34,16.33-2.18,54.78-2.18,54.78a14.94,14.94,0,0,1-12.66.25s-8.93-54.39-11-70.55c-1.78-14.11-6.86-51-6.86-51l-7.69,47.94a79.56,79.56,0,0,1,.64,17.34c-.53,7.48-6.19,44.63-6.19,44.63a24.94,24.94,0,0,1-15.18.14s-1.19-57.9-1.32-64.75c-.15-7.82,3.26-75.08,3.26-75.08Z" style="fill:#37474f"></path><path d="M425.17,346.42v-1.7c-.64,0-1,.62-1.28,2.16a33.25,33.25,0,0,1-.69,3.37,41.08,41.08,0,0,1-2.09,6.11c-1.69,4.16-3.1,5.71-7,10.57-.91,1.15-3,3-3.7,4.27s-1,4.85.25,5.67c4.5,3,11.35,3.09,16.19,1.67a9.76,9.76,0,0,0,7-7.9c.18-1.1.12-2.22.24-3.33a15.83,15.83,0,0,1,3-6.93,20.85,20.85,0,0,0,2.29-3.77c1-2.46.2-5.22-.44-7.66-.55-2.11-1.15-4.43-1.87-4.23V346c-.87,1-3.27,1.91-6,2C429.4,348.1,425.16,347.76,425.17,346.42Z" style="fill:#407BFF"></path><path d="M425.17,346.42v-1.7c-.64,0-1,.62-1.28,2.16a33.25,33.25,0,0,1-.69,3.37,41.08,41.08,0,0,1-2.09,6.11c-1.69,4.16-3.1,5.71-7,10.57-.91,1.15-3,3-3.7,4.27s-1,4.85.25,5.67c4.5,3,11.35,3.09,16.19,1.67a9.76,9.76,0,0,0,7-7.9c.18-1.1.12-2.22.24-3.33a15.83,15.83,0,0,1,3-6.93,20.85,20.85,0,0,0,2.29-3.77c1-2.46.2-5.22-.44-7.66-.55-2.11-1.15-4.43-1.87-4.23V346c-.87,1-3.27,1.91-6,2C429.4,348.1,425.16,347.76,425.17,346.42Z" style="opacity:0.6"></path><path d="M379.6,336c-.68,0-1.23,1-2.72,2.59a28.53,28.53,0,0,1-7.67,5.52c-4.88,2.44-14.36,6.2-18.66,8.13-2.68,1.21-2.55,4.45.22,6.29s9.47,3.18,17.5,1.38c4.38-1,10.08-5,13.69-4.81s10.35.17,13-1.67,1.59-5.75.84-9.12c-.82-3.68-1.64-9.41-2.86-9.16l-.06,1.37c-1.57,2.38-9.79,3.24-13.23,1.49Z" style="fill:#407BFF"></path><path d="M379.6,336c-.68,0-1.23,1-2.72,2.59a28.53,28.53,0,0,1-7.67,5.52c-4.88,2.44-14.36,6.2-18.66,8.13-2.68,1.21-2.55,4.45.22,6.29s9.47,3.18,17.5,1.38c4.38-1,10.08-5,13.69-4.81s10.35.17,13-1.67,1.59-5.75.84-9.12c-.82-3.68-1.64-9.41-2.86-9.16l-.06,1.37c-1.57,2.38-9.79,3.24-13.23,1.49Z" style="opacity:0.6"></path><path d="M407.23,220.31s-10.15-3.31-16.9-9.83c0,0,3.06,5.72,12.15,11.05l-2.18,42Z" style="fill:#263238"></path><path d="M415.92,109.54a112.35,112.35,0,0,1,12.36,3.58c3.08,1.1,4.74,4,5.4,6.92,2.1,9.26,2.47,28.69,2.47,28.69l.12,45.23c-7.84,5.71-40,8.61-56.52-3.43,0,0,2-53.88,2-62.26s4.66-18.46,17.52-19.21Z" style="fill:#407BFF"></path><path d="M415.92,109.54a112.35,112.35,0,0,1,12.36,3.58c3.08,1.1,4.74,4,5.4,6.92,2.1,9.26,2.47,28.69,2.47,28.69l.12,45.23c-7.84,5.71-40,8.61-56.52-3.43,0,0,2-53.88,2-62.26s4.66-18.46,17.52-19.21Z" style="opacity:0.4"></path><path d="M478.43,162.43a.88.88,0,0,0-.34-.79l-.09-.06-1.81-1.05h0a.9.9,0,0,0-.88.09L439,181.53,438,177.27a1.21,1.21,0,0,0-.52-.69h0l-1.88-1.09h0a1.13,1.13,0,0,0-1.15,0L419,184.42a2.78,2.78,0,0,0-1.26,2.17v51.46a.92.92,0,0,0,.33.8h0L420,240h0a.92.92,0,0,0,.86-.1l56.33-32.53a2.78,2.78,0,0,0,1.26-2.17Z" style="fill:#407BFF"></path><path d="M437.42,176.56a1.1,1.1,0,0,0-1.12.05l-15.43,8.9a2.78,2.78,0,0,0-.89.94l-1.88-1.09a2.53,2.53,0,0,1,.89-.94l15.43-8.91a1.13,1.13,0,0,1,1.15,0h0Z" style="fill:#fff;opacity:0.5"></path><path d="M478,161.58a1,1,0,0,0-.82.13l-36.31,20.94a1.09,1.09,0,0,1-1.67-.66l-.17-.46,36.27-20.92a1.16,1.16,0,0,1,.55-.17.67.67,0,0,1,.33.08h0Z" style="fill:#fff;opacity:0.5"></path><path d="M478.43,162.43l0,42.74a2.77,2.77,0,0,1-1.25,2.18L420.72,240a.74.74,0,0,1-1.11-.64V187.69a2.5,2.5,0,0,1,.37-1.23,2.67,2.67,0,0,1,.88-.94l15.44-8.91a1.13,1.13,0,0,1,1.12-.05l0,0h0a1.21,1.21,0,0,1,.52.69l1.06,4.26.16.46a1.1,1.1,0,0,0,1.68.67l36.31-20.95a.94.94,0,0,1,.82-.12l.05,0h0A.89.89,0,0,1,478.43,162.43Z" style="fill:#407BFF"></path><polygon points="467.34 169.51 467.35 162.76 471.36 160.44 471.36 167.19 467.34 169.51" style="fill:#455a64"></polygon><path d="M420.07,240l-.06,0-1.94-1.12a.92.92,0,0,1-.34-.8V186.59a2.61,2.61,0,0,1,.37-1.23l1.88,1.09h0a2.49,2.49,0,0,0-.36,1.23v51.62A.72.72,0,0,0,420.07,240Z" style="opacity:0.2"></path><path d="M458.37,170.08C448,127.6,442.63,114.57,430,114.73c-3.68,4.41.2,18.11,2.64,24.78,0,0,11.16,27.27,13.24,37,1.82,8.56,3.88,19.32,3.75,26.68a5.3,5.3,0,0,1-1.45,3.5c-2.37,2.57-2.38,4.64-3.91,7.48-1.2,2.23-2.52,3.06-2.15,3.56a2.89,2.89,0,0,0,3.9.29,14.64,14.64,0,0,0,3-2.84,32.86,32.86,0,0,1-2.31,9.76L444,226.48s.81,2.74,7.19.91c7.21-2.06,9.79-3,10.55-15.17a93.92,93.92,0,0,0,.13-13.53C460.83,187.1,460,176.92,458.37,170.08Z" style="fill:#ffa8a7"></path><path d="M428.28,113.12s9.63-.21,12.68,4.46c3.52,5.39,8.1,13.75,14,34.82s7.74,36.46,8,48.32c0,0-7.42,3.47-14.27-.49,0,0-3-18.33-5.73-28.08s-11.31-30.89-11.31-30.89S423.48,127.79,428.28,113.12Z" style="fill:#407BFF"></path><path d="M428.28,113.12s9.63-.21,12.68,4.46c3.52,5.39,8.1,13.75,14,34.82s7.74,36.46,8,48.32c0,0-7.42,3.47-14.27-.49,0,0-3-18.33-5.73-28.08s-11.31-30.89-11.31-30.89S423.48,127.79,428.28,113.12Z" style="opacity:0.2"></path><path d="M413.28,73.8a15.1,15.1,0,1,1-15.1-15.1A15.1,15.1,0,0,1,413.28,73.8Z" style="fill:#263238"></path><path d="M424.28,84.53s-2.45,11.5-3.43,13.39a5.22,5.22,0,0,1-3,2.42l.17-8.08Z" style="fill:#263238"></path><path d="M421.21,68.07a5.65,5.65,0,0,1,4.68,1.65c2,2.06.89,8.5-1.61,14.81l-4.61.53Z" style="fill:#263238"></path><path d="M418.28,85.07c.93.55,2.25-1.23,3.39-2.42s4.86-2.82,6.71,1.09-1.64,9.25-4.56,10.17c-5.05,1.58-5.81-1.65-5.81-1.65L417.64,111h0c-3.49,4.47-11.33,9.73-15.55,9-3.37-.6-4.11-6.29-.89-10l0-5.54a32.22,32.22,0,0,1-6.81.35c-3.71-.57-6-3.5-7.17-7.52-1.81-6.45-2.49-11.67-1-24.36,1.68-13.91,17.86-14,26.6-8.55S418.28,85.07,418.28,85.07Z" style="fill:#ffa8a7"></path><path d="M386.55,66.71c3.05,2.48,5,3.8,10.93,4a26.4,26.4,0,0,0,11.71-2.3,7.59,7.59,0,0,0,1.74,3.82A11.43,11.43,0,0,0,415.07,75c.31,2.51.3,5.72.46,8.24.05.85,0,5.27,2.06,4a10.27,10.27,0,0,0,1.76-2,29.85,29.85,0,0,1,2.32-2.58c1.59-1.45-.46-14.58-.46-14.58a6.37,6.37,0,0,0-1.1-7.09c-2.19-2.41-5.23-5.34-15.14-4.17-7.06.84-14.75,3-21,0C383.15,60.36,384.36,64.93,386.55,66.71Z" style="fill:#263238"></path><path d="M421.2,69.09l5.58-3a3.08,3.08,0,0,0-4.23-1.4A3.33,3.33,0,0,0,421.2,69.09Z" style="fill:#263238"></path><path d="M401.22,104.44s8.28-1.67,11.18-3.21a9.58,9.58,0,0,0,4-4,13.12,13.12,0,0,1-2.28,4.67c-2.12,2.71-12.91,4.7-12.91,4.7Z" style="fill:#f28f8f"></path><path d="M402.06,82.13a1.78,1.78,0,1,0,1.78-1.86A1.83,1.83,0,0,0,402.06,82.13Z" style="fill:#263238"></path><path d="M403.84,76.11l3.67,2a2.2,2.2,0,0,0-.85-2.93A2,2,0,0,0,403.84,76.11Z" style="fill:#263238"></path><path d="M401.92,94.22l-4.11,1.54a2.14,2.14,0,0,0,2.79,1.36A2.3,2.3,0,0,0,401.92,94.22Z" style="fill:#f28f8f"></path><path d="M387.39,77.59,390.74,75a2,2,0,0,0-2.91-.44A2.21,2.21,0,0,0,387.39,77.59Z" style="fill:#263238"></path><path d="M388.15,81.79A1.72,1.72,0,1,0,389.87,80,1.76,1.76,0,0,0,388.15,81.79Z" style="fill:#263238"></path><polygon points="397.35 80.38 396.76 91.2 391.11 89.28 397.35 80.38" style="fill:#f28f8f"></polygon><path d="M395.31,118.81c1.06,2.51,3,3.53,6.53,3.92a13.1,13.1,0,0,0,9.76-3.39L407.21,115l-5.56,4.19-.47-4.67Z" style="fill:#263238"></path><path d="M398.08,117.44a11.68,11.68,0,0,0-.58,4.7,8,8,0,0,0,1.56,3.91,4.34,4.34,0,0,0,3.8.41,10.37,10.37,0,0,0,3.61-7.85l-4.82.55Z" style="fill:#37474f"></path><path d="M399.06,126.05s-5.7,31.51-5.94,34.05,3.28,11.58,5.46,11.66,6.45-8.1,6.51-10.42-2.23-34.88-2.23-34.88Z" style="fill:#37474f"></path><path d="M402.86,126.46a3.81,3.81,0,0,1-3.8-.41l-.09.5a4.38,4.38,0,0,0,3.95.78Z" style="fill:#263238"></path><path d="M401.65,119.16l16.07-12.25.06-3.22s3.77,1,4.61,7.6c-2.29,5.33-6.45,9.87-12.55,13.35l-3.37-6Z" style="fill:#407BFF"></path><path d="M401.65,119.16l16.07-12.25.06-3.22s3.77,1,4.61,7.6c-2.29,5.33-6.45,9.87-12.55,13.35l-3.37-6Z" style="opacity:0.2"></path><path d="M401.22,105.24s-3.78,1.75-5.39,4.41-1.6,11.29-1.6,11.29l3.85-3.5,3.57,1.72c-.34-3.38-.45-9.18-.45-9.18Z" style="fill:#407BFF"></path><path d="M401.22,105.24s-3.78,1.75-5.39,4.41-1.6,11.29-1.6,11.29l3.85-3.5,3.57,1.72c-.34-3.38-.45-9.18-.45-9.18Z" style="opacity:0.2"></path></g></g><g id="freepik--Cabinet--inject-2"><g id="freepik--cabinet--inject-2"><g id="freepik--cabinet--inject-2"><polygon points="231.52 381.09 172.35 346.93 172.35 161.48 231.52 195.64 231.52 381.09" style="fill:#263238"></polygon><polygon points="231.52 195.64 316.05 146.84 316.05 332.29 231.52 381.09 231.52 195.64" style="fill:#37474f"></polygon><polygon points="316.05 146.84 231.52 195.64 172.35 161.48 256.88 112.68 316.05 146.84" style="fill:#455a64"></polygon><polygon points="239.97 315.83 307.6 276.79 307.6 323.79 309.15 324.69 241.53 363.73 239.97 362.83 239.97 315.83" style="fill:#263238"></polygon><polygon points="241.53 316.73 309.15 277.69 309.15 324.69 241.53 363.73 241.53 316.73" style="fill:#455a64"></polygon><g style="opacity:0.05"><polygon points="241.53 316.73 309.15 277.69 309.15 324.69 241.53 363.73 241.53 316.73"></polygon></g><path d="M268,309.39l11.5-6.64c1.49-.86,2.7-.46,2.7.88a5.39,5.39,0,0,1-2.71,4L268,314.27c-1.49.87-2.7.47-2.7-.88A5.43,5.43,0,0,1,268,309.39Z" style="fill:#263238"></path><polygon points="239.97 259.08 307.6 220.04 307.6 267.04 309.15 267.94 241.53 306.98 239.97 306.08 239.97 259.08" style="fill:#263238"></polygon><polygon points="241.53 259.98 309.15 220.94 309.15 267.94 241.53 306.98 241.53 259.98" style="fill:#455a64"></polygon><g style="opacity:0.05"><polygon points="241.53 259.98 309.15 220.94 309.15 267.94 241.53 306.98 241.53 259.98"></polygon></g><path d="M268,252.64l11.5-6.64c1.49-.86,2.7-.46,2.7.88a5.39,5.39,0,0,1-2.71,4L268,257.52c-1.49.87-2.7.47-2.7-.88A5.43,5.43,0,0,1,268,252.64Z" style="fill:#263238"></path><polygon points="239.97 202.33 307.6 163.29 307.6 210.28 239.97 249.32 239.97 202.33" style="fill:#263238"></polygon></g><g id="freepik--Drawer--inject-2"><polygon points="341.41 190.76 303.89 169.11 303.88 210.52 341.4 232.17 341.41 190.76" style="fill:#37474f"></polygon><g style="opacity:0.1"><polygon points="341.41 190.76 303.89 169.11 303.88 210.52 341.4 232.17 341.41 190.76"></polygon></g><polygon points="306.51 167.59 303.88 169.11 341.41 190.76 344.03 189.25 306.51 167.59" style="fill:#455a64"></polygon><path d="M317.08,172.16a.92.92,0,0,0-.37-.83.37.37,0,0,0-.09-.06l-1.91-1.11h0a.92.92,0,0,0-.93.09l-38.21,22-1.12-4.49a1.23,1.23,0,0,0-.55-.73h0l-2-1.16h0a1.19,1.19,0,0,0-1.21,0l-16.26,9.39a2.91,2.91,0,0,0-1.32,2.29v54.21a.92.92,0,0,0,.36.84h0l2,1.19h0a1,1,0,0,0,.9-.11l59.36-34.27a2.92,2.92,0,0,0,1.32-2.29Z" style="fill:#407BFF"></path><path d="M273.86,187.05a1.19,1.19,0,0,0-1.18,0l-16.26,9.39a2.7,2.7,0,0,0-.93,1l-2-1.16a2.78,2.78,0,0,1,.93-1L270.7,186a1.19,1.19,0,0,1,1.21,0h0Z" style="opacity:0.2"></path><path d="M316.62,171.27a1,1,0,0,0-.87.13L277.5,193.47a1.16,1.16,0,0,1-1.77-.7l-.17-.48,38.21-22a1.21,1.21,0,0,1,.59-.18.64.64,0,0,1,.34.09h0Z" style="opacity:0.2"></path><path d="M317.08,172.17l0,45a2.91,2.91,0,0,1-1.32,2.29l-59.51,34.36a.78.78,0,0,1-1.17-.68V198.78a3,3,0,0,1,1.32-2.29l16.26-9.38a1.19,1.19,0,0,1,1.19-.06l0,0h0a1.23,1.23,0,0,1,.55.73l1.12,4.49.17.48a1.16,1.16,0,0,0,1.77.71l38.25-22.07a1,1,0,0,1,.87-.13l.05,0h0A1,1,0,0,1,317.08,172.17Z" style="fill:#407BFF"></path><path d="M317.08,172.17l0,45a2.91,2.91,0,0,1-1.32,2.29l-59.51,34.36a.78.78,0,0,1-1.17-.68V198.78a3,3,0,0,1,1.32-2.29l16.26-9.38a1.19,1.19,0,0,1,1.19-.06l0,0h0a1.23,1.23,0,0,1,.55.73l1.12,4.49.17.48a1.16,1.16,0,0,0,1.77.71l38.25-22.07a1,1,0,0,1,.87-.13l.05,0h0A1,1,0,0,1,317.08,172.17Z" style="opacity:0.30000000000000004"></path><polygon points="278.01 195.43 278.01 188.32 282.24 185.88 282.24 192.99 278.01 195.43" style="fill:#e0e0e0"></polygon><path d="M255.58,253.89l-.06,0-2-1.19a1,1,0,0,1-.36-.84V197.62a2.71,2.71,0,0,1,.39-1.3l2,1.16h0a2.68,2.68,0,0,0-.39,1.3v54.39A.77.77,0,0,0,255.58,253.89Z" style="opacity:0.5"></path><path d="M323.45,175.88a.94.94,0,0,0-.37-.84l-.09,0-1.91-1.12h0a.92.92,0,0,0-.93.09l-38.21,22-1.12-4.49a1.26,1.26,0,0,0-.55-.73h0l-2-1.16h0a1.19,1.19,0,0,0-1.21,0l-16.26,9.39a2.92,2.92,0,0,0-1.32,2.29v54.22a.92.92,0,0,0,.36.83h0l2,1.19h0a1,1,0,0,0,.9-.11l59.36-34.27a2.91,2.91,0,0,0,1.32-2.29Z" style="fill:#407BFF"></path><path d="M280.24,190.76a1.19,1.19,0,0,0-1.19.06l-16.26,9.38a2.78,2.78,0,0,0-.93,1l-2-1.15a2.7,2.7,0,0,1,.93-1l16.26-9.39a1.19,1.19,0,0,1,1.21,0h0Z" style="opacity:0.1"></path><path d="M323,175a1,1,0,0,0-.87.13l-38.25,22.07a1.16,1.16,0,0,1-1.77-.71l-.17-.48,38.21-22a1.21,1.21,0,0,1,.59-.18.75.75,0,0,1,.34.09h0Z" style="opacity:0.1"></path><path d="M323.45,175.88l0,45a2.92,2.92,0,0,1-1.32,2.29l-59.51,34.35a.78.78,0,0,1-1.17-.67v-54.4a2.68,2.68,0,0,1,.39-1.3,2.75,2.75,0,0,1,.93-1l16.26-9.39a1.16,1.16,0,0,1,1.19,0h0a1.25,1.25,0,0,1,.55.74l1.12,4.48.17.49a1.16,1.16,0,0,0,1.77.7l38.25-22.07A1,1,0,0,1,323,175l.05,0,0,0h0A.94.94,0,0,1,323.45,175.88Z" style="fill:#407BFF"></path><path d="M323.45,175.88l0,45a2.92,2.92,0,0,1-1.32,2.29l-59.51,34.35a.78.78,0,0,1-1.17-.67v-54.4a2.68,2.68,0,0,1,.39-1.3,2.75,2.75,0,0,1,.93-1l16.26-9.39a1.16,1.16,0,0,1,1.19,0h0a1.25,1.25,0,0,1,.55.74l1.12,4.48.17.49a1.16,1.16,0,0,0,1.77.7l38.25-22.07A1,1,0,0,1,323,175l.05,0,0,0h0A.94.94,0,0,1,323.45,175.88Z" style="opacity:0.2"></path><polygon points="293.51 193.88 293.51 186.77 297.73 184.32 297.74 191.44 293.51 193.88" style="fill:#e6e6e6"></polygon><path d="M262,257.6l-.06,0-2-1.18a1,1,0,0,1-.36-.84V201.34a2.65,2.65,0,0,1,.39-1.3l2,1.15h0a2.64,2.64,0,0,0-.39,1.29v54.39A.77.77,0,0,0,262,257.6Z" style="opacity:0.4"></path><path d="M329.82,179.59a.92.92,0,0,0-.37-.83.37.37,0,0,0-.09-.06l-1.91-1.11h0a1,1,0,0,0-.93.1l-38.21,22-1.12-4.48a1.2,1.2,0,0,0-.55-.73h0l-2-1.15h0a1.15,1.15,0,0,0-1.21,0l-16.26,9.38a2.92,2.92,0,0,0-1.32,2.29v54.22a1,1,0,0,0,.36.84h0l2,1.18h0a.92.92,0,0,0,.9-.11l59.36-34.26a2.94,2.94,0,0,0,1.32-2.29Z" style="fill:#407BFF"></path><path d="M286.61,194.48a1.19,1.19,0,0,0-1.19.05l-16.26,9.38a2.87,2.87,0,0,0-.93,1l-2-1.15a2.7,2.7,0,0,1,.93-1l16.26-9.38a1.15,1.15,0,0,1,1.21,0h0Z" style="fill:#407BFF"></path><path d="M329.36,178.7a1,1,0,0,0-.87.13L290.24,200.9a1.16,1.16,0,0,1-1.77-.7l-.17-.49,38.21-22a1.11,1.11,0,0,1,.59-.18.74.74,0,0,1,.34.08h0Z" style="fill:#407BFF"></path><path d="M329.82,179.59l0,45a2.92,2.92,0,0,1-1.32,2.29L269,261.27a.78.78,0,0,1-1.17-.67V206.21a3,3,0,0,1,1.32-2.29l16.26-9.39a1.21,1.21,0,0,1,1.19-.05l0,0h0a1.2,1.2,0,0,1,.55.73l1.12,4.49.17.48a1.16,1.16,0,0,0,1.77.7l38.25-22.07a1,1,0,0,1,.87-.13l.05,0,0,0h0A.94.94,0,0,1,329.82,179.59Z" style="fill:#407BFF"></path><path d="M329.82,179.59l0,45a2.92,2.92,0,0,1-1.32,2.29L269,261.27a.78.78,0,0,1-1.17-.67V206.21a3,3,0,0,1,1.32-2.29l16.26-9.39a1.21,1.21,0,0,1,1.19-.05l0,0h0a1.2,1.2,0,0,1,.55.73l1.12,4.49.17.48a1.16,1.16,0,0,0,1.77.7l38.25-22.07a1,1,0,0,1,.87-.13l.05,0,0,0h0A.94.94,0,0,1,329.82,179.59Z" style="opacity:0.1"></path><polygon points="309 192.32 309.01 185.21 313.23 182.77 313.23 189.88 309 192.32" style="fill:#f0f0f0"></polygon><path d="M268.32,261.32l-.06,0-2-1.19a1,1,0,0,1-.36-.84V205.05a2.71,2.71,0,0,1,.39-1.3l2,1.15h0a2.68,2.68,0,0,0-.39,1.3V260.6A.8.8,0,0,0,268.32,261.32Z" style="opacity:0.30000000000000004"></path><path d="M336.19,183.3a.94.94,0,0,0-.36-.83l-.1-.06-1.91-1.11h0a.92.92,0,0,0-.93.09l-38.21,22-1.12-4.49a1.23,1.23,0,0,0-.55-.73h0l-2-1.16h0a1.17,1.17,0,0,0-1.21,0l-16.26,9.39a2.91,2.91,0,0,0-1.32,2.28V263a1,1,0,0,0,.36.84h0l2,1.19h0a.94.94,0,0,0,.9-.11l59.36-34.27a2.92,2.92,0,0,0,1.32-2.29Z" style="fill:#407BFF"></path><path d="M293,198.19a1.21,1.21,0,0,0-1.19.05l-16.26,9.39a2.7,2.7,0,0,0-.93,1l-2-1.16a2.78,2.78,0,0,1,.93-1l16.26-9.38a1.19,1.19,0,0,1,1.21,0h0Z" style="fill:#fff;opacity:0.5"></path><path d="M335.73,182.41a1,1,0,0,0-.87.13l-38.25,22.07a1.16,1.16,0,0,1-1.77-.7l-.17-.48,38.21-22a1.21,1.21,0,0,1,.59-.18.64.64,0,0,1,.34.09h0Z" style="fill:#fff;opacity:0.5"></path><path d="M336.19,183.31l0,45a2.91,2.91,0,0,1-1.32,2.29L275.38,265a.78.78,0,0,1-1.17-.68V209.92a3,3,0,0,1,1.32-2.29l16.26-9.38a1.19,1.19,0,0,1,1.19-.06l0,0h0a1.23,1.23,0,0,1,.55.73l1.12,4.49.17.48a1.16,1.16,0,0,0,1.77.71l38.25-22.08a1,1,0,0,1,.87-.12l0,0h.05A1,1,0,0,1,336.19,183.31Z" style="fill:#407BFF"></path><polygon points="324.5 190.76 324.5 183.66 328.73 181.21 328.73 188.32 324.5 190.76" style="fill:#fafafa"></polygon><path d="M274.69,265l-.06,0-2-1.19a1,1,0,0,1-.36-.84V208.76a2.71,2.71,0,0,1,.39-1.3l2,1.16h0a2.68,2.68,0,0,0-.39,1.3v54.39A.77.77,0,0,0,274.69,265Z" style="opacity:0.2"></path><polygon points="279.05 226.76 241.53 205.12 241.52 246.52 279.04 268.17 279.05 226.76" style="fill:#37474f"></polygon><polygon points="244.15 203.6 241.52 205.11 279.05 226.76 281.67 225.25 244.15 203.6" style="fill:#455a64"></polygon><polygon points="278.29 224.45 345.91 185.41 345.91 232.41 278.29 271.45 278.29 224.45" style="fill:#455a64"></polygon><path d="M304.8,217.11l11.5-6.64c1.49-.86,2.7-.46,2.7.88a5.41,5.41,0,0,1-2.7,4L304.79,222c-1.49.86-2.7.47-2.7-.88A5.41,5.41,0,0,1,304.8,217.11Z" style="fill:#263238"></path><polygon points="278.29 224.45 276.04 223.15 276.04 270.15 278.29 271.45 278.29 224.45" style="fill:#263238"></polygon><polygon points="276.04 223.15 343.66 184.11 345.91 185.41 278.29 224.45 276.04 223.15" style="fill:#37474f"></polygon></g></g></g><g id="freepik--Boxes--inject-2"><g id="freepik--Box--inject-2"><polygon points="134.84 400.44 134.84 357.37 190.8 325.06 190.8 368.13 134.84 400.44" style="fill:#407BFF"></polygon><polygon points="134.84 357.37 64.9 316.98 64.9 360.06 134.84 400.44 134.84 357.37" style="fill:#407BFF"></polygon><polygon points="134.84 357.37 64.9 316.98 64.9 360.06 134.84 400.44 134.84 357.37" style="opacity:0.15"></polygon><polygon points="134.84 357.37 192.46 324.09 120.85 282.74 63.24 316.02 134.84 357.37" style="fill:#407BFF"></polygon><polygon points="134.84 357.37 192.46 324.09 120.85 282.74 63.24 316.02 134.84 357.37" style="fill:#fff;opacity:0.45"></polygon><polygon points="134.84 357.37 134.84 368.14 192.46 334.87 192.46 324.09 134.84 357.37" style="fill:#407BFF"></polygon><polygon points="134.84 368.14 190.8 335.83 190.8 338.2 134.84 370.5 134.84 368.14" style="opacity:0.2"></polygon><polygon points="63.24 316.02 134.84 357.37 134.84 368.14 63.24 326.79 63.24 316.02" style="fill:#407BFF"></polygon><polygon points="63.24 316.02 134.84 357.37 134.84 368.14 63.24 326.79 63.24 316.02" style="opacity:0.2"></polygon><polygon points="134.84 368.14 64.9 327.75 64.9 330.12 134.84 370.5 134.84 368.14" style="opacity:0.2"></polygon><path d="M153.27,363.91l19.11-11c.82-.48,1.49-.09,1.49.86V365a3.29,3.29,0,0,1-1.49,2.58l-19.11,11c-.83.47-1.5.09-1.5-.86V366.5A3.29,3.29,0,0,1,153.27,363.91Z" style="fill:#455a64"></path><path d="M154.49,365.19l16.67-9.62c.54-.31,1-.06,1,.58v8.47a2.23,2.23,0,0,1-1,1.72L154.49,376c-.55.32-1,.06-1-.57v-8.47A2.2,2.2,0,0,1,154.49,365.19Z" style="fill:#f5f5f5"></path><g style="opacity:0.5"><path d="M155,367.43a.22.22,0,0,1-.2-.12.24.24,0,0,1,.08-.33l15.74-9.08a.24.24,0,0,1,.33.08.25.25,0,0,1-.09.34l-15.73,9.08A.28.28,0,0,1,155,367.43Z" style="fill:#455a64"></path><path d="M155,369.51a.22.22,0,0,1-.2-.12.24.24,0,0,1,.08-.33L170.57,360a.24.24,0,0,1,.33.08.25.25,0,0,1-.09.34l-15.73,9.08A.28.28,0,0,1,155,369.51Z" style="fill:#455a64"></path><path d="M155,371.59a.22.22,0,0,1-.2-.12.24.24,0,0,1,.08-.33l15.74-9.08a.24.24,0,0,1,.33.08.25.25,0,0,1-.09.34l-15.73,9.08A.28.28,0,0,1,155,371.59Z" style="fill:#455a64"></path><path d="M155,373.67a.22.22,0,0,1-.2-.12.24.24,0,0,1,.08-.33l15.74-9.08a.24.24,0,0,1,.24.42l-15.73,9.08A.28.28,0,0,1,155,373.67Z" style="fill:#455a64"></path></g></g><polygon id="freepik--shadow--inject-2" points="187.78 321.39 134.84 351.95 67.92 313.29 66.28 314.26 134.84 353.71 189.43 322.34 187.78 321.39" style="opacity:0.1"></polygon><g id="freepik--box--inject-2"><polygon points="134.84 351.95 134.84 308.88 190.8 276.57 190.8 319.64 134.84 351.95" style="fill:#407BFF"></polygon><polygon points="134.84 308.88 64.9 268.49 64.9 311.57 134.84 351.95 134.84 308.88" style="fill:#407BFF"></polygon><polygon points="134.84 308.88 64.9 268.49 64.9 311.57 134.84 351.95 134.84 308.88" style="opacity:0.15"></polygon><polygon points="134.84 308.88 192.46 275.6 120.85 234.25 63.24 267.53 134.84 308.88" style="fill:#407BFF"></polygon><polygon points="134.84 308.88 192.46 275.6 120.85 234.25 63.24 267.53 134.84 308.88" style="fill:#fff;opacity:0.6000000000000001"></polygon><polygon points="134.84 308.88 134.84 319.64 192.46 286.38 192.46 275.6 134.84 308.88" style="fill:#407BFF"></polygon><polygon points="134.84 319.64 190.8 287.34 190.8 289.71 134.84 322.01 134.84 319.64" style="opacity:0.2"></polygon><polygon points="63.24 267.53 134.84 308.88 134.84 319.64 63.24 278.3 63.24 267.53" style="fill:#407BFF"></polygon><polygon points="63.24 267.53 134.84 308.88 134.84 319.64 63.24 278.3 63.24 267.53" style="opacity:0.2"></polygon><polygon points="134.84 319.64 64.9 279.26 64.9 281.63 134.84 322.01 134.84 319.64" style="opacity:0.2"></polygon><path d="M153.27,315.42l19.11-11c.82-.48,1.49-.09,1.49.86v11.3a3.29,3.29,0,0,1-1.49,2.58l-19.11,11c-.83.47-1.5.09-1.5-.86V318A3.29,3.29,0,0,1,153.27,315.42Z" style="fill:#455a64"></path><path d="M154.49,316.7l16.67-9.62c.54-.31,1-.06,1,.58v8.47a2.23,2.23,0,0,1-1,1.72l-16.67,9.62c-.55.32-1,.06-1-.57v-8.47A2.2,2.2,0,0,1,154.49,316.7Z" style="fill:#f5f5f5"></path><g style="opacity:0.5"><path d="M155,318.94a.22.22,0,0,1-.2-.12.24.24,0,0,1,.08-.33l15.74-9.08a.24.24,0,0,1,.33.08.23.23,0,0,1-.09.33l-15.73,9.09A.28.28,0,0,1,155,318.94Z" style="fill:#455a64"></path><path d="M155,321a.22.22,0,0,1-.2-.12.24.24,0,0,1,.08-.33l15.74-9.08a.24.24,0,0,1,.33.08.25.25,0,0,1-.09.34L155.08,321A.28.28,0,0,1,155,321Z" style="fill:#455a64"></path><path d="M155,323.1a.22.22,0,0,1-.2-.12.24.24,0,0,1,.08-.33l15.74-9.08a.24.24,0,0,1,.33.08.25.25,0,0,1-.09.34l-15.73,9.08A.28.28,0,0,1,155,323.1Z" style="fill:#455a64"></path><path d="M155,325.18a.22.22,0,0,1-.2-.12.24.24,0,0,1,.08-.33l15.74-9.08a.24.24,0,0,1,.24.42l-15.73,9.08A.28.28,0,0,1,155,325.18Z" style="fill:#455a64"></path></g></g></g></svg>