<svg xmlns="http://www.w3.org/2000/svg" viewBox="0 0 500 500"><g id="freepik--Floor--inject-22"><path d="M471.59,476.23c0,.14-96.54.26-215.59.26s-215.6-.12-215.6-.26S136.91,476,256,476,471.59,476.08,471.59,476.23Z" style="fill:#263238"></path></g><g id="freepik--DNA--inject-22"><path d="M120,443.81,21.14,16.26H358.39L260.07,443.81C260.07,446.27,146.16,453.66,120,443.81Z" style="fill:#FF725E"></path><g style="opacity:0.9500000000000001"><path d="M120,443.81,21.14,16.26H358.39L260.07,443.81C260.07,446.27,146.16,453.66,120,443.81Z" style="fill:#fff"></path></g><path d="M294,255.16c8.34-18.65-1.67-43.27-20.65-50.82-10.23-4.06-22.34-3.77-31.1-10.44-9.39-7.17-12-20.4-10.69-32.14s5.77-22.91,7.73-34.56.9-24.8-7.2-33.41c-7.39-7.85-19.47-10.16-29.93-7.5s-19.4,9.62-26.38,17.84a82.67,82.67,0,0,0-19.47,50.09c-.65,17.65,4.38,34.94,7.65,52.29s4.64,36-2.83,52c-9.15,19.59-30.68,33.35-33.32,54.8-2.17,17.67,9.57,34.81,7.61,52.51-1.43,12.94-9.9,23.82-15.69,35.49s-.13,26.15.28,42.47c0,0,4.15,4.65,38.59,4.72s100.18-.75,101.52-4.72c8.56-25.44,20.84-81.75,12.75-107.33-3.47-11-10.07-21.56-9.18-33.06C265.14,284.2,286.08,272.76,294,255.16Z" style="fill:#FF725E"></path><g style="opacity:0.9"><path d="M294,255.16c8.34-18.65-1.67-43.27-20.65-50.82-10.23-4.06-22.34-3.77-31.1-10.44-9.39-7.17-12-20.4-10.69-32.14s5.77-22.91,7.73-34.56.9-24.8-7.2-33.41c-7.39-7.85-19.47-10.16-29.93-7.5s-19.4,9.62-26.38,17.84a82.67,82.67,0,0,0-19.47,50.09c-.65,17.65,4.38,34.94,7.65,52.29s4.64,36-2.83,52c-9.15,19.59-30.68,33.35-33.32,54.8-2.17,17.67,9.57,34.81,7.61,52.51-1.43,12.94-9.9,23.82-15.69,35.49s-.13,26.15.28,42.47c0,0,4.15,4.65,38.59,4.72s100.18-.75,101.52-4.72c8.56-25.44,20.84-81.75,12.75-107.33-3.47-11-10.07-21.56-9.18-33.06C265.14,284.2,286.08,272.76,294,255.16Z" style="fill:#fff"></path></g><path d="M107.19,273.19c-6.93-5.88-6.29-17-2.34-25.21s10.43-15,14-23.34a38.88,38.88,0,0,0-7-40.87c-3.87-4.18-8.73-7.55-11.59-12.47-6.63-11.42-.4-27-6.72-38.57-7.27-13.32-28.12-15.92-32.75-30.36-2.76-8.62,2.3-18.58,10.35-22.69s18.18-2.88,25.91,1.81,13.27,12.41,16.8,20.74a63.73,63.73,0,0,1,3.34,39.16c-2.37,10.13-7.13,21.3-1.91,30.3s17.47,10.77,24.09,18.6,5.9,19.13,3.81,29a138.21,138.21,0,0,1-17,43.07c-2.26,3.74-4.84,7.51-8.66,9.64s-9.18,2.1-12.06-1.19" style="fill:#FF725E"></path><path d="M237.52,16.26a53.57,53.57,0,0,1,13.3,39.6c-.54,6.57-2.29,13.3-.42,19.61,2,6.75,7.89,11.78,14.38,14.51,19,8,42.06-2.15,53.93-19S333.4,36.85,332.4,16.26Z" style="fill:#FF725E"></path><g style="opacity:0.9"><path d="M107.19,273.19c-6.93-5.88-6.29-17-2.34-25.21s10.43-15,14-23.34a38.88,38.88,0,0,0-7-40.87c-3.87-4.18-8.73-7.55-11.59-12.47-6.63-11.42-.4-27-6.72-38.57-7.27-13.32-28.12-15.92-32.75-30.36-2.76-8.62,2.3-18.58,10.35-22.69s18.18-2.88,25.91,1.81,13.27,12.41,16.8,20.74a63.73,63.73,0,0,1,3.34,39.16c-2.37,10.13-7.13,21.3-1.91,30.3s17.47,10.77,24.09,18.6,5.9,19.13,3.81,29a138.21,138.21,0,0,1-17,43.07c-2.26,3.74-4.84,7.51-8.66,9.64s-9.18,2.1-12.06-1.19" style="fill:#fff"></path></g><g style="opacity:0.9"><path d="M237.52,16.26a53.57,53.57,0,0,1,13.3,39.6c-.54,6.57-2.29,13.3-.42,19.61,2,6.75,7.89,11.78,14.38,14.51,19,8,42.06-2.15,53.93-19S333.4,36.85,332.4,16.26Z" style="fill:#fff"></path></g><path d="M256.9,218.13a2.77,2.77,0,1,1-2.77-2.77A2.78,2.78,0,0,1,256.9,218.13Z" style="fill:#FF725E"></path><path d="M219.93,390.34a2.78,2.78,0,1,1-2.78-2.78A2.78,2.78,0,0,1,219.93,390.34Z" style="fill:#FF725E"></path><path d="M193.33,181.78a4.89,4.89,0,1,1-4.88-4.88A4.89,4.89,0,0,1,193.33,181.78Z" style="fill:#FF725E"></path><path d="M181.12,276.64a4.89,4.89,0,1,1-4.88-4.89A4.88,4.88,0,0,1,181.12,276.64Z" style="fill:#FF725E"></path><path d="M219.69,53.14a2.78,2.78,0,1,1-2.78-2.77A2.79,2.79,0,0,1,219.69,53.14Z" style="fill:#FF725E"></path><path d="M295.25,126a2.78,2.78,0,1,1-2.78-2.77A2.79,2.79,0,0,1,295.25,126Z" style="fill:#FF725E"></path><path d="M87.19,164.06a2.78,2.78,0,1,1-2.77-2.78A2.77,2.77,0,0,1,87.19,164.06Z" style="fill:#FF725E"></path><path d="M267.45,150.33a6.29,6.29,0,1,1-6.28-6.29A6.28,6.28,0,0,1,267.45,150.33Z" style="fill:#FF725E"></path><circle cx="138.29" cy="60.24" r="11.26" transform="translate(-6.31 17.3) rotate(-7)" style="fill:#FF725E"></circle><g style="opacity:0.6000000000000001"><path d="M256.9,218.13a2.77,2.77,0,1,1-2.77-2.77A2.78,2.78,0,0,1,256.9,218.13Z" style="fill:#fff"></path><path d="M219.93,390.34a2.78,2.78,0,1,1-2.78-2.78A2.78,2.78,0,0,1,219.93,390.34Z" style="fill:#fff"></path><path d="M193.33,181.78a4.89,4.89,0,1,1-4.88-4.88A4.89,4.89,0,0,1,193.33,181.78Z" style="fill:#fff"></path><path d="M181.12,276.64a4.89,4.89,0,1,1-4.88-4.89A4.88,4.88,0,0,1,181.12,276.64Z" style="fill:#fff"></path></g><g style="opacity:0.8"><path d="M219.69,53.14a2.78,2.78,0,1,1-2.78-2.77A2.79,2.79,0,0,1,219.69,53.14Z" style="fill:#fff"></path></g><g style="opacity:0.8"><path d="M295.25,126a2.78,2.78,0,1,1-2.78-2.77A2.79,2.79,0,0,1,295.25,126Z" style="fill:#fff"></path></g><g style="opacity:0.8"><path d="M87.19,164.06a2.78,2.78,0,1,1-2.77-2.78A2.77,2.77,0,0,1,87.19,164.06Z" style="fill:#fff"></path></g><g style="opacity:0.8"><path d="M267.45,150.33a6.29,6.29,0,1,1-6.28-6.29A6.28,6.28,0,0,1,267.45,150.33Z" style="fill:#fff"></path></g><g style="opacity:0.8"><circle cx="138.29" cy="60.24" r="11.26" transform="translate(-6.31 17.3) rotate(-7)" style="fill:#fff"></circle></g><path d="M241.35,88.77,213,69.94l-18.46,9.42s39,17.62,44.13,31.18L247,96.34Z" style="fill:#FF725E"></path><g style="opacity:0.30000000000000004"><path d="M241.35,88.77,213,69.94l-18.46,9.42s39,17.62,44.13,31.18L247,96.34Z"></path></g><path d="M140.51,372.92c5.56,7.15,14.05,15.33,23.61,23.91l19.8-6.11s-35.41-24.05-38.13-38.28L136,363.56Z" style="fill:#FF725E"></path><g style="opacity:0.30000000000000004"><path d="M140.51,372.92c3.83,5.47,13.67,14.66,23.61,23.91l19.8-6.11s-35.41-24.05-38.13-38.28L136,363.56Z"></path></g><path d="M142,94.51a37.91,37.91,0,0,0,11.7,23.4c17.78,17,88,42.63,94,58.3s-7.94,29.47-7.94,29.47,5.23-11.92-10.86-23-61.68-32.85-69.38-38.45c-8.25-6-20.1-10.27-24-25.91S142,94.51,142,94.51Z" style="fill:#FF725E"></path><path d="M142,177.48a37.94,37.94,0,0,0,11.7,23.41c17.78,17,88,42.62,94,58.29s-7.94,29.47-7.94,29.47,5.23-11.91-10.86-23-61.68-32.85-69.38-38.45c-8.25-6-20.1-10.27-24-25.91S142,177.48,142,177.48Z" style="fill:#FF725E"></path><path d="M143.41,257.05a37.94,37.94,0,0,0,11.7,23.41c17.77,17,88,42.62,94,58.3s-7.94,29.46-7.94,29.46,5.22-11.91-10.87-23S168.66,312.38,161,306.79c-8.25-6-20.1-10.28-24-25.91S143.41,257.05,143.41,257.05Z" style="fill:#FF725E"></path><g style="opacity:0.30000000000000004"><path d="M142,177.48a37.94,37.94,0,0,0,11.7,23.41c17.78,17,88,42.62,94,58.29s-7.94,29.47-7.94,29.47,5.23-11.91-10.86-23-61.68-32.85-69.38-38.45c-8.25-6-20.1-10.27-24-25.91S142,177.48,142,177.48Z"></path></g><g style="opacity:0.30000000000000004"><path d="M143.41,257.05a37.94,37.94,0,0,0,11.7,23.41c17.77,17,88,42.62,94,58.3s-7.94,29.46-7.94,29.46,5.22-11.91-10.87-23S168.66,312.38,161,306.79c-8.25-6-20.1-10.28-24-25.91S143.41,257.05,143.41,257.05Z"></path></g><rect x="155.05" y="291.38" width="69.94" height="7.57" rx="2.91" style="fill:#455a64"></rect><rect x="135.54" y="273.16" width="108.96" height="7.57" rx="2.91" style="fill:#455a64"></rect><rect x="139.57" y="257.05" width="91.16" height="7.57" rx="2.91" style="fill:#455a64"></rect><rect x="160.07" y="239.07" width="53.44" height="7.57" rx="2.91" style="fill:#455a64"></rect><path d="M186.12,247a30.13,30.13,0,0,1,0-7.9,30.13,30.13,0,0,1,0,7.9Z" style="fill:#263238"></path><g style="opacity:0.30000000000000004"><path d="M142,94.51a37.91,37.91,0,0,0,11.7,23.4c17.78,17,88,42.63,94,58.3s-7.94,29.47-7.94,29.47,5.23-11.92-10.86-23-61.68-32.85-69.38-38.45c-8.25-6-20.1-10.27-24-25.91S142,94.51,142,94.51Z"></path></g><rect x="147.91" y="125.83" width="69.94" height="7.57" rx="2.91" style="fill:#455a64"></rect><rect x="135.54" y="106.75" width="108.96" height="7.57" rx="2.91" style="fill:#455a64"></rect><rect x="139.57" y="88.77" width="91.16" height="7.57" rx="2.91" style="fill:#455a64"></rect><rect x="157.03" y="326" width="69.94" height="7.57" rx="2.91" transform="translate(384.01 659.57) rotate(180)" style="fill:#455a64"></rect><rect x="139.57" y="345.08" width="99.77" height="7.57" rx="2.91" transform="translate(378.92 697.73) rotate(180)" style="fill:#455a64"></rect><rect x="140.96" y="363.06" width="101.49" height="7.57" rx="2.91" transform="translate(383.4 733.69) rotate(180)" style="fill:#455a64"></rect><rect x="147.91" y="208.76" width="69.94" height="7.57" rx="2.91" style="fill:#455a64"></rect><rect x="135.54" y="189.68" width="108.96" height="7.57" rx="2.91" style="fill:#455a64"></rect><rect x="139.57" y="171.69" width="91.16" height="7.57" rx="2.91" style="fill:#455a64"></rect><rect x="160.07" y="153.71" width="53.44" height="7.57" rx="2.91" style="fill:#455a64"></rect><path d="M239.38,87.5s9.82,5.06,9.35,19.06S241.9,128,235.89,132.71c-22.18,17.47-81.95,32.22-92.22,52.53s-2.38,27.95-2.38,27.95-10.35-11.38-10.5-24c0-2.48-.18-3.65-.11-5.84.28-8.91,4-16.75,12.89-23.31,11-8.14,60.1-31.54,60.1-31.54s27.78-11.91,33.85-22.41S239.38,87.5,239.38,87.5Z" style="fill:#FF725E"></path><path d="M140.82,129.62c-12.43-34.88,39.3-51.9,39.3-51.9l-2.41-20.44s-39.9,16.13-44.91,36.6a53.56,53.56,0,0,0-1.17,15.34,34.68,34.68,0,0,0,5.76,16.61,16.84,16.84,0,0,0,2.76,3.19Z" style="fill:#FF725E"></path><path d="M245.17,333.44c12.43,34.88-41.28,49.61-41.28,49.61l2.41,20.45s37.21-17,44.91-36.61A43.55,43.55,0,0,0,253.66,352c.12-9.75-4.34-13.22-8.49-18.6Z" style="fill:#FF725E"></path><path d="M243.24,170.42s9.29,4.75,8.82,18.75-6.83,21.42-12.84,26.15c-15.39,12.13-49.52,22.9-72,35.38-9.92,5.51-17.05,11.66-20.2,17.88-10.27,20.31-2.12,26.59-2.12,26.59s-10.51-9.81-10.27-22.42c0-2.09-.55-4.31-.48-6.19.33-9.44,3-15.89,11.45-23,10.46-8.82,61.4-32.45,61.4-32.45s27.79-11.91,33.86-22.41S243.24,170.42,243.24,170.42Z" style="fill:#FF725E"></path><path d="M243.24,252.89s9.29,4.75,8.82,18.75-6.83,21.42-12.84,26.15c-8.74,6.89-23.14,13.62-38.28,20.12-10.48,4.49-21.45,8.68-30.59,13.51s-16.61,10.47-20.93,15.91a27.32,27.32,0,0,0-2.66,3.91c-10.27,20.32-2,26.92-2,26.92s-7.77-6.94-10.26-21.09a43.12,43.12,0,0,1-.3-8.56c.38-9,2.55-15.85,11.43-22.47a87.85,87.85,0,0,1,9.4-6.34c18.31-10.39,52-26.11,52-26.11s27.79-11.91,33.86-22.41S243.24,252.89,243.24,252.89Z" style="fill:#FF725E"></path><path d="M186.63,96.5a15.43,15.43,0,0,1-.26-4,15.32,15.32,0,0,1,.26-3.94,14.8,14.8,0,0,1,.26,3.94A14.91,14.91,0,0,1,186.63,96.5Z" style="fill:#263238"></path><path d="M186.63,114.63a15.32,15.32,0,0,1-.26-3.94,15.43,15.43,0,0,1,.26-4,14.91,14.91,0,0,1,.26,4A14.8,14.8,0,0,1,186.63,114.63Z" style="fill:#263238"></path><path d="M186.63,133.87a15.38,15.38,0,0,1-.26-3.94,15.37,15.37,0,0,1,.26-4,14.85,14.85,0,0,1,.26,4A14.86,14.86,0,0,1,186.63,133.87Z" style="fill:#263238"></path><path d="M186.12,179.59a14.91,14.91,0,0,1-.26-4,14.91,14.91,0,0,1,.26-3.95,15.43,15.43,0,0,1,.26,3.95A15.43,15.43,0,0,1,186.12,179.59Z" style="fill:#263238"></path><path d="M186.63,196.91a15.32,15.32,0,0,1-.26-3.94,15.43,15.43,0,0,1,.26-3.95,14.91,14.91,0,0,1,.26,3.95A14.8,14.8,0,0,1,186.63,196.91Z" style="fill:#263238"></path><path d="M186.79,216.49a30.13,30.13,0,0,1,0-7.9,30.13,30.13,0,0,1,0,7.9Z" style="fill:#263238"></path><path d="M186.12,264.79a30.13,30.13,0,0,1,0-7.9,30.13,30.13,0,0,1,0,7.9Z" style="fill:#263238"></path><path d="M186.79,280.89a30.06,30.06,0,0,1,0-7.89,30.06,30.06,0,0,1,0,7.89Z" style="fill:#263238"></path><path d="M188.18,299.11a30.06,30.06,0,0,1,0-7.89,30.06,30.06,0,0,1,0,7.89Z" style="fill:#263238"></path><path d="M187.51,352.81a30.06,30.06,0,0,1,0-7.89,30.06,30.06,0,0,1,0,7.89Z" style="fill:#263238"></path><path d="M189.46,333.53a30.06,30.06,0,0,1,0-7.89,30.06,30.06,0,0,1,0,7.89Z" style="fill:#263238"></path><path d="M188.18,370.79a30.06,30.06,0,0,1,0-7.89,30.06,30.06,0,0,1,0,7.89Z" style="fill:#263238"></path><path d="M226.4,116.42a3.2,3.2,0,0,1-.36.22l-1.06.62c-.93.53-2.31,1.33-4.11,2.31-3.58,2-8.81,4.76-15.33,8.09-13,6.68-31.32,15.31-50.88,26.1-4.92,2.63-9.77,5.17-13.79,8.55a27,27,0,0,0-8.31,12.31,33.7,33.7,0,0,0-1.5,6.84,43.42,43.42,0,0,0-.14,6.62,47.73,47.73,0,0,0,2.29,11.67,34.24,34.24,0,0,0,4.34,8.78,43.16,43.16,0,0,0,4.73,5.72c1.42,1.48,2.59,2.56,3.36,3.3l.89.84.3.3a1.76,1.76,0,0,1-.33-.26l-.93-.8c-.8-.72-2-1.78-3.43-3.23a42.81,42.81,0,0,1-4.83-5.7,34.27,34.27,0,0,1-4.45-8.84,47.57,47.57,0,0,1-2.37-11.75,43.14,43.14,0,0,1,.12-6.7,33.66,33.66,0,0,1,1.5-6.95,27.49,27.49,0,0,1,8.43-12.54c4.08-3.43,9-6,13.88-8.62,19.56-10.79,37.89-19.38,51-26,6.54-3.28,11.8-6,15.41-7.94l4.15-2.22,1.09-.57A1.63,1.63,0,0,1,226.4,116.42Z" style="fill:#263238"></path><path d="M239.86,129.13s-.06.09-.21.25l-.65.69-1.09,1.1-1.59,1.38A79,79,0,0,1,225.15,140c-9.85,5.67-24.25,11.92-40.18,18.62A217.29,217.29,0,0,0,162.92,169c-6.51,3.67-11.93,7.79-15.6,12.1a34.22,34.22,0,0,0-6.71,11.46,20.75,20.75,0,0,0-.62,2c-.17.59-.29,1.09-.37,1.5s-.15.69-.21.92a1.55,1.55,0,0,1-.09.32,24.5,24.5,0,0,1,1.09-4.81,33.64,33.64,0,0,1,6.64-11.63c3.65-4.38,9.11-8.57,15.64-12.27a209.12,209.12,0,0,1,22.07-10.39c15.94-6.7,30.34-12.89,40.21-18.46a83,83,0,0,0,11.22-7.3c.6-.5,1.15-.94,1.62-1.34s.81-.76,1.11-1.06l.7-.65Z" style="fill:#263238"></path><path d="M247.45,115.57a2.58,2.58,0,0,1,.11-.63l.39-1.78a33.64,33.64,0,0,0,.69-6.61,28.9,28.9,0,0,0-1.75-9.64A16.5,16.5,0,0,0,244,92a31.57,31.57,0,0,0-4.62-4.17c-6.8-5.27-13.82-8.86-18.25-12.42-2.27-1.68-4.09-3.06-5.4-3.94a11.37,11.37,0,0,0-1.54-.94c-.37-.2-.59-.19-.58-.23s.05,0,.16,0a1.64,1.64,0,0,1,.46.13,10,10,0,0,1,1.61.87c1.35.83,3.21,2.17,5.51,3.82,4.46,3.46,11.49,7,18.34,12.3a30.94,30.94,0,0,1,4.7,4.25,16.81,16.81,0,0,1,3,5.11,28.52,28.52,0,0,1,1.67,9.81,31.1,31.1,0,0,1-.86,6.66c-.2.77-.36,1.36-.49,1.76A4.17,4.17,0,0,1,247.45,115.57Z" style="fill:#263238"></path><path d="M229.9,198.89s-.12.08-.35.23l-1.07.63c-.94.54-2.32,1.35-4.12,2.35-3.6,2-8.86,4.85-15.44,8.19s-14.5,7.15-23.27,11.41-18.35,9.08-28.18,14.55c-4.93,2.68-9.74,5.41-13.65,9a27.53,27.53,0,0,0-8,12.65,36.17,36.17,0,0,0-1.29,13.62,41.92,41.92,0,0,0,2.62,11.67,30.8,30.8,0,0,0,2.44,4.61,37.25,37.25,0,0,0,2.82,3.72,67.32,67.32,0,0,0,5.26,5.34l3.52,3.2.9.84a2.16,2.16,0,0,1,.3.3l-.33-.26-.94-.81c-.83-.71-2-1.74-3.58-3.12a62.36,62.36,0,0,1-5.35-5.3,35.44,35.44,0,0,1-2.88-3.73,30.46,30.46,0,0,1-2.5-4.65,34.07,34.07,0,0,1-1.72-5.56,44.17,44.17,0,0,1-1-6.22,36.48,36.48,0,0,1,1.27-13.79,27.93,27.93,0,0,1,8.13-12.89c4-3.61,8.81-6.36,13.74-9.05,9.84-5.47,19.44-10.27,28.22-14.52s16.72-8,23.31-11.31,11.88-6.07,15.51-8l4.17-2.28,1.09-.58A2.24,2.24,0,0,1,229.9,198.89Z" style="fill:#263238"></path><path d="M243.37,211.6a2.58,2.58,0,0,1-.21.25l-.66.69-1.08,1.1-1.6,1.38a78.1,78.1,0,0,1-11.17,7.46c-9.85,5.67-24.25,11.92-40.18,18.62a216.13,216.13,0,0,0-22.05,10.33c-6.51,3.66-11.93,7.78-15.59,12.09A34.11,34.11,0,0,0,144.11,275c-.27.74-.46,1.42-.62,2s-.29,1.08-.37,1.49l-.21.92a1.29,1.29,0,0,1-.08.32,24.5,24.5,0,0,1,1.09-4.81,33.58,33.58,0,0,1,6.63-11.63c3.66-4.38,9.11-8.57,15.64-12.27a208.38,208.38,0,0,1,22.08-10.39c15.93-6.7,30.33-12.89,40.2-18.46a83,83,0,0,0,11.22-7.3l1.62-1.33,1.12-1.07.69-.65Z" style="fill:#263238"></path><path d="M251,198a2.58,2.58,0,0,1,.12-.65c.1-.47.23-1.08.4-1.84a33.14,33.14,0,0,0,.67-6.84,28,28,0,0,0-2-9.92,16.27,16.27,0,0,0-3.25-5,39.91,39.91,0,0,0-4.91-4.2c-3.54-2.69-7-5.17-10.22-7.27s-6.29-3.77-8.83-5.21l-6-3.37-1.64-.92-.25-.14-.09-.06s0,0,0,0h0s0-.07,0,0h0l0,0,.13.11s-.06,0-.16-.06l0,0h0s0,0,0-.06h.05l.11,0,.26.11,1.69.84c1.45.74,3.55,1.84,6.12,3.23s5.65,3,8.91,5.12,6.73,4.56,10.28,7.27a38.81,38.81,0,0,1,5,4.26,16.86,16.86,0,0,1,3.33,5.13,28,28,0,0,1,1.91,10.11,30.16,30.16,0,0,1-.85,6.89c-.19.79-.36,1.41-.49,1.82A3.32,3.32,0,0,1,251,198Z" style="fill:#263238"></path><path d="M229.79,281.64l-.35.23-1.06.62c-.94.54-2.3,1.35-4.09,2.34-3.58,2-8.8,4.82-15.33,8.13s-14.38,7.1-23.09,11.33-18.21,9-28,14.41c-4.89,2.67-9.69,5.33-13.64,8.78A27.64,27.64,0,0,0,136,339.82a33.3,33.3,0,0,0-1.51,6.85,43.4,43.4,0,0,0-.14,6.62A47.63,47.63,0,0,0,136.6,365a34.31,34.31,0,0,0,4.34,8.79,43.82,43.82,0,0,0,4.73,5.72c1.42,1.48,2.58,2.56,3.36,3.3l.89.84.3.3a1.76,1.76,0,0,1-.33-.26l-.93-.8c-.8-.72-2-1.78-3.43-3.24a42.17,42.17,0,0,1-4.83-5.7,34.19,34.19,0,0,1-4.45-8.83,47.65,47.65,0,0,1-2.37-11.76,43.14,43.14,0,0,1,.12-6.7,33.52,33.52,0,0,1,1.5-6.95,28.14,28.14,0,0,1,8.41-12.57c4-3.51,8.84-6.18,13.73-8.85,9.77-5.43,19.31-10.18,28-14.39s16.59-7.95,23.14-11.23,11.79-6,15.39-8l4.14-2.25,1.08-.58A1.63,1.63,0,0,1,229.79,281.64Z" style="fill:#263238"></path><path d="M243.25,294.35s-.06.09-.21.25l-.65.69-1.09,1.1-1.6,1.38a78.16,78.16,0,0,1-11.16,7.46c-9.85,5.67-24.25,11.92-40.18,18.62a217.29,217.29,0,0,0-22.05,10.32c-6.51,3.67-11.93,7.79-15.6,12.1A34.22,34.22,0,0,0,144,357.73a20.75,20.75,0,0,0-.62,2c-.17.59-.29,1.09-.37,1.5s-.16.69-.21.92a1.55,1.55,0,0,1-.09.32,24.5,24.5,0,0,1,1.09-4.81A33.75,33.75,0,0,1,150.43,346c3.66-4.38,9.12-8.57,15.64-12.27a210.27,210.27,0,0,1,22.08-10.39c15.94-6.7,30.34-12.89,40.21-18.46a83,83,0,0,0,11.22-7.3c.6-.5,1.15-.94,1.62-1.34l1.11-1.06.7-.65Z" style="fill:#263238"></path><path d="M250.84,280.79a2.58,2.58,0,0,1,.12-.65l.39-1.84a31.8,31.8,0,0,0,.67-6.84,28,28,0,0,0-2-9.93,16.54,16.54,0,0,0-3.25-5,40.67,40.67,0,0,0-4.91-4.2c-3.54-2.7-7-5.17-10.22-7.27s-6.29-3.77-8.83-5.21l-6-3.37-1.64-.92-.25-.15-.1,0h0s0-.07,0,0h0l0,0,.13.11s-.06,0-.16-.06l0,0h0s0,0,0-.06h.05l.11,0,.26.12c.39.18,1,.47,1.68.84,1.46.74,3.56,1.84,6.13,3.22s5.65,3,8.91,5.13,6.72,4.56,10.27,7.27a38.91,38.91,0,0,1,5,4.26,16.64,16.64,0,0,1,3.32,5.13,27.61,27.61,0,0,1,1.91,10.11,29.85,29.85,0,0,1-.84,6.89c-.19.79-.36,1.4-.49,1.82A4.59,4.59,0,0,1,250.84,280.79Z" style="fill:#263238"></path><path d="M85.39,476.23l16.42-32.58,171.77.32,20.57,32.18c-71.27,8.25-141.75,8.33-208.76.08" style="fill:#263238"></path><path d="M273.73,443.65c0,2.93-38.48,5.31-86,5.31s-86-2.38-86-5.31,38.49-5.3,86-5.3S273.73,440.73,273.73,443.65Z" style="fill:#455a64"></path><path d="M257.72,443.65c0,2.07-30.67,3.75-68.49,3.75s-68.48-1.68-68.48-3.75,30.66-3.74,68.48-3.74S257.72,441.58,257.72,443.65Z" style="fill:#fafafa"></path><path d="M192.56,483c-.14,0-.26-7.65-.26-17.09s.12-17.1.26-17.1.26,7.65.26,17.1S192.7,483,192.56,483Z" style="fill:#455a64"></path><path d="M280.25,456.66a3.44,3.44,0,0,1-.66.11l-1.91.22-7.15.72L246,460.06l.19-.12L241,468.23l-.07.12h-.15l-2,0-32.69.6-9.91.12H192.8l-.24,0a.75.75,0,0,1,.24,0l.7,0,2.69-.11,9.9-.29,32.68-.75,2,0-.21.12,5.15-8.28.07-.11h.12l24.58-2.16,7.16-.59,1.92-.13A4.23,4.23,0,0,1,280.25,456.66Z" style="fill:#455a64"></path><path d="M264.66,458.09a70,70,0,0,1-1.85-11.85,34.76,34.76,0,0,1,1.18,5.88A35.39,35.39,0,0,1,264.66,458.09Z" style="fill:#455a64"></path><path d="M126.34,480.05a2.59,2.59,0,0,1-.27-.66c-.18-.52-.39-1.15-.65-1.93l-2.21-6.92.19.16-11.83-1.15c-6-.6-11.46-1.18-15.4-1.62l-4.66-.55a12.26,12.26,0,0,1-1.7-.27,10.24,10.24,0,0,1,1.73.07l4.67.38c4,.35,9.4.87,15.41,1.47l11.82,1.23.15,0,0,.14c.83,2.83,1.52,5.21,2,7,.21.79.39,1.44.53,2A3,3,0,0,1,126.34,480.05Z" style="fill:#455a64"></path><path d="M192.56,456.66l-.2,0-.6,0-2.31,0-8.59.08-29.09.09.09,0-7.89,3-4.29,1.61-.06,0h-.06l-31.49-3.9-9.4-1.22L96.14,456l-.66-.11a.63.63,0,0,1-.22-.05h.23l.66.06,2.55.26,9.41,1.06L139.62,461l-.12,0,4.28-1.61,7.9-3h.09l29.09.08,8.59.08,2.31.05.6,0Z" style="fill:#455a64"></path></g><g id="freepik--Character--inject-22"><path d="M362.33,437.5l6.08,21.05s-19.36,13.25-18.62,17.25L391,465.48l-8.12-33.19Z" style="fill:#455a64"></path><path d="M380.71,453.58a1.72,1.72,0,0,1,1.65,1.63,1.67,1.67,0,0,1-1.6,1.64,1.83,1.83,0,0,1-1.73-1.74,1.72,1.72,0,0,1,1.85-1.52" style="fill:#e0e0e0"></path><g style="opacity:0.6000000000000001"><path d="M391,465.48l-1-3.31L350.9,473.3s-1.64,1.26-1.11,2.5Z" style="fill:#fff"></path></g><path d="M367.69,458.51c.05.2,1.08,0,2.24.44s1.89,1.11,2.06,1-.43-1.22-1.83-1.68S367.6,458.34,367.69,458.51Z" style="fill:#263238"></path><path d="M363.81,461.38c0,.21,1,.33,1.86,1s1.32,1.54,1.52,1.48,0-1.23-1.09-2.06S363.77,461.19,363.81,461.38Z" style="fill:#263238"></path><path d="M362.65,467.17c.19,0,.22-1.08-.57-2.05s-1.85-1.18-1.89-1,.69.64,1.33,1.45S362.44,467.2,362.65,467.17Z" style="fill:#263238"></path><path d="M366.84,453.56c.13.16,1-.35,2.14-.56s2.13-.07,2.19-.27-1-.7-2.33-.44S366.7,453.42,366.84,453.56Z" style="fill:#263238"></path><path d="M376.79,442.46l1,21.89s-21.93,8.32-22.15,12.39l42.51-.33L398,442.23Z" style="fill:#455a64"></path><path d="M390.88,462.4a1.74,1.74,0,0,1,1.21,2,1.67,1.67,0,0,1-1.94,1.22,1.85,1.85,0,0,1-1.28-2.1,1.74,1.74,0,0,1,2.17-1" style="fill:#e0e0e0"></path><g style="opacity:0.6000000000000001"><path d="M398.11,476.41,398,473l-40.71,1.61s-1.89.83-1.66,2.17Z" style="fill:#fff"></path></g><path d="M377.06,464.14c0,.2,1,.29,2.07.95s1.58,1.53,1.77,1.44-.13-1.28-1.39-2S377,464,377.06,464.14Z" style="fill:#263238"></path><path d="M372.61,466c0,.2.86.54,1.57,1.42s.92,1.8,1.13,1.79.33-1.19-.58-2.26S372.61,465.82,372.61,466Z" style="fill:#263238"></path><path d="M370.12,471.37c.19.05.47-1-.07-2.13s-1.52-1.57-1.6-1.4.51.78.95,1.71S369.91,471.35,370.12,471.37Z" style="fill:#263238"></path><path d="M377.39,459.12c.09.19,1-.1,2.21,0s2.1.43,2.2.25-.78-.91-2.16-1S377.29,459,377.39,459.12Z" style="fill:#263238"></path><path d="M403.09,282.26v17.31L398.44,367s2.89,32.71,4.67,51.18c1.54,16-1,44-1,44H375.07L365.39,369l-6-58.09-10.45-26.44Z" style="fill:#263238"></path><polygon points="330.42 285.34 337.01 379.36 364.39 449.8 365.65 454.05 381.81 450.14 369.79 283.44 330.42 285.34" style="fill:#263238"></polygon><path d="M359.45,311.62a2.29,2.29,0,0,0,0,.39q0,.42,0,1.14c0,1,.07,2.52.13,4.41.11,3.84.39,9.37.77,16.21.82,13.68,2.34,32.56,4.72,53.33s4.92,39.54,6.81,53.11c1,6.76,1.73,12.24,2.27,16.06.28,1.88.49,3.34.64,4.37.08.48.14.85.18,1.13a3.06,3.06,0,0,0,.08.39,1.87,1.87,0,0,0,0-.39c0-.29-.07-.66-.13-1.14-.12-1-.31-2.5-.54-4.38-.51-3.83-1.23-9.32-2.12-16.09-1.8-13.58-4.32-32.34-6.66-53.11s-3.95-39.63-4.86-53.3c-.43-6.83-.76-12.37-.93-16.19-.1-1.9-.18-3.37-.23-4.41,0-.48-.06-.86-.08-1.14A1.47,1.47,0,0,0,359.45,311.62Z" style="fill:#455a64"></path><path d="M357.74,288.08a1.39,1.39,0,1,0,1.39-1.39A1.39,1.39,0,0,0,357.74,288.08Z" style="fill:#455a64"></path><path d="M334,301.22a8.93,8.93,0,0,0,1.91-1.79,21.76,21.76,0,0,0,3.4-5.32A21.32,21.32,0,0,0,341,288a9.12,9.12,0,0,0,.07-2.61c-.09,0-.14,1-.42,2.56a24.9,24.9,0,0,1-5,11.23C334.59,300.46,333.89,301.16,334,301.22Z" style="fill:#455a64"></path><polygon points="355.53 182.83 345.47 184.89 312.39 202.98 310.21 218.65 344.43 215.81 345.23 224.55 355.53 182.83" style="fill:#e0e0e0"></polygon><path d="M383.4,172.69l2.47,5.33s24,11.79,23.95,13c0,0-1.54,45.52-1.79,78.67-.1,12.52.37,24,.62,29.56.66,14.51,1.17,70.87,1.17,70.87l-86.22-2,10.71-158.73,18.43-26.5,5.59-4.54Z" style="fill:#e0e0e0"></path><path d="M344.53,368.55a1.83,1.83,0,0,1,0-.38c0-.28,0-.66.05-1.13.05-1,.13-2.48.23-4.33.22-3.79.55-9.23.94-15.93.82-13.47,1.94-32,3.17-52.54s2.25-39.09,3-52.56c.36-6.7.65-12.14.85-15.93.11-1.86.19-3.31.25-4.33,0-.47.05-.85.07-1.13a1.65,1.65,0,0,1,.05-.38,2.29,2.29,0,0,1,0,.39c0,.28,0,.65,0,1.12,0,1-.08,2.48-.15,4.34-.13,3.76-.37,9.21-.68,15.94-.64,13.46-1.65,32-2.88,52.57s-2.41,39.09-3.32,52.53c-.47,6.7-.84,12.13-1.11,15.92-.14,1.86-.25,3.31-.33,4.33,0,.47-.07.84-.1,1.12A1.65,1.65,0,0,1,344.53,368.55Z" style="fill:#263238"></path><path d="M308.49,204.51l-8.26-18.22-19.05,7.58s5.6,15.91,6.69,19c2.78,7.94,6,16.43,11.35,17.67,8.43,1.94,45.21-14.77,45.21-14.77l6.86-28.16Z" style="fill:#e0e0e0"></path><g style="opacity:0.30000000000000004"><path d="M405.46,264.57a19.76,19.76,0,0,0-4.65-2.54c-9.52-4.31-17.9-10.76-27-16s-19.38-9.27-29.76-8L332,249.35c1.24,2.69,4.31,4.1,7.25,4.38s5.89-.35,8.84-.61,6.1-.1,8.56,1.56,3.92,4.81,6.16,7c2.69,2.6,6.46,3.69,10.06,4.71l23,6.43c2.3.65,4.69,1.3,7,.9s4.66-2.16,4.85-4.54A5.62,5.62,0,0,0,405.46,264.57Z"></path></g><path d="M390.89,208.86l4.8,33.13-21-8.34-8.15,22.47s26.47,11.63,40.12,13.67c6.6,1,15.83-7.09,15.17-15.26-1.71-21.2-7.75-58.23-7.75-58.23s-4.3-8.8-11.62-7.8a11.1,11.1,0,0,0-6.53,3.63C390.2,198.16,390.89,208.86,390.89,208.86Z" style="fill:#e0e0e0"></path><polyline points="358.33 178.29 356.33 192.13 352.74 219.91 368.36 193.11 383.13 174.69 359.58 191 359.3 178.03" style="fill:#FF725E"></polyline><path d="M334.76,197.3s0,.3,0,.87l-.13,2.57c-.13,2.27-.31,5.59-.55,9.88-.51,8.59-1.23,21-2.13,36.42-2.06,30.81-4.9,73.49-8.06,121l-.25-.27,8.19.24,78.34,2.33-.24.24c-.58-30-1.08-55.19-1.42-72.94-.16-8.87-.29-15.86-.37-20.66,0-2.38-.06-4.21-.08-5.46,0-.61,0-1.08,0-1.41s0-.47,0-.47,0,.16,0,.47,0,.8.05,1.41c0,1.25.08,3.08.15,5.46.11,4.8.28,11.79.49,20.65.4,17.76,1,43,1.62,72.94v.24h-.25l-78.35-2.28-8.19-.24h-.27l0-.27c3.23-47.55,6.12-90.22,8.22-121,1-15.39,1.75-27.81,2.29-36.41.28-4.28.5-7.6.65-9.87.08-1.11.14-2,.18-2.56S334.76,197.3,334.76,197.3Z" style="fill:#263238"></path><path d="M386,178.86a7.88,7.88,0,0,1-.43,1.09c-.34.75-.78,1.76-1.33,3l-4.85,10.54-.06.13h-.15l-3.26,0,.15-.44,2.4,2,.22.18-.2.2L373.92,200l-14.6,14.16-4.47,4.25-1.23,1.14a2.33,2.33,0,0,1-.45.37s.12-.16.38-.44l1.16-1.21,4.35-4.37,14.5-14.27,4.55-4.44,0,.37-2.39-2-.53-.44h.69l3.26,0-.21.13,5-10.46,1.46-2.94A7.24,7.24,0,0,1,386,178.86Z" style="fill:#263238"></path><path d="M352.74,219.91a12.83,12.83,0,0,1-.31-1.72c-.17-1.2-.39-2.79-.66-4.71-.54-4-1.25-9.49-2-15.58-.24-2-.47-3.86-.69-5.67l0-.22.22-.06,3.91-.92,0,.45-3.94-.7-.26-.05.11-.24,2.59-5.61c.29-.62.54-1.12.74-1.53a2,2,0,0,1,.29-.52,2.06,2.06,0,0,1-.18.57l-.64,1.57c-.61,1.43-1.43,3.36-2.43,5.69l-.15-.28,4,.64,1.12.19-1.11.27-3.9,1,.19-.27c.22,1.8.46,3.71.7,5.67.75,6.08,1.4,11.6,1.84,15.59.21,1.94.37,3.53.5,4.74A9.83,9.83,0,0,1,352.74,219.91Z" style="fill:#263238"></path><path d="M335.71,190.23a5.15,5.15,0,0,1-.47.29l-1.42.79-5.44,3-19.69,10.63-.2.11-.09-.21c-2.53-5.55-5.36-11.76-8.39-18.43l.31.13-19,7.59.15-.32.74,2.13c3.37,9.61,6.54,18.79,9.63,27.05.21.5.4,1.05.61,1.48s.55.94.84,1.39a12.16,12.16,0,0,0,2,2.39,9.71,9.71,0,0,0,2.52,1.63,9.38,9.38,0,0,0,2.83.69,14.58,14.58,0,0,0,5.5-.73q2.61-.84,5-1.55c6.41-1.89,11.63-3.28,15.24-4.23l4.17-1.06,1.09-.26a2.5,2.5,0,0,1,.37-.07,1.62,1.62,0,0,1-.36.12l-1.07.31-4.14,1.16c-3.6,1-8.81,2.45-15.19,4.38-1.6.49-3.26,1-5,1.58a14.94,14.94,0,0,1-5.67.78,9.76,9.76,0,0,1-3-.71,10.39,10.39,0,0,1-2.65-1.7,12.79,12.79,0,0,1-2.08-2.48c-.29-.46-.57-.92-.84-1.39s-.44-1-.66-1.55c-3.12-8.27-6.3-17.44-9.67-27.06-.25-.73-.51-1.46-.74-2.13l-.08-.24.23-.09,19.05-7.57.22-.09.1.22c3,6.68,5.81,12.89,8.33,18.46l-.3-.1,19.78-10.48,5.49-2.87,1.45-.74Z" style="fill:#263238"></path><path d="M366.07,293.85l.55,0,1.67.11,6.35.46,22.79,1.75.23,0,0,.23c-.37,4.28-.77,8.93-1.19,13.85-.21,2.45-.43,5-.65,7.55-.11,1.29-.23,2.59-.34,3.9a10.1,10.1,0,0,1-.31,2,7.17,7.17,0,0,1-.9,1.87,8.2,8.2,0,0,1-5.36,3.24,41.81,41.81,0,0,1-6.08.32,51,51,0,0,1-11.38-1.24,18,18,0,0,1-2.6-.85,7.56,7.56,0,0,1-1.2-.62,3.22,3.22,0,0,1-.55-.44,4.43,4.43,0,0,1-.43-.54,12.67,12.67,0,0,1-1.49-4.85,59.61,59.61,0,0,1-.45-9c.08-5.51.48-10,.77-13,.15-1.53.29-2.72.4-3.53l.12-.91a1,1,0,0,1,.07-.31s0,.11,0,.32-.05.54-.08.92c-.07.84-.17,2-.3,3.53-.23,3.06-.57,7.51-.61,13a63,63,0,0,0,.51,8.95,12.4,12.4,0,0,0,1.45,4.67,4,4,0,0,0,2,1.42,17.24,17.24,0,0,0,2.52.81,51.2,51.2,0,0,0,11.28,1.2,43,43,0,0,0,6-.32,7.73,7.73,0,0,0,5-3,6.66,6.66,0,0,0,.83-1.72,9.88,9.88,0,0,0,.29-1.91c.12-1.31.23-2.62.34-3.9q.35-3.87.67-7.56c.44-4.91.85-9.56,1.23-13.84l.21.25-22.62-2-6.4-.59-1.7-.16A4.3,4.3,0,0,1,366.07,293.85Z" style="fill:#263238"></path><path d="M401.12,251.07a26.2,26.2,0,0,0-2.14-5,27.16,27.16,0,0,0-3.53-4.11,11.37,11.37,0,0,1,5.67,9.08Z" style="fill:#263238"></path><path d="M414.12,196.3l.11.52q.09.56.27,1.53c.22,1.37.55,3.36,1,5.9.83,5.12,2,12.55,3.27,21.74.64,4.59,1.31,9.63,2,15,.31,2.71.63,5.52.92,8.41.16,1.44.27,2.92.41,4.4a17.42,17.42,0,0,1,.07,2.29,12.92,12.92,0,0,1-.42,2.3,13.88,13.88,0,0,1-.79,2.21,17.63,17.63,0,0,1-1.18,2.06,17.89,17.89,0,0,1-1.45,1.92,21.39,21.39,0,0,1-1.73,1.7,16.09,16.09,0,0,1-4.12,2.69,11.22,11.22,0,0,1-4.91,1.07,61.48,61.48,0,0,1-10-2.17c-3.32-1-6.64-2.07-10-3.24-7.34-2.62-14.38-5.44-21.06-8.32l-.22-.1.09-.22c2.87-7.92,5.61-15.46,8.16-22.47l.09-.23.22.09,20.94,8.38-.26.21c-1.44-10.22-2.62-18.5-3.43-24.25-.39-2.84-.7-5.07-.91-6.6-.09-.74-.16-1.31-.22-1.72s-.05-.59-.05-.59,0,.2.11.58.16,1,.27,1.72c.24,1.52.58,3.74,1,6.58.86,5.75,2.08,14,3.6,24.22l.05.33-.31-.12-21-8.31.3-.13-8.13,22.48-.13-.32c6.66,2.87,13.7,5.69,21,8.3,3.34,1.16,6.65,2.27,10,3.23a61.31,61.31,0,0,0,9.87,2.16,10.72,10.72,0,0,0,4.69-1,15.94,15.94,0,0,0,4-2.61,20.14,20.14,0,0,0,1.68-1.65,17.83,17.83,0,0,0,1.41-1.86,15.92,15.92,0,0,0,1.15-2,13.55,13.55,0,0,0,.77-2.13,12,12,0,0,0,.4-2.2,18.33,18.33,0,0,0-.05-2.22c-.14-1.48-.25-2.95-.4-4.4-.28-2.89-.6-5.69-.9-8.4-.64-5.42-1.29-10.45-1.91-15.05-1.24-9.2-2.34-16.63-3.1-21.76-.38-2.55-.67-4.54-.88-5.91-.09-.66-.16-1.17-.22-1.54S414.12,196.3,414.12,196.3Z" style="fill:#263238"></path><path d="M403.71,189c0,.09-1.23.11-3.11.69a13.88,13.88,0,0,0-9.66,10.76c-.37,1.92-.25,3.16-.35,3.16a2.66,2.66,0,0,1-.13-.86,11.61,11.61,0,0,1,.12-2.36,13.41,13.41,0,0,1,9.92-11.06,11.37,11.37,0,0,1,2.34-.37A2.59,2.59,0,0,1,403.71,189Z" style="fill:#263238"></path><g style="opacity:0.30000000000000004"><path d="M395.11,323.1c-2.42,6.34-8.78,6.72-15.61,5.72-6.44-.94-12.62-2.29-13.1-4.13.17,3.36,2.64,5.94,5.73,7.29a22.23,22.23,0,0,0,9.89,1.38c3.52-.15,6.56,0,9.46-2S395.12,326,395.11,323.1Z"></path></g><path d="M305.29,213.77a28.94,28.94,0,0,0,2.21-4.83,28,28,0,0,0,.74-5.25,11.36,11.36,0,0,1-2.95,10.08Z" style="fill:#263238"></path><path d="M394.71,163.69s-.24,0-.69,0a3.46,3.46,0,0,1-1.82-.64,4.38,4.38,0,0,1-1.72-2.47,8.14,8.14,0,0,1,.08-4.06c.33-1.5,1-3.08,1.36-4.89a8.61,8.61,0,0,0,.15-2.88,5.44,5.44,0,0,0-1.17-2.85,6.52,6.52,0,0,0-2.73-1.72,17.39,17.39,0,0,1-3-1.28,9.57,9.57,0,0,1-3.75-5.42c-.74-2.21-1-4.52-1.64-6.69a12.28,12.28,0,0,0-3-5.72,8.15,8.15,0,0,0-5.43-2.16,10.61,10.61,0,0,0-5,1.11,15.79,15.79,0,0,0-5.51,4.85c-.51.7-.87,1.28-1.11,1.67a4.75,4.75,0,0,0-.33.61,3,3,0,0,0,.42-.56c.26-.37.64-.92,1.18-1.6a16.1,16.1,0,0,1,5.5-4.66,10.26,10.26,0,0,1,4.82-1,7.73,7.73,0,0,1,5.14,2.08,11.84,11.84,0,0,1,2.87,5.52c.59,2.13.88,4.44,1.64,6.72a10,10,0,0,0,4,5.67,17.74,17.74,0,0,0,3.05,1.31,6,6,0,0,1,2.55,1.58,5,5,0,0,1,1.09,2.61,8.36,8.36,0,0,1-.12,2.74c-.35,1.76-1,3.36-1.3,4.89a8.48,8.48,0,0,0,0,4.22,4.53,4.53,0,0,0,1.89,2.55,3.39,3.39,0,0,0,1.92.58A1.83,1.83,0,0,0,394.71,163.69Z" style="fill:#455a64"></path><path d="M362.14,120.2a4.27,4.27,0,0,0-2.06.31,7.88,7.88,0,0,0-5.36,7.86,4.33,4.33,0,0,0,.46,2c.08,0-.14-.78-.11-2a8.19,8.19,0,0,1,5.14-7.54C361.36,120.36,362.15,120.28,362.14,120.2Z" style="fill:#455a64"></path><path d="M348.46,127a3.68,3.68,0,0,0-.51,2.48,3.61,3.61,0,0,0,.81,2.4c.13-.06-.25-1.1-.32-2.43S348.6,127.05,348.46,127Z" style="fill:#455a64"></path><path d="M306.8,219.3l6.42,26.75c.36,1.49,1.68,2.53,3.81,3.12l36.46.13a4.32,4.32,0,0,0,2.66-4.5l-4.78-25.59a3.29,3.29,0,0,0-3.17-2.7l-38.44-.89A3,3,0,0,0,306.8,219.3Z" style="fill:#263238"></path><path d="M345.21,224.7s8.07-.33,9.42,0,18.74,11.56,18.74,11.56l-5.22,14.9-3.57-4.71a29.56,29.56,0,0,1-7.11-1.68c-2.53-1.17-5.5-2.44-5.5-2.44l-5.33.75-5.79.12s-2-1-.36-2.29S346,239.5,346,239.5l6-1.4s-6.84-.52-7.51-.63-5.31,1.05-5.93.6a1.82,1.82,0,0,1-.37-2.35c.53-.85,4.91-2.19,4.91-2.19l7.61-.71-7.53-.18-4.08-.23s-1.12-.81.34-2,7.34-2,7.34-2l6.06-.55-6.14-.64-4.05.74a1.08,1.08,0,0,1-.88-1.91A7.58,7.58,0,0,1,345.21,224.7Z" style="fill:#d09284"></path><path d="M339.51,141.91c1.52-1.92,3.4-3.77,3.79-6.18.35-2.22-.62-4.65.38-6.67,1.22-2.48,4.74-3,6.27-5.27.74-1.12.92-2.54,1.65-3.66,1.24-1.91,3.79-2.53,6.07-2.4s4.51.84,6.79.89c3.13.06,6.3-1.11,9.34-.36,3.36.83,5.52,3.65,7.81,6.38l3,3.15a12.45,12.45,0,0,0,1.94,1.43,21.18,21.18,0,0,1,3.65,2.09,5.52,5.52,0,0,1,0,8,5.91,5.91,0,0,1,4.26,5.6,17,17,0,0,1-.87,4.07,5.92,5.92,0,0,0,.08,4.07c.62,1.25,2.29,2,3.46,1.3a6.22,6.22,0,0,1-3.18,4.31,3.69,3.69,0,0,0,2.55,1c-2.24,6.06-9,9.52-15.44,9.86s-12.77-1.81-18.88-3.94l-17.61-3.69c-1.54-.28-2.27-2.1-2.32-3.67s.27-3.22-.36-4.66c-.87-2-3.25-2.92-4.15-4.88C336.72,146.42,338,143.82,339.51,141.91Z" style="fill:#263238"></path><path d="M381.43,155.83a71.39,71.39,0,0,0,2.5-12.13,25.07,25.07,0,0,0-1.61-12.17c-.25-.57-2.31-4.41-2.93-4.32-.44.07.89,3.68.69,4.08a21.25,21.25,0,0,0-1.75,12.5,55.79,55.79,0,0,0,3.1,12" style="fill:#263238"></path><path d="M381,140.06c-.2-10.37-6.4-18.89-16.75-18.41l-1,.1a18.53,18.53,0,0,0-16.58,18.88c.22,9,.58,18.91,1.14,23.68,1.16,9.88,11.22,10.37,11.22,10.37s.48,16.32.48,16.32l23.55-16.31Z" style="fill:#d09284"></path><path d="M359.1,174.68a24.05,24.05,0,0,0,12.48-5.16s-2.32,8.36-12.28,8.51Z" style="fill:#986b62"></path><path d="M350.51,148.91a1.42,1.42,0,0,0,1.51,1.28,1.35,1.35,0,0,0,1.32-1.43,1.42,1.42,0,0,0-1.51-1.28A1.36,1.36,0,0,0,350.51,148.91Z" style="fill:#263238"></path><path d="M349.28,144.52c.2.16,1.19-.74,2.71-.9s2.71.49,2.86.28-.15-.4-.67-.7a3.85,3.85,0,0,0-2.31-.46,3.81,3.81,0,0,0-2.13.94C349.31,144.09,349.19,144.44,349.28,144.52Z" style="fill:#263238"></path><path d="M363.51,148.3a1.42,1.42,0,0,0,1.51,1.28,1.36,1.36,0,0,0,1.33-1.43,1.43,1.43,0,0,0-1.52-1.28A1.36,1.36,0,0,0,363.51,148.3Z" style="fill:#263238"></path><path d="M364.24,143.56c.19.17,1.18-.74,2.7-.89s2.72.48,2.86.28-.14-.41-.66-.71a3.89,3.89,0,0,0-2.32-.45,3.74,3.74,0,0,0-2.12.94C364.27,143.14,364.15,143.49,364.24,143.56Z" style="fill:#263238"></path><path d="M360,155.82a10.16,10.16,0,0,0-2.52-.19c-.39,0-.77,0-.86-.29a2,2,0,0,1,.14-1.18c.26-1,.54-2,.83-3.08,1.16-4.38,1.94-8,1.77-8s-1.26,3.46-2.41,7.84q-.41,1.62-.78,3.09a2.27,2.27,0,0,0,0,1.55,1,1,0,0,0,.7.5,2.5,2.5,0,0,0,.66,0A10.55,10.55,0,0,0,360,155.82Z" style="fill:#263238"></path><path d="M364.6,156.4c-.25,0-.08,1.66-1.36,3s-3.07,1.32-3.06,1.55.43.28,1.17.23a4.18,4.18,0,0,0,2.56-1.21,3.57,3.57,0,0,0,1-2.49C364.94,156.76,364.71,156.38,364.6,156.4Z" style="fill:#263238"></path><path d="M363.67,137.38c.2.4,1.69.05,3.5.07s3.3.36,3.5,0c.08-.19-.21-.55-.83-.89a6.08,6.08,0,0,0-5.33,0C363.88,136.83,363.59,137.19,363.67,137.38Z" style="fill:#263238"></path><path d="M349.38,139.4c.3.31,1.31-.16,2.57-.31s2.35,0,2.56-.4c.09-.18-.12-.51-.62-.79a3.54,3.54,0,0,0-2.15-.34,3.59,3.59,0,0,0-2,.91C349.35,138.87,349.24,139.24,349.38,139.4Z" style="fill:#263238"></path><path d="M381,147.47c.16-.1,6.59-2.73,7.08,4.05s-6.42,5.89-6.44,5.7S381,147.47,381,147.47Z" style="fill:#d09284"></path><path d="M383.51,154.49s.13.08.33.15a1.16,1.16,0,0,0,.89,0,2.93,2.93,0,0,0,1.16-2.73,4,4,0,0,0-.45-1.66,1.38,1.38,0,0,0-1-.85.6.6,0,0,0-.67.38c-.08.2,0,.33-.06.34s-.16-.1-.12-.39a.76.76,0,0,1,.23-.44.92.92,0,0,1,.64-.22,1.67,1.67,0,0,1,1.32,1,4.13,4.13,0,0,1,.54,1.86,3.08,3.08,0,0,1-1.51,3.06,1.28,1.28,0,0,1-1.09-.1C383.54,154.66,383.49,154.51,383.51,154.49Z" style="fill:#986b62"></path><path d="M350.41,129.1c-1.14-.53,1.93-4.3,4.55-5.7,4-2.12,10.12-3.66,14-2.83,4.61,1,8.52,3,11.06,7A26.74,26.74,0,0,1,383.85,141a8.13,8.13,0,0,1-.69,4.21c-.85,1.56-2.61,2.63-2.4,4.69a2.86,2.86,0,0,1-.57,2.12c-1.16,1.4-2.76.26-3.54-.94-1.66-2.57-2-5.73-2.36-8.77a19.84,19.84,0,0,1,0-6.48c.26-1.16.72-2.26.92-3.43a4.14,4.14,0,0,0-.7-3.36,5,5,0,0,0-.59-.52,7.09,7.09,0,0,0-7.11-.88c-3.74,1.6-10.14,4-11.93,2.85a10.57,10.57,0,0,1-3.24-2.89Z" style="fill:#263238"></path><path d="M368.5,119.67A15,15,0,0,0,357.07,121a7.84,7.84,0,0,0-3.81,4.78,4.48,4.48,0,0,0,2.57,5.13l.14.07c3,.79,4.82.28,7.64-.91,2.38-1,4.44-2.63,6.82-3.62a13.81,13.81,0,0,1,8.06-.75A22.43,22.43,0,0,0,368.5,119.67Z" style="fill:#263238"></path><path d="M299.15,166s1.72-3.81,3.22-.62c.36.78.58,2.85,1,4.14.32.92.79,1.63-.05,4.11l-2.09,6.21a7,7,0,0,1-1.67,2.63l-.41,3.15.61,3.11-11.26,3.82-.88-5.87s-4.32-4.93-4.4-6.95,1.11-2.34,1.11-2.34a3.56,3.56,0,0,1-.65-2.46,3.93,3.93,0,0,1,1.39-2.17s-2.91-1.47-2.64-4.05c.14-1.37,1.8-1.37,1.8-1.37s-.65-2.26.43-2.85a4,4,0,0,1,2.67-.1Z" style="fill:#d09284"></path><path d="M287.15,158l2,2.13a3.27,3.27,0,0,1,.72,3.12l-7.37,25.05a4.76,4.76,0,0,0,4.56,6.09h13.86a5,5,0,0,0,4.8-6.51L298,163a3.24,3.24,0,0,1,.77-3.23l1.75-1.8Z" style="fill:#f5f5f5"></path><path d="M287.15,158s.06,0,.2,0H288l2.6,0,9.9-.11h.4l-.28.29-1.33,1.39a3.9,3.9,0,0,0-1.1,1.57c-.51,1.27.28,2.65.67,4.11l2.95,9.45,3.32,10.68c.28.94.6,1.85.86,2.84a5.1,5.1,0,0,1-.2,3.11,5.26,5.26,0,0,1-5.06,3.39H287a5,5,0,0,1-5-5.19,10.7,10.7,0,0,1,.56-2.42c.23-.76.45-1.52.68-2.27.44-1.49.87-2.93,1.28-4.33l2.33-7.79,1.92-6.42c.29-.94.55-1.82.8-2.63a3.33,3.33,0,0,0,.11-2.21,3.69,3.69,0,0,0-.95-1.52l-.9-1-.54-.62-.16-.2.21.21.59.61.92.95a3.86,3.86,0,0,1,1,1.55,3.63,3.63,0,0,1-.07,2.34c-.23.81-.49,1.7-.76,2.64-.54,1.9-1.17,4.06-1.85,6.44s-1.45,5-2.26,7.81c-.41,1.4-.83,2.85-1.27,4.34q-.31,1.13-.66,2.28a10.18,10.18,0,0,0-.53,2.3,4.55,4.55,0,0,0,2.18,4,4.45,4.45,0,0,0,2.34.66h13.72a5,5,0,0,0,2.8-.81,4.86,4.86,0,0,0,1.77-2.24,4.59,4.59,0,0,0,.19-2.81c-.24-.93-.57-1.89-.84-2.81l-3.29-10.69c-1-3.37-2-6.54-2.9-9.46l-.65-2.15a3.41,3.41,0,0,1,0-2.21,4.18,4.18,0,0,1,1.21-1.7l1.33-1.37.13.29-9.76-.11-2.66,0h-.94Z" style="fill:#263238"></path><path d="M300.26,173.43a8.34,8.34,0,0,1-4.15-.09c-1.3-.36-2.5-1-3.79-1.45a5,5,0,0,0-3.94,0L284,187.88a4,4,0,0,0,3.89,5.11h12.42a4,4,0,0,0,3.9-5.09Z" style="fill:#FF725E"></path><g style="opacity:0.30000000000000004"><path d="M289.47,191.44c0,.05-.29.1-.79-.08a3.35,3.35,0,0,1-1.63-1.45,4.26,4.26,0,0,1-.53-1.44,6.68,6.68,0,0,1-.07-1.74,27.44,27.44,0,0,1,.78-3.74c1.31-5.19,2.56-9.34,2.78-9.29s-.65,4.31-2,9.5a33.06,33.06,0,0,0-.83,3.61,6.22,6.22,0,0,0,0,1.55,4.23,4.23,0,0,0,.37,1.26,3.56,3.56,0,0,0,1.25,1.45C289.22,191.31,289.48,191.38,289.47,191.44Z" style="fill:#fff"></path></g><path d="M299.83,175.75a2.2,2.2,0,0,1-.41.2c-.28.11-.68.28-1.18.44a6.65,6.65,0,0,1-1.84.37,4.79,4.79,0,0,1-1.12-.07,5.57,5.57,0,0,1-1.14-.36c-.75-.31-1.42-.7-2.06-1a5.84,5.84,0,0,0-1.76-.5,3.33,3.33,0,0,0-1.23.11c-.28.09-.42.18-.43.16l.1-.07.31-.15a3.08,3.08,0,0,1,1.26-.17,5.82,5.82,0,0,1,1.81.48c.65.28,1.33.66,2.07,1a5.93,5.93,0,0,0,1.11.35,4.92,4.92,0,0,0,1.07.08,7.41,7.41,0,0,0,1.81-.33c.51-.15.91-.3,1.19-.39A2.72,2.72,0,0,1,299.83,175.75Z" style="fill:#fafafa"></path><path d="M300.16,171a7,7,0,0,1-1-3.1,5.65,5.65,0,0,1,.07-2.32c.19-.59.5-.85.53-.82s-.14.34-.24.89a7.59,7.59,0,0,0,.06,2.2C299.84,169.6,300.28,171,300.16,171Z" style="fill:#986b62"></path><path d="M286.59,164.38a2.2,2.2,0,0,1,1,3.89,8.3,8.3,0,0,1,1.95,1.53,2.9,2.9,0,0,1,.75,2.3,1.75,1.75,0,0,1-1.73,1.47,5.27,5.27,0,0,1,2.92,1.67c.65.94.36,2.57-.77,2.79a1.27,1.27,0,0,1-.21,1.59,3.34,3.34,0,0,1-1.53.81,27.66,27.66,0,0,1-5.18,1.13" style="fill:#d09284"></path><path d="M283.78,181.56c0-.06.9-.17,2.41-.52.75-.18,1.66-.41,2.66-.74a3.79,3.79,0,0,0,1.43-.72,1.14,1.14,0,0,0,.27-1.43h0a.19.19,0,0,1,0-.27.16.16,0,0,1,.09,0c.7-.12,1.06-1,.9-1.8a2.64,2.64,0,0,0-1.67-1.75,11.45,11.45,0,0,0-1.42-.52.2.2,0,0,1-.13-.26.2.2,0,0,1,.21-.15,1.5,1.5,0,0,0,1.41-1,2.17,2.17,0,0,0-.1-1.73,6.14,6.14,0,0,0-2.38-2.27h0a.15.15,0,0,1-.05-.22s0,0,0,0a2.13,2.13,0,0,0,.8-1.72,2.06,2.06,0,0,0-.57-1.35,2.93,2.93,0,0,0-1.12-.69s.12,0,.35,0a2.09,2.09,0,0,1,.9.52,2.23,2.23,0,0,1,.7,1.47,2.39,2.39,0,0,1-.86,2v-.26a6.27,6.27,0,0,1,2.55,2.37,2.57,2.57,0,0,1,.13,2.06,1.9,1.9,0,0,1-1.82,1.22l.08-.41a13,13,0,0,1,1.47.53A3,3,0,0,1,292,176a2.32,2.32,0,0,1-.17,1.38,1.48,1.48,0,0,1-1.07.87l.12-.31a1.29,1.29,0,0,1,.19,1.07,1.66,1.66,0,0,1-.52.86,4,4,0,0,1-1.58.77,25.45,25.45,0,0,1-2.71.66c-.77.15-1.39.22-1.81.26A2.67,2.67,0,0,1,283.78,181.56Z" style="fill:#986b62"></path><path d="M290.72,178.38c0,.05-.35-.19-.91-.43a6.42,6.42,0,0,0-2.29-.51,16.71,16.71,0,0,0-2.41.12,3,3,0,0,1-1,0c0-.06.36-.19,1-.32a9.35,9.35,0,0,1,2.46-.25,5.32,5.32,0,0,1,2.42.66C290.51,178,290.76,178.34,290.72,178.38Z" style="fill:#986b62"></path><path d="M284.94,172.68a5,5,0,0,1,3.77,1,8.08,8.08,0,0,1-1.89-.46A8.35,8.35,0,0,1,284.94,172.68Z" style="fill:#986b62"></path><path d="M283.94,167.37a4.16,4.16,0,0,1,1.93.23,4,4,0,0,1,1.78.76,5.31,5.31,0,0,1-1.89-.35A5.17,5.17,0,0,1,283.94,167.37Z" style="fill:#986b62"></path><path d="M300.15,158a5,5,0,0,1-1.73,1,13.07,13.07,0,0,1-4.72.94,13.22,13.22,0,0,1-4.74-.83,5.34,5.34,0,0,1-1.76-.94,16.48,16.48,0,0,0,12.95-.15Z" style="fill:#263238"></path></g></svg>