<?xml version="1.0" encoding="UTF-8"?>
<svg width="580px" height="281px" viewBox="0 0 580 281" version="1.1" xmlns="http://www.w3.org/2000/svg" xmlns:xlink="http://www.w3.org/1999/xlink">
    <title>HeaderBG</title>
    <g id="Page-1" stroke="none" stroke-width="1" fill="none" fill-rule="evenodd" fill-opacity="0.5">
        <g id="Home-Page" transform="translate(1.000000, 1.000000)">
            <g id="HeaderBG" transform="translate(-1.000000, -1.000000)">
                <path d="M341.523424,188 C167.503346,163 220.123581,301.9477 28.1811258,243.27839 C18.3774928,239.983466 9.31041515,236.203431 0.979892894,231.938283 C0.843346581,200.255512 0.767226276,123.276085 0.751531978,1 C302.51801,0.922462215 475.185404,0.794952165 518.753712,0.617469851 C470.159257,51.7928898 487.515636,208.973473 341.523424,188 Z" id="Path-4" fill="#AEDCF6"></path>
                <path d="M351.330188,188 C261.30589,216.192449 203.049437,169.318594 152.252952,216.05234 C107.878964,256.877265 68.6106022,283.879483 1.00115597,279.851953 C0.668709751,257.357416 0.668324429,164.406765 1,1 L580,1 C536.47223,18.7435861 501.896219,41.6522724 476.271967,69.7260588 C437.835589,111.836738 441.354485,159.807551 351.330188,188 Z" id="Path-3" fill="#E8F7FE"></path>
            </g>
        </g>
    </g>
</svg>