<svg xmlns="http://www.w3.org/2000/svg" viewBox="0 0 500 500"><g id="freepik--Floor--inject-77"><ellipse id="freepik--floor--inject-77" cx="251.29" cy="333.68" rx="238.36" ry="144.31" style="fill:#f5f5f5"></ellipse></g><g id="freepik--Gears--inject-77"><g id="freepik--Gear--inject-77"><path d="M169,85.41l-1.4-8.14-7.26,4.78a10,10,0,0,0-2.77-3.35l3.48-9.4-6.47-1.45L149.81,77a17.5,17.5,0,0,0-5,1.62l-2.06-6.86L135,77.81l.51,8.09a42.72,42.72,0,0,0-4.29,5.66l-6.4-.32-4.49,10.06,5.5,2.35a32.66,32.66,0,0,0-1.08,6.37l-7,6.42,1.4,8.14,7.26-4.78a10,10,0,0,0,2.76,3.35l-3.47,9.4L132.2,134l6.84-6.66c1.58-.25,1.2-3.22,2.92-4.06l2.07,6.86,7.75-6.09-.2-3.18c1.56-1.75,7.49-5.6,8.77-7.6l1.6-2.66,4.49-10.06-2.09-3.78L162,91.82Zm-23.67,26.82c-5.94,4.67-7.75,5.69-8.82-.55s2.4-15.76,8.34-20.44,8.22-5,9.3,1.22S151.29,107.55,145.34,112.23Z" style="fill:#e0e0e0"></path><polygon points="154.59 67.85 163.05 72.73 158.28 81.84 149.81 76.96 154.59 67.85" style="fill:#f5f5f5"></polygon><polygon points="176.07 82.15 168.81 86.93 160.35 82.05 167.61 77.27 176.07 82.15" style="fill:#f5f5f5"></polygon><polygon points="174.9 105.42 169.41 103.08 160.94 98.2 166.44 100.54 174.9 105.42" style="fill:#e0e0e0"></polygon><polygon points="125.73 132.55 134.2 137.43 137.67 128.03 129.21 123.15 125.73 132.55" style="fill:#e0e0e0"></polygon><polygon points="152.49 135.01 144.03 130.13 141.96 123.27 150.42 128.15 152.49 135.01" style="fill:#e0e0e0"></polygon><path d="M177.47,90.29l-1.4-8.14-7.26,4.78a10,10,0,0,0-2.76-3.35l3.47-9.4-6.47-1.45-4.77,9.11a17.3,17.3,0,0,0-5,1.62l-2.07-6.86-7.75,6.09.51,8.09a42.66,42.66,0,0,0-4.28,5.66l-6.4-.32-4.49,10.06,5.49,2.35a32.66,32.66,0,0,0-1.08,6.37l-7,6.42,1.4,8.14,7.26-4.78a10,10,0,0,0,2.76,3.35l-3.47,9.4,6.47,1.44,4.78-9.1a17.66,17.66,0,0,0,5-1.62l2.07,6.86,7.75-6.09-.51-8.09a43.32,43.32,0,0,0,4.28-5.66l6.41.32,4.48-10.06-5.49-2.35a32.66,32.66,0,0,0,1.08-6.37Zm-23.66,26.82c-5.95,4.67-11.64,3.4-12.71-2.85S144,99.17,149.91,94.5s11.64-3.4,12.71,2.84S159.75,112.43,153.81,117.11Z" style="fill:#ebebeb"></path><polygon points="151.23 76.6 142.76 71.72 135.02 77.81 143.48 82.69 151.23 76.6" style="fill:#f5f5f5"></polygon><polygon points="135.02 77.81 135.53 85.9 143.99 90.78 143.48 82.69 135.02 77.81" style="fill:#e0e0e0"></polygon><polygon points="139.71 96.44 131.24 91.56 124.84 91.24 133.31 96.12 139.71 96.44" style="fill:#f5f5f5"></polygon><polygon points="124.84 91.24 120.36 101.3 128.82 106.18 133.31 96.12 124.84 91.24" style="fill:#e0e0e0"></polygon><polygon points="133.23 114.9 124.77 110.02 117.79 116.44 126.25 121.32 133.23 114.9" style="fill:#f5f5f5"></polygon><polygon points="127.65 129.46 119.19 124.58 117.79 116.44 126.25 121.32 127.65 129.46" style="fill:#e0e0e0"></polygon><polygon points="163.05 72.73 154.59 67.85 161.06 69.3 169.52 74.18 163.05 72.73" style="fill:#f5f5f5"></polygon></g><g id="freepik--gear--inject-77"><path d="M105.8,81.74V69.67L96.19,74a17.2,17.2,0,0,0-2.59-5.72l6.05-12.21L92.26,51.8,84.71,63.15a17.23,17.23,0,0,0-6.25.61L77.4,53.27,67,59.31,65.89,71a51.69,51.69,0,0,0-6.25,6.6L52.09,75,44.7,87.8l6,5.22a51.74,51.74,0,0,0-2.59,8.71l-9.61,6.77v12.08l9.61-4.34A17.11,17.11,0,0,0,50.75,122l-6,12.21,7.39,4.27,7.55-11.35a17,17,0,0,0,6.25-.61L67,137l10.45-6,1.06-11.7a19.66,19.66,0,0,0,8.38-5.88l5.42,1.9,7.39-12.8-4.54-3.91c1.14-2.89,1.26-7.51,1.08-10ZM72.18,111.9c-8,4.63-13,1.34-13-7.92s6.63-20.62,14.66-25.25,12.88-1.26,12.88,8S80.2,107.26,72.18,111.9Z" style="fill:#e0e0e0"></path><polygon points="100.67 56.65 92.26 51.8 84.71 63.15 93.12 68 100.67 56.65" style="fill:#f5f5f5"></polygon><polygon points="114.21 74.52 105.8 69.67 96.19 74 104.6 78.85 114.21 74.52" style="fill:#f5f5f5"></polygon><polygon points="75.36 141.82 66.95 136.97 65.89 126.48 74.3 131.33 75.36 141.82" style="fill:#e0e0e0"></polygon><polygon points="44.7 134.17 53.11 139.02 59.16 126.81 50.75 121.96 44.7 134.17" style="fill:#e0e0e0"></polygon><path d="M114.21,86.59V74.52l-9.61,4.33A17.2,17.2,0,0,0,102,73.13l6-12.21-7.39-4.27L93.12,68a17.23,17.23,0,0,0-6.25.61L85.81,58.12l-10.45,6L74.3,75.87a51.69,51.69,0,0,0-6.25,6.6L60.5,79.84,53.11,92.65l6,5.22a51.74,51.74,0,0,0-2.59,8.71L47,113.35v12.08l9.61-4.34a17.11,17.11,0,0,0,2.59,5.72l-6,12.21,7.39,4.27,7.55-11.35a17,17,0,0,0,6.25-.61l1.06,10.49,10.45-6,1.06-11.7a51.79,51.79,0,0,0,6.25-6.61l7.55,2.63,7.39-12.8-6-5.22a52.13,52.13,0,0,0,2.59-8.72ZM80.59,116.75c-8,4.63-14.53.87-14.53-8.39s6.5-20.53,14.53-25.16,14.52-.88,14.52,8.38S88.61,112.11,80.59,116.75Z" style="fill:#ebebeb"></path><polygon points="59.64 77.62 68.05 82.47 60.5 79.84 52.09 74.99 59.64 77.62" style="fill:#f5f5f5"></polygon><rect x="45.21" y="78.96" width="14.79" height="9.71" transform="translate(-46.29 87.51) rotate(-60.03)" style="fill:#f5f5f5"></rect><polygon points="44.7 87.8 53.11 92.65 59.16 97.86 50.75 93.02 44.7 87.8" style="fill:#e0e0e0"></polygon><polygon points="48.16 101.73 56.57 106.58 46.96 113.35 38.55 108.5 48.16 101.73" style="fill:#f5f5f5"></polygon><polygon points="38.55 108.5 46.96 113.35 46.96 125.42 38.55 120.58 38.55 108.5" style="fill:#e0e0e0"></polygon><polygon points="85.81 58.12 77.41 53.27 66.95 59.31 75.36 64.16 85.81 58.12" style="fill:#f5f5f5"></polygon></g></g><g id="freepik--Device--inject-77"><g id="freepik--Laptop--inject-77"><g id="freepik--laptop--inject-77"><path d="M41.73,337.28a8.93,8.93,0,0,0,4.17,6.91L162.49,411.5a9.17,9.17,0,0,0,8.32,0l159.54-92.1a7.82,7.82,0,0,0,0-13.82l-116.6-67.32a9.17,9.17,0,0,0-8.32,0L45.89,330.37A9,9,0,0,0,41.73,337.28Z" style="fill:#90CAF9"></path><path d="M166.65,403.49v9a8.56,8.56,0,0,1-4.16-1L45.89,344.19a7.79,7.79,0,0,1-.42-13.55c-1.86,1.33-1.72,3.29.42,4.53l116.6,67.32A8.45,8.45,0,0,0,166.65,403.49Z" style="fill:#fff;opacity:0.5"></path><path d="M37.83,330.52a8.92,8.92,0,0,1-3.9-7.06V184.32a9.19,9.19,0,0,1,4.16-7.21L197.62,85a7.82,7.82,0,0,1,12,6.91V231.05a9.19,9.19,0,0,1-4.16,7.21L45.89,330.37A8.92,8.92,0,0,1,37.83,330.52Z" style="fill:#90CAF9"></path><path d="M45.4,330.62a8.89,8.89,0,0,1-7.57-.11,8.92,8.92,0,0,1-3.9-7.05V184.31a8.4,8.4,0,0,1,1.22-4.09l7.8,4.5h0a8.51,8.51,0,0,0-1.22,4.09V328C41.73,330.43,43.34,331.53,45.4,330.62Z" style="fill:#fff;opacity:0.5"></path><path d="M41.73,188.83V328c0,2.65,1.87,3.73,4.16,2.4l159.54-92.11a9.19,9.19,0,0,0,4.16-7.21V91.91c0-2.65-1.86-3.73-4.16-2.4L45.89,181.62A9.2,9.2,0,0,0,41.73,188.83Z" style="fill:#fff;opacity:0.7000000000000001"></path><path d="M45.89,335.17l116.6,67.32a9.17,9.17,0,0,0,8.32,0l159.54-92.11c2.3-1.32,2.3-3.48,0-4.8l-116.6-67.32a9.17,9.17,0,0,0-8.32,0L45.89,330.37C43.6,331.7,43.6,333.85,45.89,335.17Z" style="fill:#90CAF9"></path><path d="M45.89,335.17l116.6,67.32a9.17,9.17,0,0,0,8.32,0l159.54-92.11c2.3-1.32,2.3-3.48,0-4.8l-116.6-67.32a9.17,9.17,0,0,0-8.32,0L45.89,330.37C43.6,331.7,43.6,333.85,45.89,335.17Z" style="fill:#fff;opacity:0.85"></path><path d="M48.13,189.34,202,100.56c1.37-.8,2.49-.15,2.49,1.44V222.45a5.52,5.52,0,0,1-2.49,4.32L48.13,315.55c-1.38.8-2.49.15-2.49-1.44V193.66A5.51,5.51,0,0,1,48.13,189.34Z" style="fill:#90CAF9"></path><path d="M48.13,189.34,202,100.56c1.37-.8,2.49-.15,2.49,1.44V222.45a5.52,5.52,0,0,1-2.49,4.32L48.13,315.55c-1.38.8-2.49.15-2.49-1.44V193.66A5.51,5.51,0,0,1,48.13,189.34Z" style="opacity:0.30000000000000004"></path><path d="M203.37,225.43a5.32,5.32,0,0,0,1.07-3V102c0-1.59-1.12-2.24-2.49-1.44l-107.45,62Z" style="fill:#90CAF9"></path><path d="M203.37,225.43a5.32,5.32,0,0,0,1.07-3V102c0-1.59-1.12-2.24-2.49-1.44l-107.45,62Z" style="opacity:0.15"></path><path d="M48.13,189.34a5.51,5.51,0,0,0-2.49,4.32V313l152.82-88.21a5.51,5.51,0,0,0,2.5-4.32V101.13Z" style="fill:#90CAF9"></path><path d="M59.43,331.57l148.08-85.49a4.56,4.56,0,0,1,4.16,0l7.58,4.37a1.27,1.27,0,0,1,0,2.4L71.14,338.33a4.59,4.59,0,0,1-4.16,0L59.43,334A1.27,1.27,0,0,1,59.43,331.57Z" style="fill:#90CAF9"></path><path d="M59.43,331.57l148.08-85.49a4.56,4.56,0,0,1,4.16,0l7.58,4.37a1.27,1.27,0,0,1,0,2.4L71.14,338.33a4.59,4.59,0,0,1-4.16,0L59.43,334A1.27,1.27,0,0,1,59.43,331.57Z" style="fill:#fff;opacity:0.4"></path><path d="M79,342.84,227,257.34a4.62,4.62,0,0,1,4.16,0l46.59,26.9a1.27,1.27,0,0,1,0,2.4L129.87,372a4.64,4.64,0,0,1-4.17,0L79,345.24A1.27,1.27,0,0,1,79,342.84Z" style="fill:#90CAF9"></path><path d="M79,342.84,227,257.34a4.62,4.62,0,0,1,4.16,0l46.59,26.9a1.27,1.27,0,0,1,0,2.4L129.87,372a4.64,4.64,0,0,1-4.17,0L79,345.24A1.27,1.27,0,0,1,79,342.84Z" style="fill:#fff;opacity:0.4"></path><path d="M211.69,295.81l4.64-2.68c.19-.11.18-.3,0-.43l-5.36-3.09a.84.84,0,0,0-.74,0l-4.64,2.68c-.19.11-.18.31,0,.43l5.36,3.09A.81.81,0,0,0,211.69,295.81Zm-9.15-10.64-4.64,2.68c-.19.11-.18.3,0,.43l5.36,3.09a.84.84,0,0,0,.74,0l4.64-2.68c.2-.11.18-.31,0-.43l-5.36-3.09A.84.84,0,0,0,202.54,285.17Zm-15,8.65-7.84,4.53c-.2.11-.19.31,0,.43l5.36,3.09a.84.84,0,0,0,.74,0l7.85-4.53c.2-.12.18-.31,0-.43l-5.36-3.09A.81.81,0,0,0,187.56,293.82Zm8.2-4.74-4.63,2.68c-.2.11-.19.31,0,.43l5.37,3.09a.81.81,0,0,0,.74,0l4.63-2.68c.2-.11.19-.3,0-.43l-5.37-3.09A.84.84,0,0,0,195.76,289.08Zm-18.18,10.51-4.64,2.67c-.2.12-.19.31,0,.43l5.36,3.1a.84.84,0,0,0,.74,0l4.63-2.68c.2-.11.19-.3,0-.42l-5.36-3.1A.81.81,0,0,0,177.58,299.59Zm-6.78,3.91-4.64,2.68c-.19.11-.18.3,0,.42l5.36,3.1a.81.81,0,0,0,.74,0l4.64-2.67c.19-.12.18-.31,0-.43l-5.36-3.1A.81.81,0,0,0,170.8,303.5Zm21.09,12.59,4.63-2.68c.2-.11.19-.31,0-.43l-5.36-3.09a.81.81,0,0,0-.74,0l-4.64,2.68c-.2.11-.19.3,0,.43l5.36,3.09A.84.84,0,0,0,191.89,316.09ZM185.11,320l4.64-2.68c.19-.11.18-.3,0-.43l-5.36-3.09a.84.84,0,0,0-.74,0L179,316.46c-.19.11-.18.31,0,.43l5.36,3.09A.84.84,0,0,0,185.11,320Zm-6.78,3.91,4.64-2.68c.2-.11.19-.3,0-.42l-5.36-3.1a.81.81,0,0,0-.74,0l-4.63,2.67c-.2.12-.19.31,0,.43l5.37,3.1A.82.82,0,0,0,178.33,323.91Zm-6.77,3.91,4.64-2.67c.19-.12.18-.31,0-.43l-5.36-3.1a.81.81,0,0,0-.74,0l-4.64,2.68c-.2.11-.18.3,0,.42l5.36,3.1A.81.81,0,0,0,171.56,327.82Zm33.35-28.1,4.64-2.68c.2-.11.19-.3,0-.42l-5.36-3.1a.81.81,0,0,0-.74,0l-4.63,2.67c-.2.12-.19.31,0,.43l5.36,3.1A.84.84,0,0,0,204.91,299.72Zm-6.25,12.45,10.35-6c.19-.11.18-.3,0-.43l-13-7.51a.84.84,0,0,0-.74,0l-5.35,3.09c-.2.11-.18.31,0,.43l6.89,4c.21.12.22.31,0,.42l-4.28,2.48c-.2.11-.19.3,0,.42l5.36,3.1A.81.81,0,0,0,198.66,312.17ZM164,307.41l-4.63,2.68c-.2.11-.19.3,0,.42l5.36,3.1a.84.84,0,0,0,.74,0l4.64-2.68c.2-.12.19-.31,0-.43l-5.36-3.09A.81.81,0,0,0,164,307.41Zm-6.77,3.91L152.61,314c-.2.11-.19.3,0,.43l5.36,3.09a.84.84,0,0,0,.74,0l4.63-2.68c.2-.11.19-.3,0-.43L158,311.34A.84.84,0,0,0,157.25,311.32Zm-33.87,43.87a.81.81,0,0,0,.74,0l4.64-2.68c.2-.11.19-.3,0-.43L123.37,349a.84.84,0,0,0-.74,0L118,351.67c-.2.12-.19.31,0,.43ZM103,342.62,98.4,345.3c-.2.11-.19.3,0,.43l5.36,3.09a.84.84,0,0,0,.74,0l4.63-2.68c.2-.11.19-.31,0-.43l-5.37-3.09A.82.82,0,0,0,103,342.62Zm10.9,9.18a.84.84,0,0,0,.74,0l4.64-2.68c.2-.11.18-.31,0-.43l-5.36-3.09a.84.84,0,0,0-.74,0l-4.64,2.68c-.19.11-.18.3,0,.43Zm21.41,5.77,4.64-2.68c.19-.11.18-.3,0-.42l-5.36-3.1a.81.81,0,0,0-.74,0L129.22,354c-.19.12-.18.31,0,.43l5.36,3.1A.81.81,0,0,0,135.35,357.57Zm-7.52,3.9a.81.81,0,0,0,.74,0l4.64-2.67c.2-.12.18-.31,0-.43l-5.36-3.1a.84.84,0,0,0-.74,0L122.45,358c-.2.11-.19.3,0,.42Zm-18-22.76-4.63,2.68c-.2.11-.19.3,0,.42l5.36,3.1a.81.81,0,0,0,.74,0l4.64-2.67c.2-.12.18-.31,0-.43l-5.36-3.1A.84.84,0,0,0,109.81,338.71Zm33.88-19.56-4.63,2.67c-.2.12-.19.31,0,.43l5.36,3.1a.81.81,0,0,0,.74,0l4.64-2.67c.2-.12.19-.31,0-.43l-5.36-3.1A.81.81,0,0,0,143.69,319.15Zm-27.1,15.65L112,337.47c-.2.12-.18.31,0,.43l5.36,3.1a.81.81,0,0,0,.74,0l4.64-2.68c.19-.11.18-.3,0-.42l-5.36-3.1A.81.81,0,0,0,116.59,334.8Zm33.88-19.56-4.64,2.67c-.19.12-.18.31,0,.43l5.36,3.09a.81.81,0,0,0,.74,0l4.64-2.68c.19-.11.18-.3,0-.42l-5.36-3.1A.81.81,0,0,0,150.47,315.24Zm-13.55,7.82-4.64,2.68c-.2.11-.18.3,0,.42l5.36,3.1a.81.81,0,0,0,.74,0L143,326.6c.2-.12.19-.31,0-.43l-5.36-3.09A.81.81,0,0,0,136.92,323.06ZM130.14,327l-4.64,2.68c-.19.11-.18.3,0,.43l5.36,3.09a.84.84,0,0,0,.74,0l4.64-2.68c.19-.11.18-.31,0-.43L130.88,327A.84.84,0,0,0,130.14,327Zm-6.78,3.91-4.63,2.68c-.2.12-.19.31,0,.43l5.37,3.09a.81.81,0,0,0,.74,0l4.63-2.68c.2-.11.19-.3,0-.43l-5.37-3.09A.84.84,0,0,0,123.36,330.88ZM158,335.65l4.63-2.68c.2-.11.19-.3,0-.43l-5.37-3.09a.82.82,0,0,0-.73,0l-4.64,2.68c-.2.11-.19.3,0,.43l5.37,3.09A.84.84,0,0,0,158,335.65Zm59.51-59.13-4.64,2.68c-.19.11-.18.31,0,.43l5.36,3.09a.81.81,0,0,0,.74,0l4.64-2.68c.2-.11.18-.3,0-.43l-5.36-3.09A.84.84,0,0,0,217.52,276.52Zm-8.2,4.74-4.64,2.68c-.2.11-.18.3,0,.42l5.36,3.1a.81.81,0,0,0,.74,0l4.63-2.67c.2-.12.19-.31,0-.43l-5.36-3.1A.84.84,0,0,0,209.32,281.26Zm15-8.65-4.64,2.68c-.2.11-.18.3,0,.43l5.36,3.09a.84.84,0,0,0,.74,0l4.63-2.68c.2-.12.19-.31,0-.43L225,272.63A.81.81,0,0,0,224.3,272.61Zm-35.08,36.17,4.64-2.68c.2-.11.18-.3,0-.42l-5.36-3.1a.81.81,0,0,0-.74,0l-4.64,2.67c-.19.12-.18.31,0,.43l5.36,3.1A.84.84,0,0,0,189.22,308.78Zm42.59-40.07a.84.84,0,0,0-.74,0l-4.63,2.68c-.2.11-.19.3,0,.42l5.36,3.1a.81.81,0,0,0,.74,0l4.64-2.67c.2-.12.19-.31,0-.43Zm-67,63,4.64-2.67c.2-.12.18-.31,0-.43L164,325.54a.81.81,0,0,0-.74,0l-4.64,2.68c-.19.11-.18.3,0,.42l5.36,3.1A.81.81,0,0,0,164.78,331.73Zm83.1-48,4.64-2.68c.2-.11.18-.3,0-.43l-5.36-3.09a.84.84,0,0,0-.74,0l-4.64,2.68c-.19.11-.18.3,0,.43l5.36,3.09A.84.84,0,0,0,247.88,283.76Zm-14.43-.51,4.63-2.68c.2-.11.19-.3,0-.43l-5.36-3.09a.84.84,0,0,0-.74,0l-4.64,2.68c-.2.11-.19.3,0,.43l5.36,3.09A.84.84,0,0,0,233.45,283.25Zm6-10.11a.81.81,0,0,0-.74,0l-4.63,2.68c-.2.11-.19.3,0,.42l5.36,3.1a.84.84,0,0,0,.74,0l4.64-2.68c.2-.12.19-.31,0-.43Zm1.43-.83,13,7.52a.81.81,0,0,0,.74,0l4.63-2.67c.2-.12.19-.31,0-.43l-13-7.52a.84.84,0,0,0-.74,0l-4.64,2.68C240.68,272,240.69,272.19,240.9,272.31ZM225.18,281l-4.64,2.67c-.19.12-.18.31,0,.43l5.36,3.09a.81.81,0,0,0,.74,0l4.64-2.68c.19-.11.18-.3,0-.42l-5.36-3.1A.81.81,0,0,0,225.18,281Zm-51,29.44-4.64,2.68c-.2.11-.18.3,0,.42l5.36,3.1a.84.84,0,0,0,.74,0l4.64-2.68c.19-.12.18-.31,0-.43l-5.36-3.09A.81.81,0,0,0,174.18,310.39Zm66.19-22.74a.81.81,0,0,0,.74,0l4.63-2.68c.2-.11.19-.3,0-.42l-5.37-3.1a.82.82,0,0,0-.73,0L235,284.13c-.2.12-.19.31,0,.43ZM181,306.48l-4.63,2.68c-.2.11-.19.3,0,.42l5.36,3.1a.81.81,0,0,0,.74,0l4.63-2.67c.2-.12.19-.31,0-.43l-5.37-3.1A.84.84,0,0,0,181,306.48Zm-50.79,44.8a.84.84,0,0,0,.74,0l4.64-2.68c.19-.11.18-.31,0-.43l-5.36-3.09a.84.84,0,0,0-.74,0l-4.64,2.68c-.19.11-.18.3,0,.43ZM120,341.69l-4.64,2.68c-.2.11-.18.3,0,.42l5.36,3.1a.81.81,0,0,0,.74,0l4.63-2.67c.2-.12.19-.31,0-.43l-5.36-3.1A.84.84,0,0,0,120,341.69Zm17.71,5.69,4.63-2.67c.2-.12.19-.31,0-.43l-5.36-3.09a.81.81,0,0,0-.74,0l-4.64,2.68c-.2.11-.19.3,0,.42l5.36,3.1A.81.81,0,0,0,137.68,347.38Zm6.77-3.91,4.64-2.67c.2-.12.18-.31,0-.43l-5.36-3.1a.81.81,0,0,0-.74,0l-4.63,2.67c-.2.12-.19.31,0,.43l5.36,3.1A.81.81,0,0,0,144.45,343.47Zm6.78-3.91,4.64-2.68c.19-.11.18-.3,0-.42l-5.36-3.1a.81.81,0,0,0-.74,0L145.1,336c-.2.12-.18.31,0,.43l5.36,3.09A.81.81,0,0,0,151.23,339.56Zm-24.49-1.78-4.63,2.67c-.2.12-.19.31,0,.43l5.36,3.1a.81.81,0,0,0,.74,0l4.64-2.67c.2-.12.19-.31,0-.43l-5.36-3.1A.81.81,0,0,0,126.74,337.78Zm6.78-3.91-4.64,2.67c-.19.12-.18.31,0,.43l5.36,3.09a.81.81,0,0,0,.74,0l4.64-2.68c.19-.11.18-.3,0-.42l-5.36-3.1A.81.81,0,0,0,133.52,333.87Zm27.11-15.65L156,320.89c-.2.12-.19.31,0,.43l5.36,3.09a.81.81,0,0,0,.74,0l4.63-2.68c.2-.11.19-.3,0-.42l-5.36-3.1A.81.81,0,0,0,160.63,318.22Zm-6.78,3.91-4.64,2.68c-.19.11-.18.3,0,.42l5.36,3.1a.81.81,0,0,0,.74,0l4.64-2.67c.19-.12.18-.31,0-.43l-5.36-3.1A.81.81,0,0,0,153.85,322.13Zm13.55-7.83L162.77,317c-.2.11-.19.31,0,.43l5.36,3.09a.81.81,0,0,0,.74,0l4.64-2.68c.2-.11.18-.3,0-.43l-5.36-3.09A.84.84,0,0,0,167.4,314.3ZM140.3,330l-4.64,2.68c-.2.11-.19.3,0,.43l5.36,3.09a.84.84,0,0,0,.74,0l4.63-2.68c.2-.11.19-.3,0-.43L141,330A.84.84,0,0,0,140.3,330Zm6.77-3.91-4.63,2.68c-.2.11-.19.3,0,.42l5.36,3.1a.84.84,0,0,0,.74,0l4.64-2.68c.2-.12.19-.31,0-.43l-5.36-3.09A.81.81,0,0,0,147.07,326Zm-4.94,27.62,4.63-2.68c.2-.11.19-.3,0-.42l-5.37-3.1a.81.81,0,0,0-.74,0L136,350.12c-.2.12-.19.31,0,.43l5.37,3.09A.81.81,0,0,0,142.13,353.66Zm-39.77-4L97,346.55a.84.84,0,0,0-.74,0l-4.64,2.68c-.19.11-.18.31,0,.43L97,352.73a.81.81,0,0,0,.74,0l4.64-2.68C102.58,350,102.57,349.77,102.36,349.64Zm10.16,3-5.37-3.1a.84.84,0,0,0-.74,0l-7.13,4.12c-.2.12-.18.31,0,.43l5.36,3.09a.81.81,0,0,0,.74,0l7.13-4.12C112.74,352.94,112.73,352.75,112.52,352.63Zm-18.39-9-5.36-3.09a.81.81,0,0,0-.74,0l-5.7,3.29c-.2.12-.19.31,0,.43l5.36,3.1a.81.81,0,0,0,.74,0l5.71-3.29C94.36,344,94.35,343.78,94.13,343.66Zm4.38-2.53a.81.81,0,0,0,.74,0l4.64-2.68c.19-.11.18-.3,0-.42L98.5,335a.81.81,0,0,0-.74,0l-4.64,2.67c-.2.12-.18.31,0,.43ZM122,356l-5.36-3.1a.81.81,0,0,0-.74,0l-8.92,5.14c-.2.12-.18.31,0,.43l5.36,3.1a.81.81,0,0,0,.74,0l8.91-5.15C122.18,356.33,122.17,356.14,122,356Zm4.45,6.27-5.36-3.09a.84.84,0,0,0-.74,0l-5.71,3.3c-.2.11-.19.3,0,.42L120,366a.81.81,0,0,0,.74,0l5.7-3.29C126.63,362.61,126.62,362.41,126.41,362.29Zm22.48-50.24a.84.84,0,0,0,.74,0l4.64-2.68c.2-.11.18-.3,0-.42l-5.36-3.1a.81.81,0,0,0-.74,0l-4.63,2.67c-.2.12-.19.31,0,.43Zm-13.55,7.82a.84.84,0,0,0,.74,0l4.64-2.68c.19-.11.18-.31,0-.43l-5.36-3.09a.81.81,0,0,0-.74,0L130,316.35c-.19.11-.18.3,0,.43Zm-30,17.35a.84.84,0,0,0,.74,0l4.63-2.68c.2-.11.19-.3,0-.43L105.27,331a.84.84,0,0,0-.74,0L99.9,333.7c-.2.11-.19.3,0,.43ZM142.12,316a.81.81,0,0,0,.74,0l4.63-2.67c.2-.12.19-.31,0-.43l-5.37-3.1a.82.82,0,0,0-.73,0l-4.64,2.68c-.2.11-.19.3,0,.42Zm-13.56,7.82a.84.84,0,0,0,.74,0l4.64-2.68c.2-.11.18-.3,0-.43l-5.36-3.09a.84.84,0,0,0-.74,0l-4.63,2.68c-.2.11-.19.31,0,.43Zm1.57,39a.81.81,0,0,0-.74,0l-7.13,4.12c-.2.11-.19.3,0,.43l5.37,3.09a.84.84,0,0,0,.74,0l7.13-4.12c.2-.12.18-.31,0-.43Zm-11.29-33.4a.81.81,0,0,0,.74,0l4.63-2.67c.2-.12.19-.31,0-.43l-5.36-3.1a.81.81,0,0,0-.74,0l-4.64,2.68c-.2.11-.18.3,0,.42Zm-6.78,3.91a.84.84,0,0,0,.74,0l4.64-2.68c.2-.12.18-.31,0-.43l-5.36-3.09a.81.81,0,0,0-.74,0l-4.64,2.68c-.19.11-.18.3,0,.42Zm143.61-43a.84.84,0,0,0-.74,0l-11.41,6.59c-.2.11-.19.3,0,.43l5.36,3.09a.84.84,0,0,0,.74,0l11.41-6.59c.2-.12.19-.31,0-.43Zm-15,8.65a.81.81,0,0,0-.74,0l-4.63,2.67c-.2.12-.19.31,0,.43l5.36,3.1a.81.81,0,0,0,.74,0l4.64-2.68c.2-.11.19-.3,0-.42ZM148.9,349.75l4.64-2.68c.2-.11.18-.3,0-.43l-5.36-3.09a.84.84,0,0,0-.74,0l-4.64,2.68c-.19.11-.18.3,0,.43l5.36,3.09A.84.84,0,0,0,148.9,349.75Zm78.24-43a.81.81,0,0,0-.74,0l-4.64,2.68c-.19.11-.18.3,0,.43l5.36,3.09a.84.84,0,0,0,.74,0l4.64-2.68c.19-.11.18-.31,0-.43Zm35.31-20.39a.81.81,0,0,0-.74,0l-4.64,2.67c-.19.12-.18.31,0,.43l5.36,3.1a.84.84,0,0,0,.74,0l4.64-2.68c.19-.11.18-.3,0-.42Zm12.14-.81-13-7.52a.84.84,0,0,0-.74,0l-4.64,2.68c-.2.11-.19.3,0,.43l13,7.51a.81.81,0,0,0,.74,0l4.63-2.68C274.81,285.9,274.8,285.71,274.59,285.59Zm-72.77,35.82a.81.81,0,0,0-.74,0l-5.71,3.3c-.2.11-.18.3,0,.42l5.36,3.1a.81.81,0,0,0,.74,0l5.71-3.29c.19-.11.18-.31,0-.43Zm17.12-9.89a.81.81,0,0,0-.74,0l-7.14,4.12c-.19.11-.18.3,0,.42l5.36,3.1a.81.81,0,0,0,.74,0l7.13-4.11c.2-.12.19-.31,0-.43Zm-32.81,19a.81.81,0,0,0-.74,0l-38.17,22c-.19.12-.18.31,0,.43l5.36,3.1a.81.81,0,0,0,.74,0l38.16-22c.2-.11.19-.31,0-.43Zm-40.31,23.27a.81.81,0,0,0-.74,0l-5.7,3.29c-.2.12-.19.31,0,.43l5.36,3.1a.81.81,0,0,0,.74,0l5.71-3.29c.2-.12.19-.31,0-.43ZM194,325.94a.81.81,0,0,0-.74,0l-5.7,3.3c-.2.11-.19.3,0,.42l5.36,3.1a.81.81,0,0,0,.74,0l5.71-3.29c.2-.11.18-.31,0-.43Zm-56,32.33a.81.81,0,0,0-.74,0l-5.71,3.29c-.2.12-.18.31,0,.43l5.36,3.1a.81.81,0,0,0,.74,0l5.7-3.29c.2-.12.19-.31,0-.43Zm71.68-41.39a.81.81,0,0,0-.74,0l-5.7,3.3c-.2.11-.19.3,0,.42l5.37,3.1a.81.81,0,0,0,.74,0l5.7-3.29c.2-.11.19-.31,0-.43Zm24.26-14a.84.84,0,0,0-.74,0l-4.64,2.68c-.2.11-.18.3,0,.42l5.36,3.1a.81.81,0,0,0,.74,0l4.63-2.67c.2-.12.19-.31,0-.43Zm14.84-10.78,4.64-2.68c.2-.11.19-.3,0-.42l-5.36-3.1a.81.81,0,0,0-.74,0l-4.63,2.67c-.2.12-.19.31,0,.43l5.37,3.1A.79.79,0,0,0,248.76,292.09Zm-30.29-.19,4.63-2.68c.2-.11.19-.31,0-.43l-5.36-3.09a.81.81,0,0,0-.74,0l-4.64,2.68c-.2.11-.19.3,0,.43l5.36,3.09A.84.84,0,0,0,218.47,291.9Zm-15.36,26.55,13.56-7.83c.19-.11.18-.3,0-.42l-5.36-3.1a.81.81,0,0,0-.74,0L197,314.91c-.2.11-.19.31,0,.43l5.36,3.09A.81.81,0,0,0,203.11,318.45ZM241.25,296a.81.81,0,0,0,.74,0l4.63-2.67c.2-.12.19-.31,0-.43l-5.36-3.1a.84.84,0,0,0-.74,0l-4.64,2.68c-.2.11-.18.3,0,.42Zm-6.92-4.41L239,288.9c.19-.11.18-.3,0-.42l-5.36-3.1a.81.81,0,0,0-.74,0L228.2,288c-.19.12-.18.31,0,.43l5.36,3.1A.81.81,0,0,0,234.33,291.58Zm-38,30.78,4.63-2.68c.2-.11.19-.3,0-.42l-5.36-3.1a.81.81,0,0,0-.74,0l-4.64,2.67c-.2.12-.19.31,0,.43l5.36,3.1A.84.84,0,0,0,196.34,322.36Zm29.93-17.72a.81.81,0,0,0,.74,0l4.64-2.67c.19-.12.18-.31,0-.43l-5.36-3.1a.81.81,0,0,0-.74,0l-4.64,2.67c-.2.12-.18.31,0,.43Zm-63.82,37.28,4.64-2.67c.2-.12.19-.31,0-.43l-5.37-3.1a.81.81,0,0,0-.74,0l-4.63,2.68c-.2.11-.19.3,0,.42l5.37,3.1A.79.79,0,0,0,162.45,341.92Zm6.78-3.91,4.64-2.68c.19-.11.18-.3,0-.42l-5.36-3.1a.81.81,0,0,0-.74,0l-4.64,2.67c-.19.12-.18.31,0,.43l5.36,3.09A.81.81,0,0,0,169.23,338Zm-13.55,7.82,4.63-2.67c.2-.12.19-.31,0-.43l-5.36-3.09a.81.81,0,0,0-.74,0l-4.64,2.68c-.2.11-.18.3,0,.42l5.36,3.1A.81.81,0,0,0,155.68,345.83Zm27.1-15.64,4.64-2.68c.2-.12.19-.31,0-.43L182,324a.81.81,0,0,0-.74,0l-4.63,2.68c-.2.11-.19.3,0,.42l5.36,3.1A.84.84,0,0,0,182.78,330.19ZM176,334.1l4.63-2.68c.2-.11.19-.3,0-.43l-5.36-3.09a.84.84,0,0,0-.74,0l-4.64,2.68c-.2.11-.19.31,0,.43l5.36,3.09A.84.84,0,0,0,176,334.1Zm13.55-7.83,4.64-2.67c.19-.12.18-.31,0-.43l-5.36-3.1a.81.81,0,0,0-.74,0l-4.64,2.68c-.19.11-.18.3,0,.42l5.36,3.1A.81.81,0,0,0,189.56,326.27Zm31-57.87a.84.84,0,0,0,.74,0l4.64-2.68c.2-.11.18-.3,0-.42l-1.43-.83a.81.81,0,0,0-.74,0l-4.63,2.68c-.2.11-.19.3,0,.42Zm-33.34,21.52a.81.81,0,0,0,.74,0l4.64-2.67c.19-.12.18-.31,0-.43l-5.36-3.1a.81.81,0,0,0-.74,0l-4.64,2.67c-.19.12-.18.31,0,.43Zm13.55-7.83a.84.84,0,0,0,.74,0l4.64-2.68c.2-.11.18-.3,0-.43l-5.36-3.09a.84.84,0,0,0-.74,0l-4.63,2.68c-.2.11-.19.31,0,.43ZM179,294.69a.81.81,0,0,0,.74,0l4.63-2.68c.2-.11.19-.3,0-.42l-5.37-3.1a.79.79,0,0,0-.73,0l-4.64,2.67c-.2.12-.19.31,0,.43ZM194,286a.81.81,0,0,0,.74,0l4.63-2.68c.2-.11.19-.3,0-.42l-5.36-3.1a.81.81,0,0,0-.74,0l-4.64,2.67c-.2.12-.19.31,0,.43Zm-28.61,16.52a.81.81,0,0,0,.74,0l4.64-2.67c.2-.12.18-.31,0-.43l-5.36-3.1a.84.84,0,0,0-.74,0L160,299c-.2.11-.19.3,0,.42Zm6.78-3.91a.81.81,0,0,0,.74,0l4.64-2.68c.19-.11.18-.3,0-.42l-5.36-3.1a.81.81,0,0,0-.74,0l-4.64,2.67c-.19.12-.18.31,0,.43ZM207,276.22a.84.84,0,0,0,.74,0l4.64-2.68c.19-.11.18-.31,0-.43l-1.43-.82a.84.84,0,0,0-.74,0L205.56,275c-.2.11-.19.3,0,.43Zm20.33-11.74a.81.81,0,0,0,.74,0l4.63-2.68c.2-.11.19-.3,0-.43l-1.43-.82a.81.81,0,0,0-.74,0l-4.63,2.67c-.2.12-.19.31,0,.43ZM238.6,271a.84.84,0,0,0,.74,0l4.64-2.68c.19-.11.18-.3,0-.42l-5.36-3.1a.81.81,0,0,0-.74,0l-4.64,2.67c-.19.12-.18.31,0,.43Zm16.94,17.19,4.64-2.68c.19-.11.18-.3,0-.42l-5.36-3.1a.84.84,0,0,0-.74,0l-4.64,2.68c-.19.12-.18.31,0,.43l5.36,3.09A.81.81,0,0,0,255.54,288.18Zm-41.75-15.87a.81.81,0,0,0,.74,0l4.63-2.67c.2-.12.19-.31,0-.43l-1.43-.82a.81.81,0,0,0-.74,0l-4.64,2.68c-.19.11-.18.3,0,.42Zm-55.17,34.12a.84.84,0,0,0,.74,0l4.63-2.68c.2-.11.19-.31,0-.43l-5.36-3.09a.81.81,0,0,0-.74,0l-4.64,2.68c-.2.11-.19.3,0,.43Z" style="fill:#90CAF9"></path><path d="M211.69,295.81l4.64-2.68c.19-.11.18-.3,0-.43l-5.36-3.09a.84.84,0,0,0-.74,0l-4.64,2.68c-.19.11-.18.31,0,.43l5.36,3.09A.81.81,0,0,0,211.69,295.81Zm-9.15-10.64-4.64,2.68c-.19.11-.18.3,0,.43l5.36,3.09a.84.84,0,0,0,.74,0l4.64-2.68c.2-.11.18-.31,0-.43l-5.36-3.09A.84.84,0,0,0,202.54,285.17Zm-15,8.65-7.84,4.53c-.2.11-.19.31,0,.43l5.36,3.09a.84.84,0,0,0,.74,0l7.85-4.53c.2-.12.18-.31,0-.43l-5.36-3.09A.81.81,0,0,0,187.56,293.82Zm8.2-4.74-4.63,2.68c-.2.11-.19.31,0,.43l5.37,3.09a.81.81,0,0,0,.74,0l4.63-2.68c.2-.11.19-.3,0-.43l-5.37-3.09A.84.84,0,0,0,195.76,289.08Zm-18.18,10.51-4.64,2.67c-.2.12-.19.31,0,.43l5.36,3.1a.84.84,0,0,0,.74,0l4.63-2.68c.2-.11.19-.3,0-.42l-5.36-3.1A.81.81,0,0,0,177.58,299.59Zm-6.78,3.91-4.64,2.68c-.19.11-.18.3,0,.42l5.36,3.1a.81.81,0,0,0,.74,0l4.64-2.67c.19-.12.18-.31,0-.43l-5.36-3.1A.81.81,0,0,0,170.8,303.5Zm21.09,12.59,4.63-2.68c.2-.11.19-.31,0-.43l-5.36-3.09a.81.81,0,0,0-.74,0l-4.64,2.68c-.2.11-.19.3,0,.43l5.36,3.09A.84.84,0,0,0,191.89,316.09ZM185.11,320l4.64-2.68c.19-.11.18-.3,0-.43l-5.36-3.09a.84.84,0,0,0-.74,0L179,316.46c-.19.11-.18.31,0,.43l5.36,3.09A.84.84,0,0,0,185.11,320Zm-6.78,3.91,4.64-2.68c.2-.11.19-.3,0-.42l-5.36-3.1a.81.81,0,0,0-.74,0l-4.63,2.67c-.2.12-.19.31,0,.43l5.37,3.1A.82.82,0,0,0,178.33,323.91Zm-6.77,3.91,4.64-2.67c.19-.12.18-.31,0-.43l-5.36-3.1a.81.81,0,0,0-.74,0l-4.64,2.68c-.2.11-.18.3,0,.42l5.36,3.1A.81.81,0,0,0,171.56,327.82Zm33.35-28.1,4.64-2.68c.2-.11.19-.3,0-.42l-5.36-3.1a.81.81,0,0,0-.74,0l-4.63,2.67c-.2.12-.19.31,0,.43l5.36,3.1A.84.84,0,0,0,204.91,299.72Zm-6.25,12.45,10.35-6c.19-.11.18-.3,0-.43l-13-7.51a.84.84,0,0,0-.74,0l-5.35,3.09c-.2.11-.18.31,0,.43l6.89,4c.21.12.22.31,0,.42l-4.28,2.48c-.2.11-.19.3,0,.42l5.36,3.1A.81.81,0,0,0,198.66,312.17ZM164,307.41l-4.63,2.68c-.2.11-.19.3,0,.42l5.36,3.1a.84.84,0,0,0,.74,0l4.64-2.68c.2-.12.19-.31,0-.43l-5.36-3.09A.81.81,0,0,0,164,307.41Zm-6.77,3.91L152.61,314c-.2.11-.19.3,0,.43l5.36,3.09a.84.84,0,0,0,.74,0l4.63-2.68c.2-.11.19-.3,0-.43L158,311.34A.84.84,0,0,0,157.25,311.32Zm-33.87,43.87a.81.81,0,0,0,.74,0l4.64-2.68c.2-.11.19-.3,0-.43L123.37,349a.84.84,0,0,0-.74,0L118,351.67c-.2.12-.19.31,0,.43ZM103,342.62,98.4,345.3c-.2.11-.19.3,0,.43l5.36,3.09a.84.84,0,0,0,.74,0l4.63-2.68c.2-.11.19-.31,0-.43l-5.37-3.09A.82.82,0,0,0,103,342.62Zm10.9,9.18a.84.84,0,0,0,.74,0l4.64-2.68c.2-.11.18-.31,0-.43l-5.36-3.09a.84.84,0,0,0-.74,0l-4.64,2.68c-.19.11-.18.3,0,.43Zm21.41,5.77,4.64-2.68c.19-.11.18-.3,0-.42l-5.36-3.1a.81.81,0,0,0-.74,0L129.22,354c-.19.12-.18.31,0,.43l5.36,3.1A.81.81,0,0,0,135.35,357.57Zm-7.52,3.9a.81.81,0,0,0,.74,0l4.64-2.67c.2-.12.18-.31,0-.43l-5.36-3.1a.84.84,0,0,0-.74,0L122.45,358c-.2.11-.19.3,0,.42Zm-18-22.76-4.63,2.68c-.2.11-.19.3,0,.42l5.36,3.1a.81.81,0,0,0,.74,0l4.64-2.67c.2-.12.18-.31,0-.43l-5.36-3.1A.84.84,0,0,0,109.81,338.71Zm33.88-19.56-4.63,2.67c-.2.12-.19.31,0,.43l5.36,3.1a.81.81,0,0,0,.74,0l4.64-2.67c.2-.12.19-.31,0-.43l-5.36-3.1A.81.81,0,0,0,143.69,319.15Zm-27.1,15.65L112,337.47c-.2.12-.18.31,0,.43l5.36,3.1a.81.81,0,0,0,.74,0l4.64-2.68c.19-.11.18-.3,0-.42l-5.36-3.1A.81.81,0,0,0,116.59,334.8Zm33.88-19.56-4.64,2.67c-.19.12-.18.31,0,.43l5.36,3.09a.81.81,0,0,0,.74,0l4.64-2.68c.19-.11.18-.3,0-.42l-5.36-3.1A.81.81,0,0,0,150.47,315.24Zm-13.55,7.82-4.64,2.68c-.2.11-.18.3,0,.42l5.36,3.1a.81.81,0,0,0,.74,0L143,326.6c.2-.12.19-.31,0-.43l-5.36-3.09A.81.81,0,0,0,136.92,323.06ZM130.14,327l-4.64,2.68c-.19.11-.18.3,0,.43l5.36,3.09a.84.84,0,0,0,.74,0l4.64-2.68c.19-.11.18-.31,0-.43L130.88,327A.84.84,0,0,0,130.14,327Zm-6.78,3.91-4.63,2.68c-.2.12-.19.31,0,.43l5.37,3.09a.81.81,0,0,0,.74,0l4.63-2.68c.2-.11.19-.3,0-.43l-5.37-3.09A.84.84,0,0,0,123.36,330.88ZM158,335.65l4.63-2.68c.2-.11.19-.3,0-.43l-5.37-3.09a.82.82,0,0,0-.73,0l-4.64,2.68c-.2.11-.19.3,0,.43l5.37,3.09A.84.84,0,0,0,158,335.65Zm59.51-59.13-4.64,2.68c-.19.11-.18.31,0,.43l5.36,3.09a.81.81,0,0,0,.74,0l4.64-2.68c.2-.11.18-.3,0-.43l-5.36-3.09A.84.84,0,0,0,217.52,276.52Zm-8.2,4.74-4.64,2.68c-.2.11-.18.3,0,.42l5.36,3.1a.81.81,0,0,0,.74,0l4.63-2.67c.2-.12.19-.31,0-.43l-5.36-3.1A.84.84,0,0,0,209.32,281.26Zm15-8.65-4.64,2.68c-.2.11-.18.3,0,.43l5.36,3.09a.84.84,0,0,0,.74,0l4.63-2.68c.2-.12.19-.31,0-.43L225,272.63A.81.81,0,0,0,224.3,272.61Zm-35.08,36.17,4.64-2.68c.2-.11.18-.3,0-.42l-5.36-3.1a.81.81,0,0,0-.74,0l-4.64,2.67c-.19.12-.18.31,0,.43l5.36,3.1A.84.84,0,0,0,189.22,308.78Zm42.59-40.07a.84.84,0,0,0-.74,0l-4.63,2.68c-.2.11-.19.3,0,.42l5.36,3.1a.81.81,0,0,0,.74,0l4.64-2.67c.2-.12.19-.31,0-.43Zm-67,63,4.64-2.67c.2-.12.18-.31,0-.43L164,325.54a.81.81,0,0,0-.74,0l-4.64,2.68c-.19.11-.18.3,0,.42l5.36,3.1A.81.81,0,0,0,164.78,331.73Zm83.1-48,4.64-2.68c.2-.11.18-.3,0-.43l-5.36-3.09a.84.84,0,0,0-.74,0l-4.64,2.68c-.19.11-.18.3,0,.43l5.36,3.09A.84.84,0,0,0,247.88,283.76Zm-14.43-.51,4.63-2.68c.2-.11.19-.3,0-.43l-5.36-3.09a.84.84,0,0,0-.74,0l-4.64,2.68c-.2.11-.19.3,0,.43l5.36,3.09A.84.84,0,0,0,233.45,283.25Zm6-10.11a.81.81,0,0,0-.74,0l-4.63,2.68c-.2.11-.19.3,0,.42l5.36,3.1a.84.84,0,0,0,.74,0l4.64-2.68c.2-.12.19-.31,0-.43Zm1.43-.83,13,7.52a.81.81,0,0,0,.74,0l4.63-2.67c.2-.12.19-.31,0-.43l-13-7.52a.84.84,0,0,0-.74,0l-4.64,2.68C240.68,272,240.69,272.19,240.9,272.31ZM225.18,281l-4.64,2.67c-.19.12-.18.31,0,.43l5.36,3.09a.81.81,0,0,0,.74,0l4.64-2.68c.19-.11.18-.3,0-.42l-5.36-3.1A.81.81,0,0,0,225.18,281Zm-51,29.44-4.64,2.68c-.2.11-.18.3,0,.42l5.36,3.1a.84.84,0,0,0,.74,0l4.64-2.68c.19-.12.18-.31,0-.43l-5.36-3.09A.81.81,0,0,0,174.18,310.39Zm66.19-22.74a.81.81,0,0,0,.74,0l4.63-2.68c.2-.11.19-.3,0-.42l-5.37-3.1a.82.82,0,0,0-.73,0L235,284.13c-.2.12-.19.31,0,.43ZM181,306.48l-4.63,2.68c-.2.11-.19.3,0,.42l5.36,3.1a.81.81,0,0,0,.74,0l4.63-2.67c.2-.12.19-.31,0-.43l-5.37-3.1A.84.84,0,0,0,181,306.48Zm-50.79,44.8a.84.84,0,0,0,.74,0l4.64-2.68c.19-.11.18-.31,0-.43l-5.36-3.09a.84.84,0,0,0-.74,0l-4.64,2.68c-.19.11-.18.3,0,.43ZM120,341.69l-4.64,2.68c-.2.11-.18.3,0,.42l5.36,3.1a.81.81,0,0,0,.74,0l4.63-2.67c.2-.12.19-.31,0-.43l-5.36-3.1A.84.84,0,0,0,120,341.69Zm17.71,5.69,4.63-2.67c.2-.12.19-.31,0-.43l-5.36-3.09a.81.81,0,0,0-.74,0l-4.64,2.68c-.2.11-.19.3,0,.42l5.36,3.1A.81.81,0,0,0,137.68,347.38Zm6.77-3.91,4.64-2.67c.2-.12.18-.31,0-.43l-5.36-3.1a.81.81,0,0,0-.74,0l-4.63,2.67c-.2.12-.19.31,0,.43l5.36,3.1A.81.81,0,0,0,144.45,343.47Zm6.78-3.91,4.64-2.68c.19-.11.18-.3,0-.42l-5.36-3.1a.81.81,0,0,0-.74,0L145.1,336c-.2.12-.18.31,0,.43l5.36,3.09A.81.81,0,0,0,151.23,339.56Zm-24.49-1.78-4.63,2.67c-.2.12-.19.31,0,.43l5.36,3.1a.81.81,0,0,0,.74,0l4.64-2.67c.2-.12.19-.31,0-.43l-5.36-3.1A.81.81,0,0,0,126.74,337.78Zm6.78-3.91-4.64,2.67c-.19.12-.18.31,0,.43l5.36,3.09a.81.81,0,0,0,.74,0l4.64-2.68c.19-.11.18-.3,0-.42l-5.36-3.1A.81.81,0,0,0,133.52,333.87Zm27.11-15.65L156,320.89c-.2.12-.19.31,0,.43l5.36,3.09a.81.81,0,0,0,.74,0l4.63-2.68c.2-.11.19-.3,0-.42l-5.36-3.1A.81.81,0,0,0,160.63,318.22Zm-6.78,3.91-4.64,2.68c-.19.11-.18.3,0,.42l5.36,3.1a.81.81,0,0,0,.74,0l4.64-2.67c.19-.12.18-.31,0-.43l-5.36-3.1A.81.81,0,0,0,153.85,322.13Zm13.55-7.83L162.77,317c-.2.11-.19.31,0,.43l5.36,3.09a.81.81,0,0,0,.74,0l4.64-2.68c.2-.11.18-.3,0-.43l-5.36-3.09A.84.84,0,0,0,167.4,314.3ZM140.3,330l-4.64,2.68c-.2.11-.19.3,0,.43l5.36,3.09a.84.84,0,0,0,.74,0l4.63-2.68c.2-.11.19-.3,0-.43L141,330A.84.84,0,0,0,140.3,330Zm6.77-3.91-4.63,2.68c-.2.11-.19.3,0,.42l5.36,3.1a.84.84,0,0,0,.74,0l4.64-2.68c.2-.12.19-.31,0-.43l-5.36-3.09A.81.81,0,0,0,147.07,326Zm-4.94,27.62,4.63-2.68c.2-.11.19-.3,0-.42l-5.37-3.1a.81.81,0,0,0-.74,0L136,350.12c-.2.12-.19.31,0,.43l5.37,3.09A.81.81,0,0,0,142.13,353.66Zm-39.77-4L97,346.55a.84.84,0,0,0-.74,0l-4.64,2.68c-.19.11-.18.31,0,.43L97,352.73a.81.81,0,0,0,.74,0l4.64-2.68C102.58,350,102.57,349.77,102.36,349.64Zm10.16,3-5.37-3.1a.84.84,0,0,0-.74,0l-7.13,4.12c-.2.12-.18.31,0,.43l5.36,3.09a.81.81,0,0,0,.74,0l7.13-4.12C112.74,352.94,112.73,352.75,112.52,352.63Zm-18.39-9-5.36-3.09a.81.81,0,0,0-.74,0l-5.7,3.29c-.2.12-.19.31,0,.43l5.36,3.1a.81.81,0,0,0,.74,0l5.71-3.29C94.36,344,94.35,343.78,94.13,343.66Zm4.38-2.53a.81.81,0,0,0,.74,0l4.64-2.68c.19-.11.18-.3,0-.42L98.5,335a.81.81,0,0,0-.74,0l-4.64,2.67c-.2.12-.18.31,0,.43ZM122,356l-5.36-3.1a.81.81,0,0,0-.74,0l-8.92,5.14c-.2.12-.18.31,0,.43l5.36,3.1a.81.81,0,0,0,.74,0l8.91-5.15C122.18,356.33,122.17,356.14,122,356Zm4.45,6.27-5.36-3.09a.84.84,0,0,0-.74,0l-5.71,3.3c-.2.11-.19.3,0,.42L120,366a.81.81,0,0,0,.74,0l5.7-3.29C126.63,362.61,126.62,362.41,126.41,362.29Zm22.48-50.24a.84.84,0,0,0,.74,0l4.64-2.68c.2-.11.18-.3,0-.42l-5.36-3.1a.81.81,0,0,0-.74,0l-4.63,2.67c-.2.12-.19.31,0,.43Zm-13.55,7.82a.84.84,0,0,0,.74,0l4.64-2.68c.19-.11.18-.31,0-.43l-5.36-3.09a.81.81,0,0,0-.74,0L130,316.35c-.19.11-.18.3,0,.43Zm-30,17.35a.84.84,0,0,0,.74,0l4.63-2.68c.2-.11.19-.3,0-.43L105.27,331a.84.84,0,0,0-.74,0L99.9,333.7c-.2.11-.19.3,0,.43ZM142.12,316a.81.81,0,0,0,.74,0l4.63-2.67c.2-.12.19-.31,0-.43l-5.37-3.1a.82.82,0,0,0-.73,0l-4.64,2.68c-.2.11-.19.3,0,.42Zm-13.56,7.82a.84.84,0,0,0,.74,0l4.64-2.68c.2-.11.18-.3,0-.43l-5.36-3.09a.84.84,0,0,0-.74,0l-4.63,2.68c-.2.11-.19.31,0,.43Zm1.57,39a.81.81,0,0,0-.74,0l-7.13,4.12c-.2.11-.19.3,0,.43l5.37,3.09a.84.84,0,0,0,.74,0l7.13-4.12c.2-.12.18-.31,0-.43Zm-11.29-33.4a.81.81,0,0,0,.74,0l4.63-2.67c.2-.12.19-.31,0-.43l-5.36-3.1a.81.81,0,0,0-.74,0l-4.64,2.68c-.2.11-.18.3,0,.42Zm-6.78,3.91a.84.84,0,0,0,.74,0l4.64-2.68c.2-.12.18-.31,0-.43l-5.36-3.09a.81.81,0,0,0-.74,0l-4.64,2.68c-.19.11-.18.3,0,.42Zm143.61-43a.84.84,0,0,0-.74,0l-11.41,6.59c-.2.11-.19.3,0,.43l5.36,3.09a.84.84,0,0,0,.74,0l11.41-6.59c.2-.12.19-.31,0-.43Zm-15,8.65a.81.81,0,0,0-.74,0l-4.63,2.67c-.2.12-.19.31,0,.43l5.36,3.1a.81.81,0,0,0,.74,0l4.64-2.68c.2-.11.19-.3,0-.42ZM148.9,349.75l4.64-2.68c.2-.11.18-.3,0-.43l-5.36-3.09a.84.84,0,0,0-.74,0l-4.64,2.68c-.19.11-.18.3,0,.43l5.36,3.09A.84.84,0,0,0,148.9,349.75Zm78.24-43a.81.81,0,0,0-.74,0l-4.64,2.68c-.19.11-.18.3,0,.43l5.36,3.09a.84.84,0,0,0,.74,0l4.64-2.68c.19-.11.18-.31,0-.43Zm35.31-20.39a.81.81,0,0,0-.74,0l-4.64,2.67c-.19.12-.18.31,0,.43l5.36,3.1a.84.84,0,0,0,.74,0l4.64-2.68c.19-.11.18-.3,0-.42Zm12.14-.81-13-7.52a.84.84,0,0,0-.74,0l-4.64,2.68c-.2.11-.19.3,0,.43l13,7.51a.81.81,0,0,0,.74,0l4.63-2.68C274.81,285.9,274.8,285.71,274.59,285.59Zm-72.77,35.82a.81.81,0,0,0-.74,0l-5.71,3.3c-.2.11-.18.3,0,.42l5.36,3.1a.81.81,0,0,0,.74,0l5.71-3.29c.19-.11.18-.31,0-.43Zm17.12-9.89a.81.81,0,0,0-.74,0l-7.14,4.12c-.19.11-.18.3,0,.42l5.36,3.1a.81.81,0,0,0,.74,0l7.13-4.11c.2-.12.19-.31,0-.43Zm-32.81,19a.81.81,0,0,0-.74,0l-38.17,22c-.19.12-.18.31,0,.43l5.36,3.1a.81.81,0,0,0,.74,0l38.16-22c.2-.11.19-.31,0-.43Zm-40.31,23.27a.81.81,0,0,0-.74,0l-5.7,3.29c-.2.12-.19.31,0,.43l5.36,3.1a.81.81,0,0,0,.74,0l5.71-3.29c.2-.12.19-.31,0-.43ZM194,325.94a.81.81,0,0,0-.74,0l-5.7,3.3c-.2.11-.19.3,0,.42l5.36,3.1a.81.81,0,0,0,.74,0l5.71-3.29c.2-.11.18-.31,0-.43Zm-56,32.33a.81.81,0,0,0-.74,0l-5.71,3.29c-.2.12-.18.31,0,.43l5.36,3.1a.81.81,0,0,0,.74,0l5.7-3.29c.2-.12.19-.31,0-.43Zm71.68-41.39a.81.81,0,0,0-.74,0l-5.7,3.3c-.2.11-.19.3,0,.42l5.37,3.1a.81.81,0,0,0,.74,0l5.7-3.29c.2-.11.19-.31,0-.43Zm24.26-14a.84.84,0,0,0-.74,0l-4.64,2.68c-.2.11-.18.3,0,.42l5.36,3.1a.81.81,0,0,0,.74,0l4.63-2.67c.2-.12.19-.31,0-.43Zm14.84-10.78,4.64-2.68c.2-.11.19-.3,0-.42l-5.36-3.1a.81.81,0,0,0-.74,0l-4.63,2.67c-.2.12-.19.31,0,.43l5.37,3.1A.79.79,0,0,0,248.76,292.09Zm-30.29-.19,4.63-2.68c.2-.11.19-.31,0-.43l-5.36-3.09a.81.81,0,0,0-.74,0l-4.64,2.68c-.2.11-.19.3,0,.43l5.36,3.09A.84.84,0,0,0,218.47,291.9Zm-15.36,26.55,13.56-7.83c.19-.11.18-.3,0-.42l-5.36-3.1a.81.81,0,0,0-.74,0L197,314.91c-.2.11-.19.31,0,.43l5.36,3.09A.81.81,0,0,0,203.11,318.45ZM241.25,296a.81.81,0,0,0,.74,0l4.63-2.67c.2-.12.19-.31,0-.43l-5.36-3.1a.84.84,0,0,0-.74,0l-4.64,2.68c-.2.11-.18.3,0,.42Zm-6.92-4.41L239,288.9c.19-.11.18-.3,0-.42l-5.36-3.1a.81.81,0,0,0-.74,0L228.2,288c-.19.12-.18.31,0,.43l5.36,3.1A.81.81,0,0,0,234.33,291.58Zm-38,30.78,4.63-2.68c.2-.11.19-.3,0-.42l-5.36-3.1a.81.81,0,0,0-.74,0l-4.64,2.67c-.2.12-.19.31,0,.43l5.36,3.1A.84.84,0,0,0,196.34,322.36Zm29.93-17.72a.81.81,0,0,0,.74,0l4.64-2.67c.19-.12.18-.31,0-.43l-5.36-3.1a.81.81,0,0,0-.74,0l-4.64,2.67c-.2.12-.18.31,0,.43Zm-63.82,37.28,4.64-2.67c.2-.12.19-.31,0-.43l-5.37-3.1a.81.81,0,0,0-.74,0l-4.63,2.68c-.2.11-.19.3,0,.42l5.37,3.1A.79.79,0,0,0,162.45,341.92Zm6.78-3.91,4.64-2.68c.19-.11.18-.3,0-.42l-5.36-3.1a.81.81,0,0,0-.74,0l-4.64,2.67c-.19.12-.18.31,0,.43l5.36,3.09A.81.81,0,0,0,169.23,338Zm-13.55,7.82,4.63-2.67c.2-.12.19-.31,0-.43l-5.36-3.09a.81.81,0,0,0-.74,0l-4.64,2.68c-.2.11-.18.3,0,.42l5.36,3.1A.81.81,0,0,0,155.68,345.83Zm27.1-15.64,4.64-2.68c.2-.12.19-.31,0-.43L182,324a.81.81,0,0,0-.74,0l-4.63,2.68c-.2.11-.19.3,0,.42l5.36,3.1A.84.84,0,0,0,182.78,330.19ZM176,334.1l4.63-2.68c.2-.11.19-.3,0-.43l-5.36-3.09a.84.84,0,0,0-.74,0l-4.64,2.68c-.2.11-.19.31,0,.43l5.36,3.09A.84.84,0,0,0,176,334.1Zm13.55-7.83,4.64-2.67c.19-.12.18-.31,0-.43l-5.36-3.1a.81.81,0,0,0-.74,0l-4.64,2.68c-.19.11-.18.3,0,.42l5.36,3.1A.81.81,0,0,0,189.56,326.27Zm31-57.87a.84.84,0,0,0,.74,0l4.64-2.68c.2-.11.18-.3,0-.42l-1.43-.83a.81.81,0,0,0-.74,0l-4.63,2.68c-.2.11-.19.3,0,.42Zm-33.34,21.52a.81.81,0,0,0,.74,0l4.64-2.67c.19-.12.18-.31,0-.43l-5.36-3.1a.81.81,0,0,0-.74,0l-4.64,2.67c-.19.12-.18.31,0,.43Zm13.55-7.83a.84.84,0,0,0,.74,0l4.64-2.68c.2-.11.18-.3,0-.43l-5.36-3.09a.84.84,0,0,0-.74,0l-4.63,2.68c-.2.11-.19.31,0,.43ZM179,294.69a.81.81,0,0,0,.74,0l4.63-2.68c.2-.11.19-.3,0-.42l-5.37-3.1a.79.79,0,0,0-.73,0l-4.64,2.67c-.2.12-.19.31,0,.43ZM194,286a.81.81,0,0,0,.74,0l4.63-2.68c.2-.11.19-.3,0-.42l-5.36-3.1a.81.81,0,0,0-.74,0l-4.64,2.67c-.2.12-.19.31,0,.43Zm-28.61,16.52a.81.81,0,0,0,.74,0l4.64-2.67c.2-.12.18-.31,0-.43l-5.36-3.1a.84.84,0,0,0-.74,0L160,299c-.2.11-.19.3,0,.42Zm6.78-3.91a.81.81,0,0,0,.74,0l4.64-2.68c.19-.11.18-.3,0-.42l-5.36-3.1a.81.81,0,0,0-.74,0l-4.64,2.67c-.19.12-.18.31,0,.43ZM207,276.22a.84.84,0,0,0,.74,0l4.64-2.68c.19-.11.18-.31,0-.43l-1.43-.82a.84.84,0,0,0-.74,0L205.56,275c-.2.11-.19.3,0,.43Zm20.33-11.74a.81.81,0,0,0,.74,0l4.63-2.68c.2-.11.19-.3,0-.43l-1.43-.82a.81.81,0,0,0-.74,0l-4.63,2.67c-.2.12-.19.31,0,.43ZM238.6,271a.84.84,0,0,0,.74,0l4.64-2.68c.19-.11.18-.3,0-.42l-5.36-3.1a.81.81,0,0,0-.74,0l-4.64,2.67c-.19.12-.18.31,0,.43Zm16.94,17.19,4.64-2.68c.19-.11.18-.3,0-.42l-5.36-3.1a.84.84,0,0,0-.74,0l-4.64,2.68c-.19.12-.18.31,0,.43l5.36,3.09A.81.81,0,0,0,255.54,288.18Zm-41.75-15.87a.81.81,0,0,0,.74,0l4.63-2.67c.2-.12.19-.31,0-.43l-1.43-.82a.81.81,0,0,0-.74,0l-4.64,2.68c-.19.11-.18.3,0,.42Zm-55.17,34.12a.84.84,0,0,0,.74,0l4.63-2.68c.2-.11.19-.31,0-.43l-5.36-3.09a.81.81,0,0,0-.74,0l-4.64,2.68c-.2.11-.19.3,0,.43Z" style="fill:#fff;opacity:0.8"></path><path d="M188.67,347.11l45.75-26.42a5.51,5.51,0,0,1,5,0l26.23,15.15c1.38.79,1.38,2.08,0,2.88L219.9,365.14a5.57,5.57,0,0,1-5,0L188.67,350C187.29,349.19,187.29,347.9,188.67,347.11Z" style="fill:#90CAF9"></path><path d="M188.67,347.11l45.75-26.42a5.51,5.51,0,0,1,5,0l26.23,15.15c1.38.79,1.38,2.08,0,2.88L219.9,365.14a5.57,5.57,0,0,1-5,0L188.67,350C187.29,349.19,187.29,347.9,188.67,347.11Z" style="fill:#fff;opacity:0.4"></path><path d="M37.83,330.51a6.76,6.76,0,0,0,1.28.55,6.15,6.15,0,0,1-1.28-.54,2.65,2.65,0,0,1-.39-.26A3.73,3.73,0,0,0,37.83,330.51Z" style="fill:#90CAF9"></path><path d="M209.55,91.24c-.3-2.16-2-2.94-4.12-1.73L45.89,181.62A8.51,8.51,0,0,0,43,184.71l-7.8-4.49a8.57,8.57,0,0,1,2.94-3.11L197.63,85a7.78,7.78,0,0,1,11.92,6.24Z" style="fill:#fff;opacity:0.85"></path><path d="M45.11,330.9l.07,0,0,0Z" style="fill:#90CAF9"></path><path d="M334.51,312.49a8.92,8.92,0,0,1-4.16,6.91L170.81,411.5a8.39,8.39,0,0,1-4.16,1v-9a8.51,8.51,0,0,0,4.16-1l159.54-92.1c2.14-1.25,2.29-3.2.42-4.54A9,9,0,0,1,334.51,312.49Z" style="fill:#fff;opacity:0.7000000000000001"></path></g></g></g><g id="freepik--Folder--inject-77"><g id="freepik--folder--inject-77"><path d="M287.29,264.66,263.66,141.84a2.67,2.67,0,0,0-1.44-2l-3.28-1.92a6.86,6.86,0,0,0-2.63-1.25,2.11,2.11,0,0,0-.55.06l-.19.07a5.62,5.62,0,0,0-.82.39L105.94,223.08a4.72,4.72,0,0,0-1,.85c-.17.19-.33.39-.48.59s-.24.39-.34.58a5.43,5.43,0,0,0-.63,3.47l23.64,122.81a8.3,8.3,0,0,0,3.19,5.08,6.32,6.32,0,0,0,5.31-.19c-.06,0,.21-.1.4-.21l148.81-85.92A5.54,5.54,0,0,0,287.29,264.66Z" style="fill:#455a64"></path><path d="M132.08,354.28,108.44,231.46A5.56,5.56,0,0,1,111,226l148.81-85.92a2.47,2.47,0,0,1,3.9,1.78l23.63,122.82a5.54,5.54,0,0,1-2.5,5.48L136,356.06A2.47,2.47,0,0,1,132.08,354.28Z" style="fill:#37474f"></path><path d="M135.58,356.27a6.32,6.32,0,0,1-5.31.19,8.3,8.3,0,0,1-3.19-5.08L103.44,228.57a5.43,5.43,0,0,1,.63-3.47l5,2.89a5.39,5.39,0,0,0-.63,3.46l23.64,122.83A2.44,2.44,0,0,0,135.58,356.27Z" style="fill:#263238"></path><path d="M258.94,137.9l3.31,1.93v0a2.59,2.59,0,0,0-2.49.22L111,226a5.07,5.07,0,0,0-1.88,2l-5-2.89c.1-.19.22-.39.34-.58s.31-.4.48-.59a4.72,4.72,0,0,1,1-.85l148.81-85.91a5.62,5.62,0,0,1,.82-.39l.19-.07a2.11,2.11,0,0,1,.55-.06A6.86,6.86,0,0,1,258.94,137.9Z" style="fill:#455a64"></path><path d="M137.55,327.14a4.55,4.55,0,0,1-3.82.14,6,6,0,0,1-2.3-3.65l-17-88.36a3.94,3.94,0,0,1,.45-2.49l3.61,2.08a3.87,3.87,0,0,0-.46,2.49l17,88.36A1.75,1.75,0,0,0,137.55,327.14Z" style="fill:#90CAF9"></path><path d="M137.55,327.14a4.55,4.55,0,0,1-3.82.14,6,6,0,0,1-2.3-3.65l-17-88.36a3.94,3.94,0,0,1,.45-2.49l3.61,2.08a3.87,3.87,0,0,0-.46,2.49l17,88.36A1.75,1.75,0,0,0,137.55,327.14Z" style="fill:#fff;opacity:0.5"></path><path d="M135,325.71l-17-88.36a4,4,0,0,1,1.8-3.94l140-80.88a1.78,1.78,0,0,1,2.81,1.29l17,88.35a4,4,0,0,1-1.81,3.94L137.83,327A1.77,1.77,0,0,1,135,325.71Z" style="fill:#90CAF9"></path><path d="M135,325.71l-17-88.36a4,4,0,0,1,1.8-3.94l140-80.88a1.78,1.78,0,0,1,2.81,1.29l17,88.35a4,4,0,0,1-1.81,3.94L137.83,327A1.77,1.77,0,0,1,135,325.71Z" style="fill:#fff;opacity:0.7000000000000001"></path><path d="M259.28,151l2.38,1.39h0a1.88,1.88,0,0,0-1.79.16l-140,80.87a3.55,3.55,0,0,0-1.34,1.45l-3.61-2.08c.08-.14.16-.28.25-.42a3.54,3.54,0,0,1,.35-.42,3.35,3.35,0,0,1,.75-.61l140-80.88a5.18,5.18,0,0,1,.58-.28.33.33,0,0,1,.14,0,1.1,1.1,0,0,1,.39,0A4.84,4.84,0,0,1,259.28,151Z" style="fill:#90CAF9"></path><path d="M259.28,151l2.38,1.39h0a1.88,1.88,0,0,0-1.79.16l-140,80.87a3.55,3.55,0,0,0-1.34,1.45l-3.61-2.08c.08-.14.16-.28.25-.42a3.54,3.54,0,0,1,.35-.42,3.35,3.35,0,0,1,.75-.61l140-80.88a5.18,5.18,0,0,1,.58-.28.33.33,0,0,1,.14,0,1.1,1.1,0,0,1,.39,0A4.84,4.84,0,0,1,259.28,151Z" style="fill:#fff;opacity:0.85"></path><g id="freepik--Document--inject-77"><path d="M224.64,234.3a3.86,3.86,0,0,1-1.69-3.05V108.08a4,4,0,0,1,1.8-3.12l79.65-46.1a3.38,3.38,0,0,1,5.18,3V185a4,4,0,0,1-1.8,3.12l-79.65,46.1A3.87,3.87,0,0,1,224.64,234.3Z" style="fill:#f0f0f0"></path><path d="M228.13,234.24l79.65-46.1a4,4,0,0,0,1.8-3.12V61.85c0-1.15-.81-1.62-1.8-1l-79.65,46.1a4,4,0,0,0-1.8,3.11V233.2C226.33,234.35,227.13,234.81,228.13,234.24Z" style="fill:#fafafa"></path><path d="M308.58,61.47a.63.63,0,0,1,.08.38V185a3,3,0,0,1-1.34,2.32l-79.65,46.1a1,1,0,0,1-.35.14.66.66,0,0,1-.08-.38V110a3.05,3.05,0,0,1,1.35-2.32l79.64-46.1a.8.8,0,0,1,.35-.12h0m0-.91a1.6,1.6,0,0,0-.8.25l-79.65,46.1a4,4,0,0,0-1.8,3.11V233.2c0,.81.4,1.28,1,1.28a1.69,1.69,0,0,0,.81-.24l79.65-46.1a4,4,0,0,0,1.8-3.12V61.85c0-.82-.41-1.29-1-1.29Z" style="fill:#ebebeb"></path><path d="M227.89,234.36a3.36,3.36,0,0,1-4.93-3.11V108.08a3.75,3.75,0,0,1,.52-1.78l3.38,2a3.62,3.62,0,0,0-.53,1.77V233.2C226.33,234.25,227,234.73,227.89,234.36Z" style="fill:#e0e0e0"></path><path d="M267.59,95.85,295.68,79.4c.87-.51,1.58-.1,1.58.92V81a3.53,3.53,0,0,1-1.58,2.75l-28.09,16.45c-.87.5-1.58.09-1.58-.92V98.6A3.53,3.53,0,0,1,267.59,95.85Z" style="fill:#e0e0e0"></path><path d="M267.59,106.58l28.09-16.45c.87-.51,1.58-.1,1.58.91v.63a3.5,3.5,0,0,1-1.58,2.75l-28.09,16.45c-.87.51-1.58.1-1.58-.91v-.64A3.5,3.5,0,0,1,267.59,106.58Z" style="fill:#e0e0e0"></path><path d="M267.59,117.3l28.09-16.45c.87-.5,1.58-.09,1.58.92v.63a3.53,3.53,0,0,1-1.58,2.75L267.59,121.6c-.87.5-1.58.09-1.58-.92v-.63A3.53,3.53,0,0,1,267.59,117.3Z" style="fill:#e0e0e0"></path><path d="M237.92,155.82l57.76-33.52c.87-.5,1.58-.09,1.58.92v.63a3.53,3.53,0,0,1-1.58,2.75l-57.76,33.52c-.87.5-1.58.09-1.58-.92v-.63A3.53,3.53,0,0,1,237.92,155.82Z" style="fill:#e0e0e0"></path><path d="M237.92,145.09l57.76-33.51c.87-.51,1.58-.1,1.58.91v.64a3.5,3.5,0,0,1-1.58,2.74l-57.76,33.52c-.87.51-1.58.1-1.58-.92v-.63A3.53,3.53,0,0,1,237.92,145.09Z" style="fill:#e0e0e0"></path><path d="M237.92,166.62l57.76-33.51c.87-.51,1.58-.1,1.58.91v.64a3.5,3.5,0,0,1-1.58,2.74l-57.76,33.52c-.87.51-1.58.1-1.58-.92v-.63A3.53,3.53,0,0,1,237.92,166.62Z" style="fill:#e0e0e0"></path><path d="M237.92,177.35l57.76-33.51c.87-.51,1.58-.1,1.58.91v.63a3.53,3.53,0,0,1-1.58,2.75l-57.76,33.52c-.87.5-1.58.09-1.58-.92v-.63A3.53,3.53,0,0,1,237.92,177.35Z" style="fill:#e0e0e0"></path><path d="M237.92,188.08l57.76-33.52c.87-.5,1.58-.09,1.58.92v.63a3.53,3.53,0,0,1-1.58,2.75l-57.76,33.51c-.87.51-1.58.1-1.58-.91v-.64A3.5,3.5,0,0,1,237.92,188.08Z" style="fill:#e0e0e0"></path><path d="M237.92,198.8l57.76-33.51c.87-.51,1.58-.1,1.58.91v.64a3.5,3.5,0,0,1-1.58,2.74L237.92,203.1c-.87.5-1.58.09-1.58-.92v-.63A3.53,3.53,0,0,1,237.92,198.8Z" style="fill:#e0e0e0"></path><path d="M237.92,209.53,295.68,176c.87-.5,1.58-.09,1.58.92v.63a3.53,3.53,0,0,1-1.58,2.75l-57.76,33.51c-.87.51-1.58.1-1.58-.91v-.63A3.5,3.5,0,0,1,237.92,209.53Z" style="fill:#e0e0e0"></path><polygon points="236.76 112 260.08 98.53 260.08 125.46 236.76 138.92 236.76 112" style="fill:#90CAF9"></polygon><path d="M240.26,114.69v8.08l.73-.44v-2.47a5.14,5.14,0,0,1,2.48-3.91l3.45-2v12a5.15,5.15,0,0,1-2.17,4.12l-2.16,1.25v.86l11.66-6.73v-.86l-2.17,1.25c-1.2.69-2.17,0-2.17-1.62v-12l3.45-2c1.38-.8,2.49-.33,2.49,1v2.47l.73-.41v-8.08Z" style="fill:#fafafa"></path></g><path d="M144.42,157.36v71a2.62,2.62,0,0,1-1.18,2L72.63,271.22c-.64.37-1.17.07-1.17-.68v-3.71l69.2-40V158.17l2.58-1.49C143.89,156.31,144.42,156.61,144.42,157.36Z" style="fill:#e0e0e0"></path><path d="M140.66,158.17v68.69l-69.2,40V199.51a2.29,2.29,0,0,1,.35-1.15,2.25,2.25,0,0,1,.82-.88Z" style="fill:#90CAF9"></path><path d="M140.66,158.17v68.69l-69.2,40V199.51a2.29,2.29,0,0,1,.35-1.15,2.25,2.25,0,0,1,.82-.88Z" style="fill:#fff;opacity:0.8"></path><path d="M123.59,187.54a1.3,1.3,0,0,0-.23-.18h0l0,0,0,0-4.39-2.53h0l0,0h0a1.49,1.49,0,0,0-2,.49l-15.59,38.43L91,216.88a1.7,1.7,0,0,0-.22-.15h0l-.05,0h0l-4.33-2.5h0a1.49,1.49,0,0,0-2,.44L69.26,245.25v20.31l4.4,2.54,68-39.24a2.53,2.53,0,0,0,1.26-2.19V207.4Z" style="fill:#90CAF9"></path><path d="M123.59,187.54a1.3,1.3,0,0,0-.23-.18h0l0,0,0,0-4.39-2.53h0l0,0h0a1.49,1.49,0,0,0-2,.49l-15.59,38.43L91,216.88a1.7,1.7,0,0,0-.22-.15h0l-.05,0h0l-4.33-2.5h0a1.49,1.49,0,0,0-2,.44L69.26,245.25v20.31l4.4,2.54,68-39.24a2.53,2.53,0,0,0,1.26-2.19V207.4Z" style="opacity:0.15"></path><path d="M73.66,268.1V247.79l15.1-30.61a1.49,1.49,0,0,1,2.21-.3l14.49,9.53,15.86-38.61a1.48,1.48,0,0,1,2.27-.26l19.28,19.86v19.27a2.53,2.53,0,0,1-1.26,2.19Z" style="fill:#90CAF9"></path><polygon points="105.46 226.41 100.89 237.53 103.79 225.32 105.46 226.41" style="opacity:0.15"></polygon><path d="M147.26,153a.58.58,0,0,0,0-.14,2.62,2.62,0,0,0-1.13-1.7L144,150a2.63,2.63,0,0,0-2.35,0L66,193.66a2.46,2.46,0,0,0-.84.88,2.41,2.41,0,0,0-.34,1.15v88.86a2.58,2.58,0,0,0,1.18,2l2,1.19a2.63,2.63,0,0,0,2.08.12l.08,0a.82.82,0,0,0,.19-.09l75.67-43.7a2.61,2.61,0,0,0,1.17-2V153.18A1.21,1.21,0,0,0,147.26,153Zm-2.84,75.4a2.62,2.62,0,0,1-1.18,2L72.63,271.22c-.64.37-1.17.07-1.17-.68v-71a2.59,2.59,0,0,1,1.17-2l70.61-40.79c.65-.38,1.18-.08,1.18.67Z" style="fill:#f0f0f0"></path><path d="M70.16,287.89a2.67,2.67,0,0,1-2.08-.12l-2-1.19a2.56,2.56,0,0,1-1.18-2V195.69a2.32,2.32,0,0,1,.35-1.15l4.4,2.54a2.45,2.45,0,0,0-.34,1.16v88.85C69.26,287.73,69.65,288.05,70.16,287.89Z" style="fill:#e0e0e0"></path><path d="M147.26,153a.68.68,0,0,1,0-.15c-.15-.49-.61-.65-1.14-.33l-75.67,43.7a2.4,2.4,0,0,0-.83.87,2.36,2.36,0,0,0-.35,1.16v88.85c0,.64.4,1,.91.81l.08,0,.19-.09,75.67-43.7a2.61,2.61,0,0,0,1.17-2V153.18A1.21,1.21,0,0,0,147.26,153Zm-2.84,75.4a2.62,2.62,0,0,1-1.18,2L72.63,271.22c-.64.37-1.17.07-1.17-.68v-71a2.29,2.29,0,0,1,.35-1.15,2.25,2.25,0,0,1,.82-.88l68-39.31,2.58-1.49c.65-.37,1.18-.07,1.18.68Z" style="fill:#f5f5f5"></path><path d="M99.1,198.33l1.71-2.9-3.51-2h0a3.35,3.35,0,0,0-3.35.33,10.47,10.47,0,0,0-4.74,8.21,3.36,3.36,0,0,0,1.36,3h0l0,0h0L94,207l1.63-2.77A11.09,11.09,0,0,0,99.1,198.33Z" style="fill:#90CAF9"></path><path d="M99.1,198.33l1.71-2.9-3.51-2h0a3.35,3.35,0,0,0-3.35.33,10.47,10.47,0,0,0-4.74,8.21,3.36,3.36,0,0,0,1.36,3h0l0,0h0L94,207l1.63-2.77A11.09,11.09,0,0,0,99.1,198.33Z" style="opacity:0.15"></path><path d="M97.4,195.73c2.62-1.52,4.74-.29,4.74,2.73a10.47,10.47,0,0,1-4.74,8.21c-2.62,1.51-4.74.29-4.74-2.73A10.46,10.46,0,0,1,97.4,195.73Z" style="fill:#90CAF9"></path><path d="M290.8,153.29,290.86,267a7.35,7.35,0,0,1-3.34,5.78L137.74,359.2c-1.83,1.06-3.34,0-3.34-1.48V220.45a6.81,6.81,0,0,1,1-3.28,7.15,7.15,0,0,1,2.35-2.49l41-23.69a3,3,0,0,1,3-.13l.09,0h0a3.13,3.13,0,0,1,1.39,1.85L186,204.08l.44,1.22a2.92,2.92,0,0,0,4.45,1.77l96.55-55.7a2.48,2.48,0,0,1,2.19-.32l.13.07.08,0,0,0A2.38,2.38,0,0,1,290.8,153.29Z" style="fill:#37474f"></path><path d="M181.75,190.85a3,3,0,0,0-3,.14l-41,23.68a7,7,0,0,0-2.35,2.5l-5-2.92a6.73,6.73,0,0,1,2.35-2.49l41-23.68a3,3,0,0,1,3-.08v0Z" style="fill:#455a64"></path><path d="M289.65,151a2.49,2.49,0,0,0-2.18.32l-96.55,55.7a2.91,2.91,0,0,1-4.45-1.77l-.45-1.22,96.45-55.62A2.92,2.92,0,0,1,284,148a1.74,1.74,0,0,1,.86.22h0Z" style="fill:#455a64"></path><path d="M200.75,258.46a2.3,2.3,0,0,0,3.06-1.09l6.52-13.81V268a2.3,2.3,0,1,0,4.6,0V238.72l7,6.74a2.3,2.3,0,1,0,3.19-3.31l-10.9-10.49a2.28,2.28,0,0,0-2-.6,2.31,2.31,0,0,0-1.66,1.28L199.66,255.4A2.29,2.29,0,0,0,200.75,258.46Z" style="fill:#90CAF9"></path><path d="M228.28,251.26a2.3,2.3,0,0,0-2.3,2.3v13.86l-26.7,15.42V271.63a2.3,2.3,0,1,0-4.6,0v15.19a2.3,2.3,0,0,0,1.15,2,2.38,2.38,0,0,0,1.15.3,2.35,2.35,0,0,0,1.15-.3l31.3-18.07a2.3,2.3,0,0,0,1.15-2V253.56A2.3,2.3,0,0,0,228.28,251.26Z" style="fill:#90CAF9"></path><path d="M135.61,359.53a.44.44,0,0,1-.15,0l-5.16-3a2.41,2.41,0,0,1-.9-2.12V217.54a6.8,6.8,0,0,1,1-3.28l5,2.91h0a6.69,6.69,0,0,0-1,3.28V357.72A1.94,1.94,0,0,0,135.61,359.53Z" style="fill:#263238"></path></g></g></svg>